SplineFontDB: 3.2
FontName: EZFthora
FullName: EZ Fthora
FamilyName: EZ Fthora
Weight: Book
Copyright: 
Version: 1.0
ItalicAngle: 0
UnderlinePosition: 0
UnderlineWidth: 0
Ascent: 800
Descent: 200
InvalidEm: 0
sfntRevision: 0x00000000
LayerCount: 2
Layer: 0 1 "Back" 1
Layer: 1 1 "Fore" 0
XUID: [1021 151 880831689 12641]
StyleMap: 0x0040
FSType: 0
OS2Version: 0
OS2_WeightWidthSlopeOnly: 0
OS2_UseTypoMetrics: 0
CreationTime: -2082844800
ModificationTime: 1646884513
PfmFamily: 17
TTFWeight: 400
TTFWidth: 5
LineGap: 0
VLineGap: 0
Panose: 2 11 6 3 5 3 2 2 2 4
OS2TypoAscent: 1939
OS2TypoAOffset: 0
OS2TypoDescent: 171
OS2TypoDOffset: 0
OS2TypoLinegap: 0
OS2WinAscent: 1939
OS2WinAOffset: 0
OS2WinDescent: -171
OS2WinDOffset: 0
HheadAscent: 1939
HheadAOffset: 0
HheadDescent: 171
HheadDOffset: 0
OS2SubXSize: 0
OS2SubYSize: 0
OS2SubXOff: 0
OS2SubYOff: 0
OS2SupXSize: 0
OS2SupYSize: 0
OS2SupXOff: 0
OS2SupYOff: 0
OS2StrikeYSize: 0
OS2StrikeYPos: 0
OS2UnicodeRanges: 00000000.00000000.00000000.00000000
MarkAttachClasses: 1
DEI: 91125
ShortTable: maxp 16
  1
  0
  96
  85
  3
  0
  0
  1
  0
  16
  0
  0
  0
  0
  0
  0
EndShort
LangName: 1033 "" "" "Regular" "EZ Fthora"
Encoding: Mac
UnicodeInterp: none
NameList: AGL For New Fonts
DisplaySize: -128
AntiAlias: 1
FitToEm: 1
WinInfo: 196 14 5
BeginPrivate: 0
EndPrivate
BeginChars: 256 96

StartChar: .notdef
Encoding: 255 711 0
AltUni2: 0002db.ffffffff.0 0002dd.ffffffff.0 0000b8.ffffffff.0 0002da.ffffffff.0 0002d9.ffffffff.0 0002d8.ffffffff.0 0000af.ffffffff.0 0002dc.ffffffff.0 0002c6.ffffffff.0 000131.ffffffff.0 0000d9.ffffffff.0 0000db.ffffffff.0 0000da.ffffffff.0 0000d2.ffffffff.0 0000d4.ffffffff.0 0000d3.ffffffff.0 0000cc.ffffffff.0 0000cf.ffffffff.0 0000ce.ffffffff.0 0000cd.ffffffff.0 0000c8.ffffffff.0 0000cb.ffffffff.0 0000c1.ffffffff.0 0000ca.ffffffff.0 0000c2.ffffffff.0 002030.ffffffff.0 00201e.ffffffff.0 00201a.ffffffff.0 0000b7.ffffffff.0 002021.ffffffff.0 00fb02.ffffffff.0 00fb01.ffffffff.0 00203a.ffffffff.0 002039.ffffffff.0 0000a4.ffffffff.0 002044.ffffffff.0 000178.ffffffff.0 0000ff.ffffffff.0 0025ca.ffffffff.0 0000f7.ffffffff.0 002019.ffffffff.0 002018.ffffffff.0 00201d.ffffffff.0 00201c.ffffffff.0 002014.ffffffff.0 002013.ffffffff.0 000153.ffffffff.0 000152.ffffffff.0 0000d5.ffffffff.0 0000c3.ffffffff.0 0000c0.ffffffff.0 002026.ffffffff.0 0000bb.ffffffff.0 0000ab.ffffffff.0 002206.ffffffff.0 002248.ffffffff.0 000192.ffffffff.0 00221a.ffffffff.0 0000ac.ffffffff.0 0000a1.ffffffff.0 0000bf.ffffffff.0 0000f8.ffffffff.0 0000e6.ffffffff.0 002126.ffffffff.0 0000ba.ffffffff.0 0000aa.ffffffff.0 00222b.ffffffff.0 0003c0.ffffffff.0 00220f.ffffffff.0 002211.ffffffff.0 002202.ffffffff.0 0000b5.ffffffff.0 0000a5.ffffffff.0 002265.ffffffff.0 002264.ffffffff.0 0000b1.ffffffff.0 00221e.ffffffff.0 0000d8.ffffffff.0 0000c6.ffffffff.0 002260.ffffffff.0 0000a8.ffffffff.0 0000b4.ffffffff.0 002122.ffffffff.0 0000a9.ffffffff.0 0000ae.ffffffff.0 0000df.ffffffff.0 0000b6.ffffffff.0 002022.ffffffff.0 0000a7.ffffffff.0 0000a3.ffffffff.0 0000a2.ffffffff.0 0000b0.ffffffff.0 002020.ffffffff.0 0000fc.ffffffff.0 0000fb.ffffffff.0 0000f9.ffffffff.0 0000fa.ffffffff.0 0000f5.ffffffff.0 0000f6.ffffffff.0 0000f4.ffffffff.0 0000f2.ffffffff.0 0000f3.ffffffff.0 0000f1.ffffffff.0 0000ef.ffffffff.0 0000ee.ffffffff.0 0000ec.ffffffff.0 0000ed.ffffffff.0 0000eb.ffffffff.0 0000ea.ffffffff.0 0000e8.ffffffff.0 0000e9.ffffffff.0 0000e7.ffffffff.0 0000e5.ffffffff.0 0000e3.ffffffff.0 0000e4.ffffffff.0 0000e2.ffffffff.0 0000e0.ffffffff.0 0000e1.ffffffff.0 0000dc.ffffffff.0 0000d6.ffffffff.0 0000d1.ffffffff.0 0000c9.ffffffff.0 0000c7.ffffffff.0 0000c5.ffffffff.0 0000c4.ffffffff.0 00007f.ffffffff.0 00007c.ffffffff.0 00005c.ffffffff.0 00001f.ffffffff.0 00001e.ffffffff.0 00001c.ffffffff.0 00001b.ffffffff.0 00001a.ffffffff.0 000019.ffffffff.0 000018.ffffffff.0 000017.ffffffff.0 000016.ffffffff.0 000015.ffffffff.0 000014.ffffffff.0 000013.ffffffff.0 000012.ffffffff.0 000011.ffffffff.0 000010.ffffffff.0 00000f.ffffffff.0 00000e.ffffffff.0 00000c.ffffffff.0 00000b.ffffffff.0 00000a.ffffffff.0 000007.ffffffff.0 000006.ffffffff.0 000005.ffffffff.0 000004.ffffffff.0 000003.ffffffff.0 000002.ffffffff.0 000001.ffffffff.0
Width: 0
GlyphClass: 1
Flags: W
LayerCount: 2
Fore
SplineSet
-287 292 m 1,0,-1
 -387 191 l 1,1,-1
 -398 178 l 2,2,3
 -409 167 -409 167 -419.5 177.5 c 128,-1,4
 -430 188 -430 188 -419 200 c 2,5,-1
 -389 229 l 1,6,-1
 -305 310 l 1,7,8
 -330 341 -330 341 -330 382 c 0,9,10
 -330 431 -330 431 -295 465.5 c 128,-1,11
 -260 500 -260 500 -211 500 c 0,12,13
 -169 500 -169 500 -136 473 c 1,14,-1
 -86 523 l 1,15,-1
 -136 575 l 2,16,17
 -146 585 -146 585 -135.5 593.5 c 128,-1,18
 -125 602 -125 602 -116 593 c 2,19,-1
 -67 542 l 1,20,-1
 -32 578 l 1,21,-1
 -20 591 l 2,22,23
 -9 602 -9 602 1 591.5 c 128,-1,24
 11 581 11 581 0 569 c 2,25,-1
 -29 541 l 1,26,-1
 -48 523 l 1,27,-1
 0 473 l 2,28,29
 10 464 10 464 -0.5 454.5 c 128,-1,30
 -11 445 -11 445 -20 455 c 2,31,-1
 -67 504 l 1,32,-1
 -118 455 l 1,33,34
 -93 423 -93 423 -93 382 c 0,35,36
 -93 333 -93 333 -128 298.5 c 128,-1,37
 -163 264 -163 264 -211 264 c 0,38,39
 -254 264 -254 264 -287 292 c 1,0,-1
-211 290 m 256,40,41
 -173 290 -173 290 -146 317 c 128,-1,42
 -119 344 -119 344 -119 382 c 0,43,44
 -119 420 -119 420 -146 447.5 c 128,-1,45
 -173 475 -173 475 -211 475 c 256,46,47
 -249 475 -249 475 -276.5 447.5 c 128,-1,48
 -304 420 -304 420 -304 382 c 0,49,50
 -304 343 -304 343 -276.5 316.5 c 128,-1,51
 -249 290 -249 290 -211 290 c 256,40,41
EndSplineSet
EndChar

StartChar: underscore
Encoding: 95 95 4
Width: 0
GlyphClass: 1
Flags: W
LayerCount: 2
Fore
SplineSet
-95 1425 m 1,0,-1
 -197 1324 l 1,1,-1
 -208 1311 l 2,2,3
 -218 1300 -218 1300 -228 1310 c 128,-1,4
 -238 1320 -238 1320 -228 1332 c 2,5,-1
 -199 1359 l 1,6,-1
 -112 1443 l 1,7,8
 -136 1474 -136 1474 -137 1513 c 0,9,10
 -137 1560 -137 1560 -102.5 1594 c 128,-1,11
 -68 1628 -68 1628 -21 1628 c 0,12,13
 26 1628 26 1628 59.5 1594.5 c 128,-1,14
 93 1561 93 1561 93 1513 c 256,15,16
 93 1466 93 1466 59.5 1432 c 128,-1,17
 26 1398 26 1398 -21 1398 c 0,18,19
 -63 1398 -63 1398 -95 1425 c 1,0,-1
-21 1604 m 256,20,21
 -58 1604 -58 1604 -84.5 1577 c 128,-1,22
 -111 1550 -111 1550 -111 1513 c 256,23,24
 -111 1476 -111 1476 -85 1449.5 c 128,-1,25
 -59 1423 -59 1423 -21 1423 c 256,26,27
 16 1423 16 1423 42 1449.5 c 128,-1,28
 68 1476 68 1476 68 1513 c 256,29,30
 68 1550 68 1550 42 1577 c 128,-1,31
 16 1604 16 1604 -21 1604 c 256,20,21
EndSplineSet
EndChar

StartChar: hyphen
Encoding: 45 45 5
Width: 0
GlyphClass: 1
Flags: W
LayerCount: 2
Fore
SplineSet
-621 1426 m 1,0,-1
 -724 1323 l 1,1,-1
 -734 1310 l 2,2,3
 -744 1299 -744 1299 -754.5 1309.5 c 128,-1,4
 -765 1320 -765 1320 -754 1332 c 2,5,-1
 -726 1359 l 1,6,-1
 -638 1443 l 1,7,8
 -662 1474 -662 1474 -663 1514 c 0,9,10
 -663 1562 -663 1562 -628.5 1596 c 128,-1,11
 -594 1630 -594 1630 -547 1630 c 0,12,13
 -499 1630 -499 1630 -465 1596 c 128,-1,14
 -431 1562 -431 1562 -431 1514 c 256,15,16
 -431 1466 -431 1466 -465 1432 c 128,-1,17
 -499 1398 -499 1398 -547 1398 c 0,18,19
 -589 1399 -589 1399 -621 1426 c 1,0,-1
-547 1604 m 0,20,21
 -584 1604 -584 1604 -611 1577.5 c 128,-1,22
 -638 1551 -638 1551 -638 1514 c 0,23,24
 -638 1476 -638 1476 -611 1449.5 c 128,-1,25
 -584 1423 -584 1423 -547 1423 c 0,26,27
 -509 1423 -509 1423 -483 1450 c 128,-1,28
 -457 1477 -457 1477 -457 1514 c 0,29,30
 -457 1551 -457 1551 -483 1577.5 c 128,-1,31
 -509 1604 -509 1604 -547 1604 c 0,20,21
EndSplineSet
EndChar

StartChar: equal
Encoding: 61 61 6
Width: 0
GlyphClass: 1
Flags: W
LayerCount: 2
Fore
SplineSet
-917 557 m 1,0,-1
 -816 659 l 1,1,-1
 -805 672 l 2,2,3
 -794 682 -794 682 -783.5 672.5 c 128,-1,4
 -773 663 -773 663 -785 651 c 2,5,-1
 -813 624 l 1,6,-1
 -901 539 l 1,7,8
 -877 508 -877 508 -876 469 c 0,9,10
 -876 421 -876 421 -910 387.5 c 128,-1,11
 -944 354 -944 354 -991 354 c 0,12,13
 -1039 354 -1039 354 -1073 387.5 c 128,-1,14
 -1107 421 -1107 421 -1107 469 c 0,15,16
 -1107 516 -1107 516 -1073 550 c 128,-1,17
 -1039 584 -1039 584 -991 584 c 0,18,19
 -949 584 -949 584 -917 557 c 1,0,-1
-991 378 m 0,20,21
 -954 378 -954 378 -927.5 405 c 128,-1,22
 -901 432 -901 432 -901 469 c 256,23,24
 -901 506 -901 506 -928 532.5 c 128,-1,25
 -955 559 -955 559 -991 559 c 0,26,27
 -1028 559 -1028 559 -1055 532.5 c 128,-1,28
 -1082 506 -1082 506 -1082 469 c 256,29,30
 -1082 432 -1082 432 -1055 405 c 128,-1,31
 -1028 378 -1028 378 -991 378 c 0,20,21
EndSplineSet
EndChar

StartChar: plus
Encoding: 43 43 7
Width: 0
GlyphClass: 1
Flags: W
LayerCount: 2
Fore
SplineSet
-467 540 m 1,0,-1
 -367 640 l 1,1,-1
 -355 653 l 2,2,3
 -345 663 -345 663 -335 653 c 128,-1,4
 -325 643 -325 643 -336 632 c 2,5,-1
 -364 605 l 1,6,-1
 -450 522 l 1,7,8
 -427 491 -427 491 -426 452 c 0,9,10
 -426 405 -426 405 -459.5 372 c 128,-1,11
 -493 339 -493 339 -540 339 c 0,12,13
 -587 339 -587 339 -620 372 c 128,-1,14
 -653 405 -653 405 -653 452 c 0,15,16
 -653 498 -653 498 -619.5 532 c 128,-1,17
 -586 566 -586 566 -540 566 c 0,18,19
 -499 566 -499 566 -467 540 c 1,0,-1
-540 363 m 0,20,21
 -503 363 -503 363 -477 389 c 128,-1,22
 -451 415 -451 415 -451 452 c 0,23,24
 -451 489 -451 489 -476.5 515 c 128,-1,25
 -502 541 -502 541 -540 541 c 0,26,27
 -577 541 -577 541 -602.5 515 c 128,-1,28
 -628 489 -628 489 -628 452 c 0,29,30
 -628 415 -628 415 -602.5 389 c 128,-1,31
 -577 363 -577 363 -540 363 c 0,20,21
EndSplineSet
EndChar

StartChar: quotedbl
Encoding: 34 34 8
Width: 0
GlyphClass: 1
Flags: W
LayerCount: 2
Fore
SplineSet
-187 1335 m 1,0,-1
 -198 1324 l 1,1,-1
 -209 1311 l 2,2,3
 -220 1300 -220 1300 -230 1310.5 c 128,-1,4
 -240 1321 -240 1321 -229 1333 c 2,5,-1
 -206 1355 l 1,6,-1
 -253 1404 l 2,7,8
 -263 1413 -263 1413 -252.5 1422.5 c 128,-1,9
 -242 1432 -242 1432 -233 1423 c 2,10,-1
 -186 1374 l 1,11,-1
 -161 1398 l 1,12,-1
 -209 1448 l 2,13,14
 -219 1457 -219 1457 -208.5 1466.5 c 128,-1,15
 -198 1476 -198 1476 -190 1467 c 2,16,-1
 -142 1417 l 1,17,-1
 -112 1447 l 1,18,19
 -137 1479 -137 1479 -137 1519 c 0,20,21
 -137 1567 -137 1567 -102 1601.5 c 128,-1,22
 -67 1636 -67 1636 -19 1636 c 0,23,24
 29 1636 29 1636 63.5 1601 c 128,-1,25
 98 1566 98 1566 98 1519 c 0,26,27
 98 1470 98 1470 63.5 1435 c 128,-1,28
 29 1400 29 1400 -19 1400 c 0,29,30
 -61 1400 -61 1400 -94 1428 c 1,31,-1
 -124 1398 l 1,32,-1
 -74 1348 l 2,33,34
 -64 1337 -64 1337 -74.5 1328.5 c 128,-1,35
 -85 1320 -85 1320 -94 1329 c 2,36,-1
 -143 1379 l 1,37,-1
 -167 1355 l 1,38,-1
 -118 1304 l 2,39,40
 -108 1294 -108 1294 -118.5 1285 c 128,-1,41
 -129 1276 -129 1276 -137 1285 c 2,42,-1
 -187 1335 l 1,0,-1
-19 1610 m 0,43,44
 -57 1610 -57 1610 -84 1583 c 128,-1,45
 -111 1556 -111 1556 -111 1519 c 0,46,47
 -111 1480 -111 1480 -84 1453 c 128,-1,48
 -57 1426 -57 1426 -19 1426 c 0,49,50
 19 1426 19 1426 46 1453 c 128,-1,51
 73 1480 73 1480 73 1519 c 0,52,53
 73 1557 73 1557 46 1583.5 c 128,-1,54
 19 1610 19 1610 -19 1610 c 0,43,44
EndSplineSet
EndChar

StartChar: quotesingle
Encoding: 39 39 9
Width: 0
GlyphClass: 1
Flags: W
LayerCount: 2
Fore
SplineSet
-729 1323 m 1,0,-1
 -740 1311 l 1,1,-1
 -751 1298 l 2,2,3
 -761 1287 -761 1287 -771.5 1297.5 c 128,-1,4
 -782 1308 -782 1308 -771 1319 c 2,5,-1
 -747 1342 l 1,6,-1
 -794 1390 l 2,7,8
 -804 1399 -804 1399 -793.5 1408 c 128,-1,9
 -783 1417 -783 1417 -775 1409 c 2,10,-1
 -729 1361 l 1,11,-1
 -704 1384 l 1,12,-1
 -751 1434 l 2,13,14
 -761 1443 -761 1443 -750.5 1451.5 c 128,-1,15
 -740 1460 -740 1460 -732 1452 c 2,16,-1
 -684 1403 l 1,17,-1
 -655 1432 l 1,18,19
 -679 1463 -679 1463 -679 1503 c 0,20,21
 -679 1551 -679 1551 -644.5 1585 c 128,-1,22
 -610 1619 -610 1619 -562 1619 c 256,23,24
 -514 1619 -514 1619 -480 1585 c 128,-1,25
 -446 1551 -446 1551 -446 1503 c 128,-1,26
 -446 1455 -446 1455 -480.5 1421 c 0,27,28
 -514 1387 -514 1387 -562 1387 c 0,29,30
 -604 1387 -604 1387 -637 1414 c 1,31,-1
 -667 1385 l 1,32,-1
 -617 1334 l 2,33,34
 -607 1324 -607 1324 -617.5 1315.5 c 128,-1,35
 -628 1307 -628 1307 -637 1315 c 2,36,-1
 -686 1366 l 1,37,-1
 -709 1341 l 1,38,-1
 -661 1291 l 2,39,40
 -651 1281 -651 1281 -661 1272.5 c 128,-1,41
 -671 1264 -671 1264 -680 1273 c 2,42,-1
 -729 1323 l 1,0,-1
-562 1594 m 256,43,44
 -600 1594 -600 1594 -627 1567 c 128,-1,45
 -654 1540 -654 1540 -654 1503 c 0,46,47
 -654 1465 -654 1465 -627 1438.5 c 128,-1,48
 -600 1412 -600 1412 -562 1412 c 256,49,50
 -524 1412 -524 1412 -498 1438.5 c 128,-1,51
 -472 1465 -472 1465 -472 1503 c 0,52,53
 -472 1540 -472 1540 -498 1567 c 128,-1,54
 -524 1594 -524 1594 -562 1594 c 256,43,44
EndSplineSet
EndChar

StartChar: D
Encoding: 68 68 10
Width: 0
GlyphClass: 1
Flags: W
LayerCount: 2
Fore
SplineSet
-350 1391 m 1,0,-1
 -382 1329 l 2,1,2
 -388 1317 -388 1317 -341 1338.5 c 128,-1,3
 -294 1360 -294 1360 -221 1320 c 0,4,5
 -210 1314 -210 1314 -188.5 1294.5 c 128,-1,6
 -167 1275 -167 1275 -151 1283 c 0,7,8
 -150 1283 -150 1283 -166.5 1305 c 128,-1,9
 -183 1327 -183 1327 -151 1351 c 0,10,11
 -130 1365 -130 1365 -105 1344.5 c 128,-1,12
 -80 1324 -80 1324 -98 1285 c 0,13,14
 -108 1263 -108 1263 -133.5 1258 c 128,-1,15
 -159 1253 -159 1253 -177 1254 c 0,16,17
 -237 1257 -237 1257 -266.5 1284 c 128,-1,18
 -296 1311 -296 1311 -335 1315 c 0,19,20
 -374 1318 -374 1318 -379 1306 c 128,-1,21
 -384 1294 -384 1294 -399 1296 c 0,22,23
 -403 1296 -403 1296 -408.5 1302 c 128,-1,24
 -414 1308 -414 1308 -414 1311 c 0,25,26
 -414 1318 -414 1318 -407 1330 c 2,27,-1
 -369 1402 l 1,28,29
 -419 1437 -419 1437 -419 1498 c 0,30,31
 -419 1547 -419 1547 -384.5 1581.5 c 128,-1,32
 -350 1616 -350 1616 -301 1616 c 0,33,34
 -252 1616 -252 1616 -218 1581.5 c 128,-1,35
 -184 1547 -184 1547 -184 1498 c 256,36,37
 -184 1449 -184 1449 -218 1414.5 c 128,-1,38
 -252 1380 -252 1380 -301 1380 c 0,39,40
 -326 1380 -326 1380 -350 1391 c 1,0,-1
-301 1591 m 256,41,42
 -339 1591 -339 1591 -366.5 1563.5 c 128,-1,43
 -394 1536 -394 1536 -394 1498 c 0,44,45
 -394 1460 -394 1460 -366.5 1433 c 128,-1,46
 -339 1406 -339 1406 -301 1406 c 256,47,48
 -263 1406 -263 1406 -236 1433 c 128,-1,49
 -209 1460 -209 1460 -209 1498 c 0,50,51
 -209 1536 -209 1536 -236 1563.5 c 128,-1,52
 -263 1591 -263 1591 -301 1591 c 256,41,42
EndSplineSet
EndChar

StartChar: d
Encoding: 100 100 11
Width: 0
GlyphClass: 1
Flags: W
LayerCount: 2
Fore
SplineSet
-845 1379 m 1,0,-1
 -877 1317 l 2,1,2
 -882 1305 -882 1305 -836 1327 c 128,-1,3
 -790 1349 -790 1349 -717 1309 c 0,4,5
 -706 1303 -706 1303 -685 1283.5 c 128,-1,6
 -664 1264 -664 1264 -647 1271 c 0,7,8
 -646 1271 -646 1271 -662.5 1293.5 c 128,-1,9
 -679 1316 -679 1316 -647 1339 c 0,10,11
 -626 1353 -626 1353 -601.5 1332.5 c 128,-1,12
 -577 1312 -577 1312 -595 1273 c 0,13,14
 -605 1251 -605 1251 -629.5 1246.5 c 128,-1,15
 -654 1242 -654 1242 -672 1244 c 0,16,17
 -731 1246 -731 1246 -761 1272.5 c 128,-1,18
 -791 1299 -791 1299 -830 1303 c 0,19,20
 -869 1306 -869 1306 -873.5 1294.5 c 128,-1,21
 -878 1283 -878 1283 -894 1285 c 0,22,23
 -898 1285 -898 1285 -903 1291 c 128,-1,24
 -908 1297 -908 1297 -908 1299 c 0,25,26
 -909 1307 -909 1307 -906 1311 c 128,-1,27
 -903 1315 -903 1315 -901 1318 c 2,28,-1
 -863 1390 l 1,29,30
 -913 1425 -913 1425 -914 1486 c 0,31,32
 -914 1534 -914 1534 -879 1568.5 c 128,-1,33
 -844 1603 -844 1603 -796 1603 c 0,34,35
 -748 1603 -748 1603 -714 1568.5 c 128,-1,36
 -680 1534 -680 1534 -680 1486 c 0,37,38
 -680 1438 -680 1438 -714 1403.5 c 128,-1,39
 -748 1369 -748 1369 -796 1369 c 0,40,41
 -821 1369 -821 1369 -845 1379 c 1,0,-1
-796 1578 m 256,42,43
 -834 1578 -834 1578 -861.5 1550.5 c 128,-1,44
 -889 1523 -889 1523 -889 1486 c 0,45,46
 -889 1448 -889 1448 -861.5 1421 c 128,-1,47
 -834 1394 -834 1394 -796 1394 c 256,48,49
 -758 1394 -758 1394 -731.5 1421 c 128,-1,50
 -705 1448 -705 1448 -705 1486 c 0,51,52
 -705 1524 -705 1524 -731.5 1551 c 128,-1,53
 -758 1578 -758 1578 -796 1578 c 256,42,43
EndSplineSet
EndChar

StartChar: c
Encoding: 99 99 12
Width: 0
GlyphClass: 1
Flags: W
LayerCount: 2
Fore
SplineSet
-1203 1322 m 1,0,1
 -1212 1365 -1212 1365 -1207.5 1396 c 128,-1,2
 -1203 1427 -1203 1427 -1229 1497 c 0,3,4
 -1234 1510 -1234 1510 -1237.5 1522.5 c 128,-1,5
 -1241 1535 -1241 1535 -1249 1543 c 0,6,7
 -1260 1553 -1260 1553 -1271 1561 c 1,8,9
 -1285 1567 -1285 1567 -1294 1575 c 1,10,11
 -1304 1582 -1304 1582 -1305.5 1588 c 128,-1,12
 -1307 1594 -1307 1594 -1309 1605 c 1,13,14
 -1308 1618 -1308 1618 -1300 1625 c 0,15,16
 -1292 1633 -1292 1633 -1281 1632 c 0,17,18
 -1269 1631 -1269 1631 -1258 1619 c 0,19,20
 -1253 1614 -1253 1614 -1243 1601 c 0,21,22
 -1237 1593 -1237 1593 -1233.5 1577.5 c 128,-1,23
 -1230 1562 -1230 1562 -1226 1547 c 0,24,25
 -1202 1476 -1202 1476 -1194 1409 c 1,26,27
 -1168 1450 -1168 1450 -1144.5 1486 c 128,-1,28
 -1121 1522 -1121 1522 -1106 1587 c 0,29,30
 -1103 1607 -1103 1607 -1106.5 1623 c 128,-1,31
 -1110 1639 -1110 1639 -1104 1642 c 1,32,33
 -1065 1617 -1065 1617 -1065.5 1558.5 c 128,-1,34
 -1066 1500 -1066 1500 -1091 1464 c 0,35,36
 -1113 1431 -1113 1431 -1140 1397.5 c 128,-1,37
 -1167 1364 -1167 1364 -1195 1324 c 0,38,39
 -1198 1322 -1198 1322 -1203 1322 c 1,0,1
EndSplineSet
EndChar

StartChar: C
Encoding: 67 67 13
Width: 0
GlyphClass: 1
Flags: W
LayerCount: 2
Fore
SplineSet
-377 1328 m 1,0,1
 -385 1370 -385 1370 -381 1401 c 128,-1,2
 -377 1432 -377 1432 -403 1501 c 0,3,4
 -408 1514 -408 1514 -411.5 1526.5 c 128,-1,5
 -415 1539 -415 1539 -423 1546 c 0,6,7
 -430 1555 -430 1555 -443 1563 c 0,8,9
 -463 1574 -463 1574 -467 1579 c 0,10,11
 -472 1584 -472 1584 -474.5 1593.5 c 128,-1,12
 -477 1603 -477 1603 -478 1607 c 0,13,14
 -481 1620 -481 1620 -474 1628 c 0,15,16
 -465 1636 -465 1636 -454 1636 c 0,17,18
 -444 1635 -444 1635 -431 1623 c 0,19,20
 -427 1619 -427 1619 -423 1613 c 128,-1,21
 -419 1607 -419 1607 -417 1604 c 0,22,23
 -412 1597 -412 1597 -408.5 1581 c 128,-1,24
 -405 1565 -405 1565 -400 1551 c 0,25,26
 -389 1517 -389 1517 -381 1484.5 c 128,-1,27
 -373 1452 -373 1452 -368 1415 c 1,28,29
 -343 1456 -343 1456 -319.5 1491 c 128,-1,30
 -296 1526 -296 1526 -281 1591 c 0,31,32
 -278 1611 -278 1611 -281.5 1626.5 c 128,-1,33
 -285 1642 -285 1642 -278 1645 c 1,34,35
 -240 1620 -240 1620 -241 1562 c 128,-1,36
 -242 1504 -242 1504 -266 1469 c 0,37,38
 -288 1436 -288 1436 -314.5 1403 c 128,-1,39
 -341 1370 -341 1370 -370 1330 c 0,40,41
 -373 1327 -373 1327 -377 1328 c 1,0,1
EndSplineSet
EndChar

StartChar: k
Encoding: 107 107 14
Width: 0
GlyphClass: 1
Flags: W
LayerCount: 2
Fore
SplineSet
-765 1416 m 1,0,-1
 -766 1552 l 2,1,2
 -766 1565 -766 1565 -752.5 1565.5 c 128,-1,3
 -739 1566 -739 1566 -739 1552 c 2,4,-1
 -740 1416 l 1,5,6
 -696 1411 -696 1411 -665.5 1377.5 c 128,-1,7
 -635 1344 -635 1344 -635 1299 c 0,8,9
 -635 1251 -635 1251 -669.5 1216.5 c 128,-1,10
 -704 1182 -704 1182 -752 1182 c 0,11,12
 -800 1182 -800 1182 -835 1216 c 128,-1,13
 -870 1250 -870 1250 -870 1299 c 0,14,15
 -870 1344 -870 1344 -839.5 1377.5 c 128,-1,16
 -809 1411 -809 1411 -765 1416 c 1,0,-1
-752 1391 m 256,17,18
 -790 1391 -790 1391 -817.5 1363.5 c 128,-1,19
 -845 1336 -845 1336 -845 1299 c 0,20,21
 -845 1261 -845 1261 -817.5 1234 c 128,-1,22
 -790 1207 -790 1207 -752 1207 c 256,23,24
 -714 1207 -714 1207 -687.5 1234 c 128,-1,25
 -661 1261 -661 1261 -661 1299 c 0,26,27
 -661 1337 -661 1337 -687.5 1364 c 128,-1,28
 -714 1391 -714 1391 -752 1391 c 256,17,18
EndSplineSet
EndChar

StartChar: K
Encoding: 75 75 15
Width: 0
GlyphClass: 1
Flags: W
LayerCount: 2
Fore
SplineSet
-364 1456 m 1,0,-1
 -365 1593 l 2,1,2
 -365 1606 -365 1606 -352 1606.5 c 128,-1,3
 -339 1607 -339 1607 -339 1593 c 2,4,-1
 -340 1456 l 1,5,6
 -296 1451 -296 1451 -265 1417.5 c 128,-1,7
 -234 1384 -234 1384 -234 1338 c 0,8,9
 -234 1290 -234 1290 -268.5 1255.5 c 128,-1,10
 -303 1221 -303 1221 -352 1221 c 0,11,12
 -400 1221 -400 1221 -435 1255.5 c 128,-1,13
 -470 1290 -470 1290 -470 1338 c 0,14,15
 -470 1383 -470 1383 -439 1417 c 128,-1,16
 -408 1451 -408 1451 -364 1456 c 1,0,-1
-352 1430 m 256,17,18
 -390 1430 -390 1430 -417 1403 c 128,-1,19
 -444 1376 -444 1376 -444 1338 c 0,20,21
 -444 1300 -444 1300 -417 1273.5 c 128,-1,22
 -390 1247 -390 1247 -352 1247 c 256,23,24
 -314 1247 -314 1247 -287 1273.5 c 128,-1,25
 -260 1300 -260 1300 -260 1338 c 0,26,27
 -260 1376 -260 1376 -287 1403 c 128,-1,28
 -314 1430 -314 1430 -352 1430 c 256,17,18
EndSplineSet
EndChar

StartChar: less
Encoding: 60 60 16
Width: 0
GlyphClass: 1
Flags: W
LayerCount: 2
Fore
SplineSet
-248 1625 m 1,0,1
 -274 1587 -274 1587 -301.5 1549.5 c 128,-1,2
 -329 1512 -329 1512 -354 1474 c 1,3,4
 -351 1429 -351 1429 -333 1399 c 1,5,6
 -311 1368 -311 1368 -295 1366 c 128,-1,7
 -279 1364 -279 1364 -254 1406 c 1,8,9
 -239 1422 -239 1422 -225.5 1416.5 c 128,-1,10
 -212 1411 -212 1411 -209 1401 c 0,11,12
 -202 1380 -202 1380 -208.5 1364 c 128,-1,13
 -215 1348 -215 1348 -221 1341 c 0,14,15
 -226 1334 -226 1334 -240 1326 c 128,-1,16
 -254 1318 -254 1318 -269 1320 c 0,17,18
 -288 1321 -288 1321 -300 1327 c 0,19,20
 -306 1330 -306 1330 -312 1336.5 c 128,-1,21
 -318 1343 -318 1343 -324 1349 c 0,22,23
 -342 1372 -342 1372 -350 1390 c 0,24,25
 -353 1397 -353 1397 -357.5 1413.5 c 128,-1,26
 -362 1430 -362 1430 -365 1454 c 1,27,-1
 -448 1333 l 1,28,-1
 -509 1333 l 1,29,30
 -488 1362 -488 1362 -470 1386.5 c 128,-1,31
 -452 1411 -452 1411 -429 1450 c 0,32,33
 -423 1461 -423 1461 -423 1501 c 128,-1,34
 -423 1541 -423 1541 -427 1553 c 0,35,36
 -434 1578 -434 1578 -452 1579 c 0,37,38
 -462 1579 -462 1579 -469.5 1573 c 128,-1,39
 -477 1567 -477 1567 -493 1570 c 0,40,41
 -502 1571 -502 1571 -507 1586 c 128,-1,42
 -512 1601 -512 1601 -503 1616 c 0,43,44
 -492 1635 -492 1635 -462 1634 c 0,45,46
 -444 1634 -444 1634 -429 1619 c 0,47,48
 -412 1602 -412 1602 -410 1578 c 0,49,50
 -407 1553 -407 1553 -405 1531.5 c 128,-1,51
 -403 1510 -403 1510 -408 1481 c 1,52,-1
 -310 1625 l 1,53,-1
 -248 1625 l 1,0,1
EndSplineSet
EndChar

StartChar: comma
Encoding: 44 44 17
Width: 0
GlyphClass: 1
Flags: W
LayerCount: 2
Fore
SplineSet
-1049 1623 m 1,0,1
 -1075 1584 -1075 1584 -1103 1545.5 c 128,-1,2
 -1131 1507 -1131 1507 -1156 1468 c 1,3,4
 -1154 1424 -1154 1424 -1136 1393 c 1,5,6
 -1114 1362 -1114 1362 -1097 1359.5 c 128,-1,7
 -1080 1357 -1080 1357 -1055 1400 c 1,8,9
 -1040 1417 -1040 1417 -1026 1410.5 c 128,-1,10
 -1012 1404 -1012 1404 -1009 1395 c 0,11,12
 -1002 1373 -1002 1373 -1009 1357 c 128,-1,13
 -1016 1341 -1016 1341 -1021 1334 c 256,14,15
 -1026 1327 -1026 1327 -1040.5 1319 c 128,-1,16
 -1055 1311 -1055 1311 -1070 1312 c 0,17,18
 -1090 1313 -1090 1313 -1102 1319 c 0,19,20
 -1111 1324 -1111 1324 -1125 1341 c 0,21,22
 -1143 1364 -1143 1364 -1152 1384 c 0,23,24
 -1155 1391 -1155 1391 -1160.5 1407.5 c 128,-1,25
 -1166 1424 -1166 1424 -1168 1448 c 1,26,-1
 -1238 1342 l 1,27,-1
 -1301 1342 l 1,28,29
 -1280 1371 -1280 1371 -1267.5 1388 c 128,-1,30
 -1255 1405 -1255 1405 -1233 1445 c 0,31,32
 -1227 1455 -1227 1455 -1227 1496 c 128,-1,33
 -1227 1537 -1227 1537 -1231 1550 c 0,34,35
 -1239 1575 -1239 1575 -1256 1575 c 0,36,37
 -1266 1575 -1266 1575 -1273.5 1569 c 128,-1,38
 -1281 1563 -1281 1563 -1298 1566 c 0,39,40
 -1308 1567 -1308 1567 -1312.5 1582.5 c 128,-1,41
 -1317 1598 -1317 1598 -1309 1613 c 0,42,43
 -1297 1632 -1297 1632 -1267 1632 c 0,44,45
 -1247 1632 -1247 1632 -1233 1617 c 0,46,47
 -1216 1600 -1216 1600 -1214 1575 c 1,48,49
 -1210 1550 -1210 1550 -1208.5 1527.5 c 128,-1,50
 -1207 1505 -1207 1505 -1211 1477 c 1,51,-1
 -1111 1623 l 1,52,-1
 -1049 1623 l 1,0,1
EndSplineSet
EndChar

StartChar: F
Encoding: 70 70 18
Width: 0
GlyphClass: 1
Flags: W
LayerCount: 2
Fore
SplineSet
-354 1349 m 1,0,1
 -398 1353 -398 1353 -429 1386.5 c 128,-1,2
 -460 1420 -460 1420 -460 1466 c 0,3,4
 -460 1514 -460 1514 -425 1549 c 128,-1,5
 -390 1584 -390 1584 -342 1584 c 256,6,7
 -294 1584 -294 1584 -259 1549 c 128,-1,8
 -224 1514 -224 1514 -224 1466 c 0,9,10
 -224 1420 -224 1420 -255 1387 c 128,-1,11
 -286 1354 -286 1354 -330 1349 c 1,12,-1
 -329 1211 l 2,13,14
 -329 1197 -329 1197 -342 1197.5 c 128,-1,15
 -355 1198 -355 1198 -355 1211 c 2,16,-1
 -354 1349 l 1,0,1
-342 1374 m 0,17,18
 -304 1374 -304 1374 -277 1401 c 128,-1,19
 -250 1428 -250 1428 -250 1466 c 0,20,21
 -250 1504 -250 1504 -277 1531 c 128,-1,22
 -304 1558 -304 1558 -342 1558 c 0,23,24
 -380 1558 -380 1558 -407.5 1531 c 128,-1,25
 -435 1504 -435 1504 -435 1466 c 0,26,27
 -435 1427 -435 1427 -407.5 1400.5 c 128,-1,28
 -380 1374 -380 1374 -342 1374 c 0,17,18
EndSplineSet
EndChar

StartChar: f
Encoding: 102 102 19
Width: 0
GlyphClass: 1
Flags: W
LayerCount: 2
Fore
SplineSet
-764 1319 m 1,0,1
 -808 1324 -808 1324 -839 1357.5 c 128,-1,2
 -870 1391 -870 1391 -870 1437 c 0,3,4
 -870 1485 -870 1485 -835 1519.5 c 128,-1,5
 -800 1554 -800 1554 -752 1554 c 0,6,7
 -703 1554 -703 1554 -668.5 1519.5 c 128,-1,8
 -634 1485 -634 1485 -634 1437 c 0,9,10
 -634 1391 -634 1391 -664.5 1357.5 c 128,-1,11
 -695 1324 -695 1324 -740 1319 c 1,12,-1
 -739 1182 l 2,13,14
 -739 1167 -739 1167 -752 1167.5 c 128,-1,15
 -765 1168 -765 1168 -765 1182 c 2,16,-1
 -764 1319 l 1,0,1
-752 1344 m 256,17,18
 -714 1344 -714 1344 -687 1371 c 128,-1,19
 -660 1398 -660 1398 -660 1437 c 0,20,21
 -660 1475 -660 1475 -687 1501.5 c 128,-1,22
 -714 1528 -714 1528 -752 1528 c 256,23,24
 -790 1528 -790 1528 -817 1501 c 128,-1,25
 -844 1474 -844 1474 -844 1437 c 0,26,27
 -844 1398 -844 1398 -817 1371 c 128,-1,28
 -790 1344 -790 1344 -752 1344 c 256,17,18
EndSplineSet
EndChar

StartChar: V
Encoding: 86 86 20
Width: 0
GlyphClass: 1
Flags: W
LayerCount: 2
Fore
SplineSet
-232 1615 m 1,0,1
 -227 1586 -227 1586 -226.5 1568.5 c 128,-1,2
 -226 1551 -226 1551 -233 1532 c 1,3,4
 -247 1532 -247 1532 -283 1534 c 128,-1,5
 -319 1536 -319 1536 -321 1520 c 0,6,7
 -327 1494 -327 1494 -329 1481 c 128,-1,8
 -331 1468 -331 1468 -322 1430 c 0,9,10
 -314 1401 -314 1401 -283.5 1410.5 c 128,-1,11
 -253 1420 -253 1420 -231 1423 c 1,12,13
 -228 1404 -228 1404 -236 1376.5 c 128,-1,14
 -244 1349 -244 1349 -251 1341 c 0,15,16
 -268 1323 -268 1323 -288 1324 c 0,17,18
 -299 1324 -299 1324 -310.5 1335.5 c 128,-1,19
 -322 1347 -322 1347 -326 1356 c 0,20,21
 -339 1395 -339 1395 -346.5 1448.5 c 128,-1,22
 -354 1502 -354 1502 -335 1539 c 1,23,-1
 -420 1542 l 1,24,25
 -424 1467 -424 1467 -428.5 1437.5 c 128,-1,26
 -433 1408 -433 1408 -445 1364 c 0,27,28
 -455 1324 -455 1324 -484 1324 c 0,29,30
 -496 1324 -496 1324 -505 1333 c 0,31,32
 -511 1340 -511 1340 -511 1353 c 0,33,34
 -511 1356 -511 1356 -509.5 1362 c 128,-1,35
 -508 1368 -508 1368 -508 1369 c 0,36,37
 -508 1371 -508 1371 -500.5 1381 c 128,-1,38
 -493 1391 -493 1391 -490 1395 c 0,39,40
 -484 1404 -484 1404 -474 1411.5 c 128,-1,41
 -464 1419 -464 1419 -458 1435 c 0,42,43
 -451 1450 -451 1450 -442 1496 c 128,-1,44
 -433 1542 -433 1542 -458 1542 c 0,45,46
 -477 1542 -477 1542 -491 1537 c 0,47,48
 -508 1529 -508 1529 -524 1506 c 1,49,-1
 -535 1506 l 1,50,51
 -527 1554 -527 1554 -517 1578.5 c 128,-1,52
 -507 1603 -507 1603 -498 1610 c 0,53,54
 -481 1625 -481 1625 -452 1625 c 0,55,56
 -401 1625 -401 1625 -342 1620 c 128,-1,57
 -283 1615 -283 1615 -232 1615 c 1,0,1
EndSplineSet
EndChar

StartChar: v
Encoding: 118 118 21
Width: 0
GlyphClass: 1
Flags: W
LayerCount: 2
Fore
SplineSet
-1042 1615 m 1,0,1
 -1038 1586 -1038 1586 -1037 1569 c 128,-1,2
 -1036 1552 -1036 1552 -1043 1533 c 1,3,4
 -1057 1533 -1057 1533 -1092.5 1534.5 c 128,-1,5
 -1128 1536 -1128 1536 -1130 1521 c 0,6,7
 -1137 1496 -1137 1496 -1137.5 1478 c 128,-1,8
 -1138 1460 -1138 1460 -1131 1432 c 0,9,10
 -1123 1403 -1123 1403 -1093 1412.5 c 128,-1,11
 -1063 1422 -1063 1422 -1041 1425 c 1,12,13
 -1038 1406 -1038 1406 -1045.5 1379 c 128,-1,14
 -1053 1352 -1053 1352 -1061 1344 c 0,15,16
 -1077 1327 -1077 1327 -1098 1327 c 0,17,18
 -1108 1327 -1108 1327 -1119.5 1338 c 128,-1,19
 -1131 1349 -1131 1349 -1135 1359 c 0,20,21
 -1149 1398 -1149 1398 -1156 1450.5 c 128,-1,22
 -1163 1503 -1163 1503 -1144 1539 c 1,23,-1
 -1228 1543 l 1,24,25
 -1232 1469 -1232 1469 -1235.5 1444 c 128,-1,26
 -1239 1419 -1239 1419 -1250 1375 c 0,27,28
 -1259 1335 -1259 1335 -1290 1336 c 0,29,30
 -1301 1336 -1301 1336 -1310 1345 c 0,31,32
 -1316 1352 -1316 1352 -1316 1364 c 0,33,34
 -1316 1367 -1316 1367 -1314.5 1375 c 128,-1,35
 -1313 1383 -1313 1383 -1308.5 1389 c 128,-1,36
 -1304 1395 -1304 1395 -1295 1402 c 1,37,38
 -1289 1411 -1289 1411 -1280 1416 c 128,-1,39
 -1271 1421 -1271 1421 -1265 1437 c 0,40,41
 -1258 1452 -1258 1452 -1249.5 1497.5 c 128,-1,42
 -1241 1543 -1241 1543 -1265 1543 c 0,43,44
 -1283 1543 -1283 1543 -1298 1537 c 0,45,46
 -1315 1529 -1315 1529 -1331 1507 c 1,47,-1
 -1342 1507 l 1,48,49
 -1334 1555 -1334 1555 -1323.5 1579 c 128,-1,50
 -1313 1603 -1313 1603 -1305 1611 c 0,51,52
 -1288 1625 -1288 1625 -1259 1625 c 0,53,54
 -1209 1625 -1209 1625 -1150.5 1620 c 128,-1,55
 -1092 1615 -1092 1615 -1042 1615 c 1,0,1
EndSplineSet
EndChar

StartChar: G
Encoding: 71 71 22
Width: 0
GlyphClass: 1
Flags: W
LayerCount: 2
Fore
SplineSet
-425 1488 m 2,0,-1
 -255 1554 l 1,1,-1
 -429 1618 l 2,2,3
 -432 1619 -432 1619 -438.5 1637 c 128,-1,4
 -445 1655 -445 1655 -429 1664 c 2,5,-1
 -267 1749 l 1,6,7
 -308 1761 -308 1761 -348.5 1773 c 128,-1,8
 -389 1785 -389 1785 -430 1797 c 0,9,10
 -438 1799 -438 1799 -440 1826.5 c 128,-1,11
 -442 1854 -442 1854 -429 1856 c 0,12,13
 -365 1865 -365 1865 -299.5 1874.5 c 128,-1,14
 -234 1884 -234 1884 -172 1893 c 0,15,16
 -164 1894 -164 1894 -164 1881.5 c 128,-1,17
 -164 1869 -164 1869 -171 1868 c 0,18,19
 -193 1863 -193 1863 -258.5 1856 c 128,-1,20
 -324 1849 -324 1849 -385 1839 c 1,21,-1
 -244 1796 l 2,22,23
 -235 1794 -235 1794 -227.5 1774.5 c 128,-1,24
 -220 1755 -220 1755 -228 1751 c 2,25,-1
 -397 1659 l 1,26,-1
 -234 1601 l 2,27,28
 -226 1598 -226 1598 -213 1575.5 c 128,-1,29
 -200 1553 -200 1553 -212 1548 c 2,30,-1
 -391 1478 l 2,31,32
 -394 1477 -394 1477 -325.5 1473.5 c 128,-1,33
 -257 1470 -257 1470 -203 1463 c 0,34,35
 -161 1457 -161 1457 -140.5 1448 c 128,-1,36
 -120 1439 -120 1439 -104 1431 c 0,37,38
 -91 1424 -91 1424 -76.5 1401 c 128,-1,39
 -62 1378 -62 1378 -61 1362 c 0,40,41
 -58 1322 -58 1322 -76 1291.5 c 128,-1,42
 -94 1261 -94 1261 -134 1265 c 0,43,44
 -180 1268 -180 1268 -177 1322 c 0,45,46
 -176 1340 -176 1340 -159.5 1352 c 128,-1,47
 -143 1364 -143 1364 -124 1359 c 0,48,49
 -91 1349 -91 1349 -90 1363 c 0,50,51
 -87 1416 -87 1416 -174 1431 c 0,52,53
 -312 1452 -312 1452 -361 1446 c 128,-1,54
 -410 1440 -410 1440 -424 1451 c 0,55,56
 -433 1456 -433 1456 -435 1470 c 128,-1,57
 -437 1484 -437 1484 -425 1488 c 2,0,-1
EndSplineSet
EndChar

StartChar: g
Encoding: 103 103 23
Width: 0
GlyphClass: 1
Flags: W
LayerCount: 2
Fore
SplineSet
-859 1377 m 2,0,-1
 -689 1443 l 1,1,-1
 -863 1508 l 2,2,3
 -866 1508 -866 1508 -872.5 1526 c 128,-1,4
 -879 1544 -879 1544 -863 1553 c 2,5,-1
 -701 1639 l 1,6,7
 -742 1651 -742 1651 -782.5 1663 c 128,-1,8
 -823 1675 -823 1675 -864 1687 c 0,9,10
 -872 1689 -872 1689 -874 1716.5 c 128,-1,11
 -876 1744 -876 1744 -863 1746 c 0,12,13
 -799 1755 -799 1755 -733.5 1764.5 c 128,-1,14
 -668 1774 -668 1774 -606 1782 c 0,15,16
 -598 1783 -598 1783 -598 1770.5 c 128,-1,17
 -598 1758 -598 1758 -605 1757 c 0,18,19
 -627 1752 -627 1752 -692.5 1745.5 c 128,-1,20
 -758 1739 -758 1739 -819 1729 c 1,21,-1
 -678 1686 l 2,22,23
 -669 1684 -669 1684 -661.5 1664.5 c 128,-1,24
 -654 1645 -654 1645 -662 1641 c 2,25,-1
 -832 1548 l 1,26,-1
 -668 1491 l 2,27,28
 -660 1488 -660 1488 -647 1465 c 128,-1,29
 -634 1442 -634 1442 -646 1438 c 2,30,-1
 -825 1367 l 2,31,32
 -828 1366 -828 1366 -759.5 1363 c 128,-1,33
 -691 1360 -691 1360 -637 1353 c 0,34,35
 -595 1347 -595 1347 -574 1338 c 128,-1,36
 -553 1329 -553 1329 -538 1320 c 0,37,38
 -524 1313 -524 1313 -509.5 1290.5 c 128,-1,39
 -495 1268 -495 1268 -494 1251 c 0,40,41
 -491 1211 -491 1211 -509 1181 c 128,-1,42
 -527 1151 -527 1151 -567 1154 c 0,43,44
 -614 1158 -614 1158 -611 1211 c 0,45,46
 -610 1228 -610 1228 -593 1241 c 128,-1,47
 -576 1254 -576 1254 -558 1249 c 0,48,49
 -524 1239 -524 1239 -523 1253 c 0,50,51
 -519 1306 -519 1306 -608 1320 c 0,52,53
 -746 1341 -746 1341 -795 1335.5 c 128,-1,54
 -844 1330 -844 1330 -858 1341 c 0,55,56
 -867 1346 -867 1346 -869 1359.5 c 128,-1,57
 -871 1373 -871 1373 -859 1377 c 2,0,-1
EndSplineSet
EndChar

StartChar: b
Encoding: 98 98 24
Width: 0
GlyphClass: 1
Flags: W
LayerCount: 2
Fore
SplineSet
-1214 1569 m 1,0,1
 -1231 1539 -1231 1539 -1235.5 1509.5 c 128,-1,2
 -1240 1480 -1240 1480 -1240 1462 c 1,3,4
 -1189 1512 -1189 1512 -1128.5 1487 c 128,-1,5
 -1068 1462 -1068 1462 -1077 1407 c 0,6,7
 -1082 1366 -1082 1366 -1102.5 1338.5 c 0,8,9
 -1123 1310 -1123 1310 -1193 1312 c 0,10,11
 -1237 1313 -1237 1313 -1255.5 1345.5 c 128,-1,12
 -1274 1378 -1274 1378 -1274 1425 c 0,13,14
 -1274 1502 -1274 1502 -1237.5 1580.5 c 128,-1,15
 -1201 1659 -1201 1659 -1136 1658 c 0,16,17
 -1074 1657 -1074 1657 -1082 1605 c 128,-1,18
 -1090 1553 -1090 1553 -1125 1553 c 0,19,20
 -1156 1553 -1156 1553 -1176 1560 c 128,-1,21
 -1196 1567 -1196 1567 -1214 1569 c 1,0,1
-1184 1606 m 1,22,23
 -1173 1582 -1173 1582 -1157 1581 c 128,-1,24
 -1141 1580 -1141 1580 -1132 1580 c 0,25,26
 -1119 1580 -1119 1580 -1115.5 1600.5 c 128,-1,27
 -1112 1621 -1112 1621 -1124 1625 c 0,28,29
 -1142 1631 -1142 1631 -1155 1624.5 c 128,-1,30
 -1168 1618 -1168 1618 -1184 1606 c 1,22,23
-1156 1466 m 0,31,32
 -1173 1468 -1173 1468 -1191.5 1449 c 128,-1,33
 -1210 1430 -1210 1430 -1219 1399 c 0,34,35
 -1233 1342 -1233 1342 -1202 1340 c 0,36,37
 -1158 1336 -1158 1336 -1137 1388 c 0,38,39
 -1120 1428 -1120 1428 -1127.5 1445 c 128,-1,40
 -1135 1462 -1135 1462 -1156 1466 c 0,31,32
EndSplineSet
EndChar

StartChar: B
Encoding: 66 66 25
Width: 0
GlyphClass: 1
Flags: W
LayerCount: 2
Fore
SplineSet
-407 1568 m 1,0,1
 -424 1538 -424 1538 -428.5 1508 c 128,-1,2
 -433 1478 -433 1478 -433 1461 c 1,3,4
 -382 1511 -382 1511 -321 1485 c 128,-1,5
 -260 1459 -260 1459 -268 1405 c 0,6,7
 -274 1363 -274 1363 -294 1335 c 128,-1,8
 -314 1307 -314 1307 -385 1310 c 0,9,10
 -429 1311 -429 1311 -448.5 1343 c 128,-1,11
 -468 1375 -468 1375 -468 1422 c 0,12,13
 -468 1501 -468 1501 -430.5 1579.5 c 128,-1,14
 -393 1658 -393 1658 -328 1657 c 0,15,16
 -266 1656 -266 1656 -274 1604 c 128,-1,17
 -282 1552 -282 1552 -317 1552 c 0,18,19
 -348 1552 -348 1552 -369 1559 c 128,-1,20
 -390 1566 -390 1566 -407 1568 c 1,0,1
-376 1604 m 1,21,22
 -364 1581 -364 1581 -348.5 1579.5 c 128,-1,23
 -333 1578 -333 1578 -324 1579 c 0,24,25
 -311 1579 -311 1579 -307.5 1599.5 c 128,-1,26
 -304 1620 -304 1620 -316 1624 c 0,27,28
 -335 1630 -335 1630 -347 1623.5 c 128,-1,29
 -359 1617 -359 1617 -376 1604 c 1,21,22
-349 1464 m 0,30,31
 -366 1467 -366 1467 -384.5 1447 c 128,-1,32
 -403 1427 -403 1427 -412 1397 c 0,33,34
 -426 1339 -426 1339 -395 1337 c 0,35,36
 -350 1332 -350 1332 -329 1385 c 0,37,38
 -300 1456 -300 1456 -349 1464 c 0,30,31
EndSplineSet
EndChar

StartChar: L
Encoding: 76 76 26
Width: 1
GlyphClass: 1
Flags: W
LayerCount: 2
Fore
SplineSet
-142 1831 m 0,0,1
 -139 1821 -139 1821 -153 1819 c 128,-1,2
 -167 1817 -167 1817 -168 1828 c 0,3,4
 -171 1847 -171 1847 -173 1864 c 1,5,6
 -213 1859 -213 1859 -264 1852.5 c 128,-1,7
 -315 1846 -315 1846 -355 1839 c 1,8,-1
 -215 1796 l 2,9,10
 -206 1794 -206 1794 -198.5 1774.5 c 128,-1,11
 -191 1755 -191 1755 -198 1751 c 2,12,-1
 -368 1659 l 1,13,-1
 -205 1601 l 2,14,15
 -197 1598 -197 1598 -184 1575.5 c 128,-1,16
 -171 1553 -171 1553 -183 1548 c 2,17,-1
 -361 1478 l 2,18,19
 -364 1477 -364 1477 -296 1473.5 c 128,-1,20
 -228 1470 -228 1470 -173 1463 c 0,21,22
 -131 1457 -131 1457 -111 1448 c 128,-1,23
 -91 1439 -91 1439 -75 1431 c 0,24,25
 -62 1424 -62 1424 -47.5 1401 c 128,-1,26
 -33 1378 -33 1378 -31 1362 c 0,27,28
 -28 1322 -28 1322 -46 1291.5 c 128,-1,29
 -64 1261 -64 1261 -104 1265 c 0,30,31
 -150 1268 -150 1268 -147 1322 c 0,32,33
 -146 1340 -146 1340 -129.5 1352 c 128,-1,34
 -113 1364 -113 1364 -95 1359 c 0,35,36
 -62 1349 -62 1349 -61 1363 c 0,37,38
 -58 1416 -58 1416 -145 1431 c 0,39,40
 -283 1452 -283 1452 -331.5 1446 c 128,-1,41
 -380 1440 -380 1440 -395 1451 c 0,42,43
 -404 1456 -404 1456 -405.5 1469.5 c 128,-1,44
 -407 1483 -407 1483 -396 1488 c 2,45,-1
 -226 1554 l 1,46,-1
 -399 1618 l 2,47,48
 -402 1619 -402 1619 -409 1637 c 128,-1,49
 -416 1655 -416 1655 -400 1664 c 2,50,-1
 -237 1749 l 1,51,52
 -278 1761 -278 1761 -318.5 1773 c 128,-1,53
 -359 1785 -359 1785 -400 1797 c 0,54,55
 -408 1799 -408 1799 -410.5 1826.5 c 128,-1,56
 -413 1854 -413 1854 -400 1856 c 0,57,58
 -382 1861 -382 1861 -307.5 1871.5 c 128,-1,59
 -233 1882 -233 1882 -179 1890 c 1,60,61
 -179 1896 -179 1896 -181 1904 c 128,-1,62
 -183 1912 -183 1912 -185 1926 c 0,63,64
 -185 1939 -185 1939 -171.5 1939 c 128,-1,65
 -158 1939 -158 1939 -158 1930 c 0,66,67
 -156 1918 -156 1918 -154.5 1909.5 c 128,-1,68
 -153 1901 -153 1901 -152 1894 c 1,69,70
 -142 1895 -142 1895 -131 1896.5 c 128,-1,71
 -120 1898 -120 1898 -112 1900 c 0,72,73
 -102 1900 -102 1900 -101 1886.5 c 128,-1,74
 -100 1873 -100 1873 -109 1872 c 0,75,76
 -114 1871 -114 1871 -125.5 1870 c 128,-1,77
 -137 1869 -137 1869 -148 1867 c 1,78,79
 -147 1858 -147 1858 -142 1831 c 0,0,1
EndSplineSet
EndChar

StartChar: l
Encoding: 108 108 27
Width: 0
GlyphClass: 1
Flags: W
LayerCount: 2
Fore
SplineSet
-604 1718 m 0,0,1
 -601 1708 -601 1708 -615 1706.5 c 128,-1,2
 -629 1705 -629 1705 -630 1715 c 0,3,4
 -631 1729 -631 1729 -633 1737.5 c 128,-1,5
 -635 1746 -635 1746 -636 1751 c 1,6,7
 -676 1746 -676 1746 -726.5 1739.5 c 128,-1,8
 -777 1733 -777 1733 -817 1726 c 1,9,-1
 -677 1683 l 2,10,11
 -669 1681 -669 1681 -661 1661.5 c 128,-1,12
 -653 1642 -653 1642 -661 1638 c 2,13,-1
 -830 1546 l 1,14,-1
 -667 1488 l 2,15,16
 -659 1485 -659 1485 -646 1462.5 c 128,-1,17
 -633 1440 -633 1440 -645 1436 c 2,18,-1
 -824 1365 l 2,19,20
 -826 1364 -826 1364 -758 1360.5 c 128,-1,21
 -690 1357 -690 1357 -636 1350 c 0,22,23
 -594 1344 -594 1344 -573 1335 c 128,-1,24
 -552 1326 -552 1326 -537 1318 c 0,25,26
 -524 1311 -524 1311 -509 1288.5 c 128,-1,27
 -494 1266 -494 1266 -493 1249 c 0,28,29
 -490 1209 -490 1209 -508 1178.5 c 128,-1,30
 -526 1148 -526 1148 -566 1151 c 0,31,32
 -587 1152 -587 1152 -599 1169.5 c 128,-1,33
 -611 1187 -611 1187 -609 1209 c 0,34,35
 -608 1227 -608 1227 -591.5 1239 c 128,-1,36
 -575 1251 -575 1251 -557 1246 c 0,37,38
 -523 1236 -523 1236 -522 1250 c 0,39,40
 -519 1303 -519 1303 -606 1318 c 0,41,42
 -745 1339 -745 1339 -793.5 1333.5 c 128,-1,43
 -842 1328 -842 1328 -856 1338 c 0,44,45
 -865 1343 -865 1343 -867.5 1357 c 128,-1,46
 -870 1371 -870 1371 -858 1375 c 2,47,-1
 -688 1441 l 1,48,-1
 -861 1505 l 2,49,50
 -864 1506 -864 1506 -871 1524 c 128,-1,51
 -878 1542 -878 1542 -862 1550 c 2,52,-1
 -699 1636 l 1,53,54
 -740 1648 -740 1648 -780.5 1660 c 128,-1,55
 -821 1672 -821 1672 -862 1684 c 0,56,57
 -870 1686 -870 1686 -872.5 1714 c 128,-1,58
 -875 1742 -875 1742 -862 1743 c 1,59,60
 -844 1748 -844 1748 -769.5 1759 c 128,-1,61
 -695 1770 -695 1770 -641 1777 c 1,62,63
 -641 1783 -641 1783 -643 1791 c 128,-1,64
 -645 1799 -645 1799 -647 1813 c 1,65,66
 -647 1826 -647 1826 -634 1826 c 128,-1,67
 -621 1826 -621 1826 -620 1817 c 0,68,69
 -619 1805 -619 1805 -617 1796.5 c 128,-1,70
 -615 1788 -615 1788 -614 1781 c 1,71,72
 -604 1782 -604 1782 -593 1783.5 c 128,-1,73
 -582 1785 -582 1785 -573 1787 c 0,74,75
 -563 1788 -563 1788 -562 1773.5 c 128,-1,76
 -561 1759 -561 1759 -570 1759 c 0,77,78
 -575 1758 -575 1758 -587 1757 c 128,-1,79
 -599 1756 -599 1756 -610 1754 c 1,80,81
 -609 1747 -609 1747 -607.5 1738.5 c 128,-1,82
 -606 1730 -606 1730 -604 1718 c 0,0,1
EndSplineSet
EndChar

StartChar: period
Encoding: 46 46 28
Width: 0
GlyphClass: 1
Flags: W
LayerCount: 2
Fore
SplineSet
-1279 1640 m 1,0,1
 -1230 1670 -1230 1670 -1201 1644 c 128,-1,2
 -1172 1618 -1172 1618 -1124 1623 c 0,3,4
 -1102 1624 -1102 1624 -1090 1638 c 128,-1,5
 -1078 1652 -1078 1652 -1058 1651 c 0,6,7
 -1048 1652 -1048 1652 -1048 1637 c 128,-1,8
 -1048 1622 -1048 1622 -1058 1615 c 1,9,-1
 -1250 1409 l 1,10,11
 -1231 1420 -1231 1420 -1218.5 1428 c 128,-1,12
 -1206 1436 -1206 1436 -1162 1431 c 0,13,14
 -1138 1428 -1138 1428 -1111 1393.5 c 128,-1,15
 -1084 1359 -1084 1359 -1069 1402 c 1,16,17
 -1060 1435 -1060 1435 -1044.5 1437 c 128,-1,18
 -1029 1439 -1029 1439 -1029 1421 c 0,19,20
 -1029 1396 -1029 1396 -1047 1363 c 128,-1,21
 -1065 1330 -1065 1330 -1137 1330 c 0,22,23
 -1162 1330 -1162 1330 -1176.5 1345 c 128,-1,24
 -1191 1360 -1191 1360 -1206.5 1371.5 c 128,-1,25
 -1222 1383 -1222 1383 -1243 1381.5 c 128,-1,26
 -1264 1380 -1264 1380 -1302 1347 c 1,27,-1
 -1336 1347 l 1,28,-1
 -1336 1363 l 1,29,-1
 -1123 1592 l 1,30,31
 -1134 1583 -1134 1583 -1151.5 1574.5 c 128,-1,32
 -1169 1566 -1169 1566 -1211 1572 c 1,33,34
 -1256 1597 -1256 1597 -1282.5 1583.5 c 128,-1,35
 -1309 1570 -1309 1570 -1316 1570 c 1,36,37
 -1307 1593 -1307 1593 -1302 1605 c 128,-1,38
 -1297 1617 -1297 1617 -1279 1640 c 1,0,1
EndSplineSet
EndChar

StartChar: greater
Encoding: 62 62 29
Width: 0
GlyphClass: 1
Flags: W
LayerCount: 2
Fore
SplineSet
-472 1635 m 1,0,1
 -424 1664 -424 1664 -395.5 1639 c 128,-1,2
 -367 1614 -367 1614 -320 1618 c 0,3,4
 -298 1619 -298 1619 -285.5 1633 c 128,-1,5
 -273 1647 -273 1647 -255 1646 c 0,6,7
 -245 1646 -245 1646 -245.5 1631.5 c 128,-1,8
 -246 1617 -246 1617 -255 1611 c 1,9,-1
 -444 1408 l 1,10,11
 -426 1418 -426 1418 -413 1426 c 128,-1,12
 -400 1434 -400 1434 -357 1430 c 0,13,14
 -334 1427 -334 1427 -307 1393 c 128,-1,15
 -280 1359 -280 1359 -266 1401 c 1,16,17
 -258 1434 -258 1434 -242.5 1436 c 128,-1,18
 -227 1438 -227 1438 -227 1420 c 0,19,20
 -227 1396 -227 1396 -244.5 1363 c 128,-1,21
 -262 1330 -262 1330 -332 1330 c 0,22,23
 -356 1330 -356 1330 -371 1344.5 c 128,-1,24
 -386 1359 -386 1359 -401 1371 c 128,-1,25
 -416 1383 -416 1383 -437 1381 c 128,-1,26
 -458 1379 -458 1379 -495 1346 c 1,27,-1
 -528 1346 l 1,28,-1
 -528 1363 l 1,29,-1
 -318 1588 l 1,30,31
 -329 1580 -329 1580 -346.5 1571 c 128,-1,32
 -364 1562 -364 1562 -405 1568 c 1,33,34
 -450 1592 -450 1592 -476 1579 c 128,-1,35
 -502 1566 -502 1566 -508 1566 c 1,36,37
 -500 1589 -500 1589 -495 1600.5 c 128,-1,38
 -490 1612 -490 1612 -472 1635 c 1,0,1
EndSplineSet
EndChar

StartChar: H
Encoding: 72 72 30
Width: 0
GlyphClass: 1
Flags: W
LayerCount: 2
Fore
SplineSet
-302 1379 m 1,0,1
 -347 1383 -347 1383 -378 1417.5 c 128,-1,2
 -409 1452 -409 1452 -409 1498 c 0,3,4
 -409 1544 -409 1544 -378 1578 c 128,-1,5
 -347 1612 -347 1612 -302 1617 c 1,6,-1
 -303 1722 l 2,7,8
 -303 1735 -303 1735 -290 1736 c 128,-1,9
 -277 1737 -277 1737 -277 1722 c 2,10,-1
 -277 1617 l 1,11,12
 -232 1612 -232 1612 -201 1578 c 128,-1,13
 -170 1544 -170 1544 -170 1498 c 0,14,15
 -170 1452 -170 1452 -201 1418 c 128,-1,16
 -232 1384 -232 1384 -277 1379 c 1,17,-1
 -277 1274 l 2,18,19
 -277 1258 -277 1258 -290 1259 c 128,-1,20
 -303 1260 -303 1260 -303 1274 c 2,21,-1
 -302 1379 l 1,0,1
-290 1592 m 256,22,23
 -329 1592 -329 1592 -356.5 1564.5 c 128,-1,24
 -384 1537 -384 1537 -384 1498 c 256,25,26
 -384 1459 -384 1459 -356 1432 c 128,-1,27
 -328 1405 -328 1405 -290 1405 c 256,28,29
 -251 1405 -251 1405 -223.5 1432 c 128,-1,30
 -196 1459 -196 1459 -196 1498 c 256,31,32
 -196 1537 -196 1537 -223.5 1564.5 c 128,-1,33
 -251 1592 -251 1592 -290 1592 c 256,22,23
EndSplineSet
EndChar

StartChar: h
Encoding: 104 104 31
Width: 0
GlyphClass: 1
Flags: W
LayerCount: 2
Fore
SplineSet
-774 1288 m 1,0,1
 -819 1293 -819 1293 -850 1327 c 128,-1,2
 -881 1361 -881 1361 -881 1407 c 0,3,4
 -881 1454 -881 1454 -850 1487.5 c 128,-1,5
 -819 1521 -819 1521 -774 1526 c 1,6,-1
 -774 1632 l 2,7,8
 -774 1645 -774 1645 -761 1646 c 128,-1,9
 -748 1647 -748 1647 -748 1632 c 2,10,-1
 -749 1526 l 1,11,12
 -704 1521 -704 1521 -673 1487.5 c 128,-1,13
 -642 1454 -642 1454 -642 1407 c 256,14,15
 -642 1361 -642 1361 -673 1326.5 c 128,-1,16
 -704 1292 -704 1292 -749 1288 c 1,17,-1
 -748 1183 l 2,18,19
 -748 1167 -748 1167 -761 1167.5 c 128,-1,20
 -774 1168 -774 1168 -774 1183 c 2,21,-1
 -774 1288 l 1,0,1
-762 1501 m 0,22,23
 -800 1501 -800 1501 -827.5 1473.5 c 128,-1,24
 -855 1446 -855 1446 -855 1407 c 256,25,26
 -855 1368 -855 1368 -827.5 1340.5 c 128,-1,27
 -800 1313 -800 1313 -762 1313 c 0,28,29
 -723 1313 -723 1313 -695 1341 c 128,-1,30
 -667 1369 -667 1369 -667 1407 c 256,31,32
 -667 1446 -667 1446 -695 1473.5 c 128,-1,33
 -723 1501 -723 1501 -762 1501 c 0,22,23
EndSplineSet
EndChar

StartChar: N
Encoding: 78 78 32
Width: 0
GlyphClass: 1
Flags: W
LayerCount: 2
Fore
SplineSet
-521 1581 m 1,0,1
 -391 1581 -391 1581 -348.5 1591 c 128,-1,2
 -306 1601 -306 1601 -306 1601 c 1,3,-1
 -309 1624 l 2,4,5
 -315 1672 -315 1672 -267 1670 c 0,6,7
 -239 1669 -239 1669 -239 1630 c 128,-1,8
 -239 1591 -239 1591 -279 1581 c 0,9,10
 -324 1569 -324 1569 -343.5 1567 c 128,-1,11
 -363 1565 -363 1565 -456 1558 c 1,12,-1
 -456 1333 l 1,13,-1
 -521 1333 l 1,14,-1
 -521 1581 l 1,0,1
EndSplineSet
EndChar

StartChar: n
Encoding: 110 110 33
Width: 0
GlyphClass: 1
Flags: W
LayerCount: 2
Fore
SplineSet
-1306 1594 m 1,0,1
 -1176 1594 -1176 1594 -1133.5 1604 c 128,-1,2
 -1091 1614 -1091 1614 -1091 1614 c 1,3,-1
 -1094 1637 l 2,4,5
 -1100 1685 -1100 1685 -1052 1683 c 0,6,7
 -1024 1682 -1024 1682 -1024 1643 c 128,-1,8
 -1024 1604 -1024 1604 -1064 1594 c 0,9,10
 -1109 1582 -1109 1582 -1128.5 1580 c 128,-1,11
 -1148 1578 -1148 1578 -1240 1571 c 1,12,-1
 -1240 1347 l 1,13,-1
 -1306 1347 l 1,14,-1
 -1306 1594 l 1,0,1
EndSplineSet
EndChar

StartChar: m
Encoding: 109 109 34
Width: 0
GlyphClass: 1
Flags: W
LayerCount: 2
Fore
SplineSet
-1087 1370 m 1,0,-1
 -1173 1572 l 1,1,-1
 -1269 1370 l 1,2,-1
 -1087 1370 l 1,0,-1
-1020 1340 m 1,3,-1
 -1308 1340 l 1,4,-1
 -1156 1662 l 1,5,-1
 -1020 1340 l 1,3,-1
EndSplineSet
EndChar

StartChar: M
Encoding: 77 77 35
Width: 0
GlyphClass: 1
Flags: W
LayerCount: 2
Fore
SplineSet
-264 1360 m 1,0,-1
 -358 1581 l 1,1,-1
 -463 1360 l 1,2,-1
 -264 1360 l 1,0,-1
-211 1328 m 1,3,-1
 -505 1328 l 1,4,-1
 -351 1657 l 1,5,-1
 -211 1328 l 1,3,-1
EndSplineSet
EndChar

StartChar: j
Encoding: 106 106 36
Width: 0
GlyphClass: 1
Flags: W
LayerCount: 2
Fore
SplineSet
-691 1329 m 1,0,1
 -726 1301 -726 1301 -771 1302.5 c 128,-1,2
 -816 1304 -816 1304 -849 1337 c 0,3,4
 -881 1369 -881 1369 -882.5 1414 c 128,-1,5
 -884 1459 -884 1459 -856 1494 c 1,6,-1
 -943 1581 l 2,7,8
 -953 1590 -953 1590 -944 1599.5 c 128,-1,9
 -935 1609 -935 1609 -925 1599 c 2,10,-1
 -839 1511 l 1,11,12
 -804 1539 -804 1539 -759 1537 c 128,-1,13
 -714 1535 -714 1535 -683 1502 c 0,14,15
 -650 1470 -650 1470 -648 1425 c 128,-1,16
 -646 1380 -646 1380 -674 1346 c 1,17,-1
 -591 1264 l 2,18,19
 -580 1253 -580 1253 -589.5 1244 c 128,-1,20
 -599 1235 -599 1235 -610 1246 c 2,21,-1
 -691 1329 l 1,0,1
-831 1485 m 0,22,23
 -858 1458 -858 1458 -857.5 1419.5 c 128,-1,24
 -857 1381 -857 1381 -831 1354 c 0,25,26
 -804 1327 -804 1327 -765.5 1327.5 c 128,-1,27
 -727 1328 -727 1328 -700 1354 c 256,28,29
 -673 1381 -673 1381 -673 1419.5 c 128,-1,30
 -673 1458 -673 1458 -700 1485 c 0,31,32
 -727 1512 -727 1512 -765.5 1512 c 128,-1,33
 -804 1512 -804 1512 -831 1485 c 0,22,23
EndSplineSet
EndChar

StartChar: J
Encoding: 74 74 37
Width: 0
GlyphClass: 1
Flags: W
LayerCount: 2
Fore
SplineSet
-238 1313 m 1,0,1
 -272 1285 -272 1285 -317.5 1287.5 c 128,-1,2
 -363 1290 -363 1290 -395 1322 c 0,3,4
 -427 1354 -427 1354 -429 1398.5 c 128,-1,5
 -431 1443 -431 1443 -403 1478 c 1,6,-1
 -490 1564 l 2,7,8
 -499 1574 -499 1574 -490 1583.5 c 128,-1,9
 -481 1593 -481 1593 -472 1583 c 2,10,-1
 -386 1495 l 1,11,12
 -351 1522 -351 1522 -306 1520.5 c 128,-1,13
 -261 1519 -261 1519 -229 1487 c 0,14,15
 -197 1455 -197 1455 -195 1410 c 128,-1,16
 -193 1365 -193 1365 -222 1331 c 1,17,-1
 -139 1249 l 2,18,19
 -128 1238 -128 1238 -137.5 1229.5 c 128,-1,20
 -147 1221 -147 1221 -157 1231 c 2,21,-1
 -238 1313 l 1,0,1
-377 1469 m 0,22,23
 -404 1442 -404 1442 -404 1404 c 128,-1,24
 -404 1366 -404 1366 -377 1339 c 0,25,26
 -350 1312 -350 1312 -312 1312 c 128,-1,27
 -274 1312 -274 1312 -248 1339 c 0,28,29
 -221 1366 -221 1366 -220.5 1404 c 128,-1,30
 -220 1442 -220 1442 -248 1469 c 0,31,32
 -274 1495 -274 1495 -312 1495 c 128,-1,33
 -350 1495 -350 1495 -377 1469 c 0,22,23
EndSplineSet
EndChar

StartChar: braceleft
Encoding: 123 123 38
Width: 0
GlyphClass: 1
Flags: W
LayerCount: 2
Fore
SplineSet
-177 1346 m 1,0,-1
 -211 1312 l 1,1,-1
 -222 1299 l 2,2,3
 -232 1288 -232 1288 -242 1298.5 c 128,-1,4
 -252 1309 -252 1309 -242 1320 c 2,5,-1
 -213 1348 l 1,6,-1
 -195 1365 l 1,7,-1
 -242 1414 l 2,8,9
 -252 1423 -252 1423 -241 1431.5 c 128,-1,10
 -230 1440 -230 1440 -222 1432 c 2,11,-1
 -176 1384 l 1,12,-1
 -126 1432 l 1,13,14
 -150 1463 -150 1463 -151 1501 c 0,15,16
 -151 1548 -151 1548 -117 1582 c 128,-1,17
 -83 1616 -83 1616 -36 1616 c 0,18,19
 11 1616 11 1616 45 1582.5 c 128,-1,20
 79 1549 79 1549 79 1501 c 256,21,22
 79 1454 79 1454 45.5 1420.5 c 128,-1,23
 12 1387 12 1387 -36 1387 c 0,24,25
 -77 1387 -77 1387 -109 1414 c 1,26,-1
 -158 1365 l 1,27,-1
 -109 1315 l 2,28,29
 -99 1305 -99 1305 -109.5 1296.5 c 128,-1,30
 -120 1288 -120 1288 -128 1297 c 2,31,-1
 -177 1346 l 1,0,-1
-36 1592 m 256,32,33
 -73 1592 -73 1592 -99 1565.5 c 128,-1,34
 -125 1539 -125 1539 -125 1501 c 256,35,36
 -125 1464 -125 1464 -99 1438 c 128,-1,37
 -73 1412 -73 1412 -36 1412 c 256,38,39
 1 1412 1 1412 27.5 1438 c 128,-1,40
 54 1464 54 1464 54 1501 c 256,41,42
 54 1538 54 1538 27.5 1565 c 128,-1,43
 1 1592 1 1592 -36 1592 c 256,32,33
EndSplineSet
EndChar

StartChar: bracketleft
Encoding: 91 91 39
Width: 0
GlyphClass: 1
Flags: W
LayerCount: 2
Fore
SplineSet
-703 1344 m 1,0,-1
 -737 1309 l 1,1,-1
 -748 1296 l 2,2,3
 -758 1285 -758 1285 -768 1295.5 c 128,-1,4
 -778 1306 -778 1306 -768 1317 c 2,5,-1
 -739 1345 l 1,6,-1
 -721 1363 l 1,7,-1
 -768 1411 l 2,8,9
 -778 1420 -778 1420 -767.5 1429 c 128,-1,10
 -757 1438 -757 1438 -749 1429 c 2,11,-1
 -702 1381 l 1,12,-1
 -652 1429 l 1,13,14
 -676 1460 -676 1460 -677 1499 c 0,15,16
 -677 1547 -677 1547 -643 1580.5 c 128,-1,17
 -609 1614 -609 1614 -562 1614 c 256,18,19
 -515 1614 -515 1614 -480.5 1580.5 c 128,-1,20
 -446 1547 -446 1547 -446 1499 c 0,21,22
 -446 1452 -446 1452 -480 1418 c 128,-1,23
 -514 1384 -514 1384 -562 1384 c 0,24,25
 -604 1384 -604 1384 -636 1411 c 1,26,-1
 -684 1362 l 1,27,-1
 -636 1313 l 2,28,29
 -626 1303 -626 1303 -636 1294 c 128,-1,30
 -646 1285 -646 1285 -655 1294 c 2,31,-1
 -703 1344 l 1,0,-1
-562 1589 m 0,32,33
 -599 1589 -599 1589 -625.5 1562.5 c 128,-1,34
 -652 1536 -652 1536 -652 1499 c 0,35,36
 -652 1461 -652 1461 -625.5 1435 c 128,-1,37
 -599 1409 -599 1409 -562 1409 c 0,38,39
 -524 1409 -524 1409 -497.5 1435 c 128,-1,40
 -471 1461 -471 1461 -471 1499 c 0,41,42
 -471 1536 -471 1536 -497.5 1562.5 c 128,-1,43
 -524 1589 -524 1589 -562 1589 c 0,32,33
EndSplineSet
EndChar

StartChar: bracketright
Encoding: 93 93 40
Width: 0
GlyphClass: 1
Flags: W
LayerCount: 2
Fore
SplineSet
-854 625 m 1,0,-1
 -820 660 l 1,1,-1
 -809 673 l 2,2,3
 -798 684 -798 684 -787.5 674 c 128,-1,4
 -777 664 -777 664 -789 652 c 2,5,-1
 -817 625 l 1,6,-1
 -836 606 l 1,7,-1
 -789 558 l 2,8,9
 -779 549 -779 549 -789.5 540 c 128,-1,10
 -800 531 -800 531 -808 540 c 2,11,-1
 -855 588 l 1,12,-1
 -905 540 l 1,13,14
 -881 509 -881 509 -880 469 c 0,15,16
 -880 421 -880 421 -914.5 387.5 c 128,-1,17
 -949 354 -949 354 -996 354 c 0,18,19
 -1044 354 -1044 354 -1078 387.5 c 128,-1,20
 -1112 421 -1112 421 -1112 469 c 0,21,22
 -1112 516 -1112 516 -1078 550.5 c 128,-1,23
 -1044 585 -1044 585 -996 585 c 0,24,25
 -954 585 -954 585 -922 558 c 1,26,-1
 -873 606 l 1,27,-1
 -922 657 l 2,28,29
 -932 667 -932 667 -921.5 675.5 c 128,-1,30
 -911 684 -911 684 -903 675 c 2,31,-1
 -854 625 l 1,0,-1
-996 379 m 256,32,33
 -959 379 -959 379 -932 405.5 c 128,-1,34
 -905 432 -905 432 -905 469 c 0,35,36
 -905 506 -905 506 -932 533 c 128,-1,37
 -959 560 -959 560 -996 560 c 256,38,39
 -1033 560 -1033 560 -1060 533 c 128,-1,40
 -1087 506 -1087 506 -1087 469 c 0,41,42
 -1087 431 -1087 431 -1060 405 c 128,-1,43
 -1033 379 -1033 379 -996 379 c 256,32,33
EndSplineSet
EndChar

StartChar: braceright
Encoding: 125 125 41
Width: 0
GlyphClass: 1
Flags: W
LayerCount: 2
Fore
SplineSet
-403 609 m 1,0,-1
 -368 643 l 1,1,-1
 -357 656 l 2,2,3
 -346 667 -346 667 -336 656.5 c 128,-1,4
 -326 646 -326 646 -337 635 c 2,5,-1
 -366 608 l 1,6,-1
 -384 590 l 1,7,-1
 -337 542 l 2,8,9
 -327 533 -327 533 -338 524 c 128,-1,10
 -349 515 -349 515 -357 523 c 2,11,-1
 -403 571 l 1,12,-1
 -453 524 l 1,13,14
 -429 492 -429 492 -429 454 c 0,15,16
 -429 406 -429 406 -462.5 372.5 c 128,-1,17
 -496 339 -496 339 -543 339 c 256,18,19
 -590 339 -590 339 -624 372.5 c 128,-1,20
 -658 406 -658 406 -658 454 c 0,21,22
 -658 501 -658 501 -624.5 534.5 c 128,-1,23
 -591 568 -591 568 -543 568 c 0,24,25
 -501 568 -501 568 -470 542 c 1,26,-1
 -421 590 l 1,27,-1
 -470 640 l 2,28,29
 -480 650 -480 650 -469.5 658.5 c 128,-1,30
 -459 667 -459 667 -451 658 c 2,31,-1
 -403 609 l 1,0,-1
-543 363 m 0,32,33
 -505 363 -505 363 -479 389.5 c 128,-1,34
 -453 416 -453 416 -453 454 c 0,35,36
 -453 491 -453 491 -479.5 517 c 128,-1,37
 -506 543 -506 543 -543 543 c 0,38,39
 -580 543 -580 543 -606.5 516.5 c 128,-1,40
 -633 490 -633 490 -633 454 c 0,41,42
 -633 416 -633 416 -606.5 389.5 c 128,-1,43
 -580 363 -580 363 -543 363 c 0,32,33
EndSplineSet
EndChar

StartChar: grave
Encoding: 96 96 42
Width: 0
GlyphClass: 1
Flags: W
LayerCount: 2
Fore
SplineSet
-871 1386 m 1,0,-1
 -656 1386 l 1,1,2
 -659 1427 -659 1427 -690 1455.5 c 128,-1,3
 -721 1484 -721 1484 -764 1484 c 0,4,5
 -806 1484 -806 1484 -836.5 1455.5 c 128,-1,6
 -867 1427 -867 1427 -871 1386 c 1,0,-1
-871 1365 m 1,7,8
 -868 1323 -868 1323 -837.5 1295.5 c 128,-1,9
 -807 1268 -807 1268 -764 1268 c 0,10,11
 -722 1268 -722 1268 -691 1296 c 128,-1,12
 -660 1324 -660 1324 -656 1365 c 1,13,-1
 -871 1365 l 1,7,8
-519 1382 m 1,14,15
 -489 1381 -489 1381 -475.5 1379.5 c 128,-1,16
 -462 1378 -462 1378 -443 1376 c 0,17,18
 -422 1375 -422 1375 -402.5 1368 c 128,-1,19
 -383 1361 -383 1361 -370 1356 c 0,20,21
 -355 1349 -355 1349 -341 1334.5 c 128,-1,22
 -327 1320 -327 1320 -324 1303 c 0,23,24
 -316 1265 -316 1265 -331.5 1236.5 c 128,-1,25
 -347 1208 -347 1208 -385 1208 c 0,26,27
 -430 1208 -430 1208 -430 1258 c 0,28,29
 -430 1274 -430 1274 -413.5 1287 c 128,-1,30
 -397 1300 -397 1300 -379 1295 c 0,31,32
 -359 1291 -359 1291 -354 1293.5 c 128,-1,33
 -349 1296 -349 1296 -349 1304 c 0,34,35
 -349 1325 -349 1325 -376.5 1339.5 c 128,-1,36
 -404 1354 -404 1354 -434 1357 c 0,37,38
 -462 1359 -462 1359 -476.5 1360 c 128,-1,39
 -491 1361 -491 1361 -518 1362 c 1,40,-1
 -518 1283 l 2,41,42
 -518 1269 -518 1269 -528 1270 c 2,43,-1
 -533 1270 l 2,44,45
 -543 1270 -543 1270 -542 1283 c 2,46,-1
 -542 1364 l 1,47,48
 -558 1364 -558 1364 -581.5 1364.5 c 128,-1,49
 -605 1365 -605 1365 -629 1365 c 1,50,51
 -632 1312 -632 1312 -670.5 1276 c 128,-1,52
 -709 1240 -709 1240 -764 1240 c 0,53,54
 -817 1240 -817 1240 -856 1276 c 128,-1,55
 -895 1312 -895 1312 -898 1365 c 1,56,57
 -982 1366 -982 1366 -1031.5 1363.5 c 128,-1,58
 -1081 1361 -1081 1361 -1141 1361 c 0,59,60
 -1145 1361 -1145 1361 -1151.5 1362.5 c 128,-1,61
 -1158 1364 -1158 1364 -1158 1366 c 2,62,-1
 -1158 1377 l 2,63,64
 -1158 1379 -1158 1379 -1151.5 1381 c 128,-1,65
 -1145 1383 -1145 1383 -1141 1383 c 0,66,67
 -1080 1383 -1080 1383 -1019.5 1384.5 c 128,-1,68
 -959 1386 -959 1386 -898 1386 c 1,69,70
 -894 1438 -894 1438 -855.5 1474.5 c 128,-1,71
 -817 1511 -817 1511 -764 1511 c 256,72,73
 -711 1511 -711 1511 -672 1474.5 c 128,-1,74
 -633 1438 -633 1438 -629 1386 c 1,75,76
 -606 1386 -606 1386 -586 1384.5 c 128,-1,77
 -566 1383 -566 1383 -542 1383 c 1,78,-1
 -542 1460 l 2,79,80
 -542 1474 -542 1474 -533 1475 c 2,81,-1
 -528 1475 l 2,82,83
 -518 1475 -518 1475 -518 1460 c 2,84,-1
 -519 1382 l 1,14,15
EndSplineSet
EndChar

StartChar: asciitilde
Encoding: 126 126 43
Width: 0
GlyphClass: 1
Flags: W
LayerCount: 2
Fore
SplineSet
-511 1474 m 1,0,-1
 -300 1474 l 1,1,2
 -304 1514 -304 1514 -334 1541.5 c 128,-1,3
 -364 1569 -364 1569 -405 1569 c 0,4,5
 -446 1569 -446 1569 -476.5 1542 c 128,-1,6
 -507 1515 -507 1515 -511 1474 c 1,0,-1
-511 1454 m 1,7,8
 -509 1412 -509 1412 -478 1385 c 128,-1,9
 -447 1358 -447 1358 -405 1358 c 0,10,11
 -364 1358 -364 1358 -334 1385.5 c 128,-1,12
 -304 1413 -304 1413 -300 1454 c 1,13,-1
 -511 1454 l 1,7,8
-166 1470 m 1,14,15
 -137 1469 -137 1469 -123.5 1467.5 c 128,-1,16
 -110 1466 -110 1466 -92 1464 c 0,17,18
 -71 1463 -71 1463 -52 1456.5 c 128,-1,19
 -33 1450 -33 1450 -20 1444 c 0,20,21
 -6 1438 -6 1438 7.5 1423.5 c 128,-1,22
 21 1409 21 1409 24 1393 c 0,23,24
 31 1356 31 1356 16.5 1327.5 c 128,-1,25
 2 1299 2 1299 -35 1300 c 0,26,27
 -78 1300 -78 1300 -79 1348 c 0,28,29
 -79 1364 -79 1364 -63 1376.5 c 128,-1,30
 -47 1389 -47 1389 -29 1385 c 0,31,32
 -9 1380 -9 1380 -4.5 1382.5 c 128,-1,33
 0 1385 0 1385 0 1393 c 0,34,35
 0 1414 0 1414 -26.5 1428.5 c 128,-1,36
 -53 1443 -53 1443 -83 1446 c 0,37,38
 -109 1448 -109 1448 -123.5 1449 c 128,-1,39
 -138 1450 -138 1450 -165 1451 c 1,40,-1
 -165 1374 l 2,41,42
 -165 1360 -165 1360 -175 1359 c 2,43,-1
 -180 1359 l 2,44,45
 -189 1359 -189 1359 -189 1374 c 2,46,-1
 -189 1452 l 1,47,48
 -205 1452 -205 1452 -227.5 1453 c 128,-1,49
 -250 1454 -250 1454 -273 1454 c 1,50,51
 -276 1402 -276 1402 -314.5 1366.5 c 128,-1,52
 -353 1331 -353 1331 -405 1331 c 0,53,54
 -457 1331 -457 1331 -495.5 1366.5 c 128,-1,55
 -534 1402 -534 1402 -537 1454 c 1,56,57
 -620 1455 -620 1455 -668 1452 c 128,-1,58
 -716 1449 -716 1449 -775 1449 c 0,59,60
 -778 1449 -778 1449 -785 1450.5 c 128,-1,61
 -792 1452 -792 1452 -792 1454 c 2,62,-1
 -792 1466 l 2,63,64
 -792 1468 -792 1468 -785.5 1469.5 c 128,-1,65
 -779 1471 -779 1471 -775 1471 c 0,66,67
 -715 1471 -715 1471 -656 1472.5 c 128,-1,68
 -597 1474 -597 1474 -538 1474 c 1,69,70
 -534 1525 -534 1525 -496 1560.5 c 128,-1,71
 -458 1596 -458 1596 -405 1596 c 256,72,73
 -353 1596 -353 1596 -315.5 1560 c 128,-1,74
 -278 1524 -278 1524 -274 1474 c 1,75,76
 -251 1474 -251 1474 -231.5 1472 c 128,-1,77
 -212 1470 -212 1470 -189 1471 c 1,78,-1
 -189 1546 l 2,79,80
 -189 1560 -189 1560 -180 1561 c 2,81,-1
 -175 1561 l 2,82,83
 -165 1561 -165 1561 -165 1546 c 2,84,-1
 -166 1470 l 1,14,15
EndSplineSet
EndChar

StartChar: two
Encoding: 50 50 44
Width: 0
GlyphClass: 1
Flags: W
LayerCount: 2
Fore
SplineSet
-623 1408 m 1,0,1
 -552 1408 -552 1408 -517.5 1405 c 128,-1,2
 -483 1402 -483 1402 -446 1398 c 0,3,4
 -424 1396 -424 1396 -404 1390.5 c 128,-1,5
 -384 1385 -384 1385 -371 1379 c 0,6,7
 -332 1362 -332 1362 -325 1326 c 0,8,9
 -317 1288 -317 1288 -332.5 1258.5 c 128,-1,10
 -348 1229 -348 1229 -386 1230 c 0,11,12
 -430 1230 -430 1230 -432 1280 c 0,13,14
 -432 1297 -432 1297 -415.5 1310 c 128,-1,15
 -399 1323 -399 1323 -380 1318 c 0,16,17
 -360 1313 -360 1313 -355 1315.5 c 128,-1,18
 -350 1318 -350 1318 -350 1327 c 0,19,20
 -350 1348 -350 1348 -377 1361.5 c 128,-1,21
 -404 1375 -404 1375 -436 1379 c 0,22,23
 -501 1385 -501 1385 -533 1386 c 128,-1,24
 -565 1387 -565 1387 -622 1387 c 1,25,26
 -625 1333 -625 1333 -664.5 1297 c 128,-1,27
 -704 1261 -704 1261 -759 1261 c 0,28,29
 -813 1261 -813 1261 -852 1297 c 128,-1,30
 -891 1333 -891 1333 -895 1387 c 1,31,32
 -980 1388 -980 1388 -1030 1385 c 128,-1,33
 -1080 1382 -1080 1382 -1141 1382 c 0,34,35
 -1145 1382 -1145 1382 -1151.5 1383.5 c 128,-1,36
 -1158 1385 -1158 1385 -1158 1388 c 2,37,-1
 -1158 1399 l 2,38,39
 -1158 1401 -1158 1401 -1151.5 1403 c 128,-1,40
 -1145 1405 -1145 1405 -1141 1405 c 0,41,42
 -1079 1405 -1079 1405 -1018 1406.5 c 128,-1,43
 -957 1408 -957 1408 -896 1408 c 1,44,45
 -891 1460 -891 1460 -851.5 1497 c 128,-1,46
 -812 1534 -812 1534 -759 1534 c 256,47,48
 -705 1534 -705 1534 -666 1497 c 128,-1,49
 -627 1460 -627 1460 -623 1408 c 1,0,1
-867 1408 m 1,50,-1
 -650 1408 l 1,51,52
 -653 1449 -653 1449 -684 1478 c 128,-1,53
 -715 1507 -715 1507 -759 1507 c 0,54,55
 -801 1507 -801 1507 -832 1478.5 c 128,-1,56
 -863 1450 -863 1450 -867 1408 c 1,50,-1
-867 1387 m 1,57,58
 -865 1344 -865 1344 -833.5 1316 c 128,-1,59
 -802 1288 -802 1288 -759 1288 c 0,60,61
 -716 1288 -716 1288 -685 1316.5 c 128,-1,62
 -654 1345 -654 1345 -650 1387 c 1,63,-1
 -867 1387 l 1,57,58
EndSplineSet
EndChar

StartChar: at
Encoding: 64 64 45
Width: 0
GlyphClass: 1
Flags: W
LayerCount: 2
Fore
SplineSet
-268 1487 m 1,0,1
 -198 1487 -198 1487 -164 1484 c 128,-1,2
 -130 1481 -130 1481 -94 1478 c 0,3,4
 -55 1474 -55 1474 -20 1459 c 0,5,6
 18 1442 18 1442 25 1406 c 0,7,8
 33 1368 33 1368 17.5 1339 c 128,-1,9
 2 1310 2 1310 -35 1312 c 0,10,11
 -78 1312 -78 1312 -80 1361 c 0,12,13
 -80 1378 -80 1378 -63.5 1390.5 c 128,-1,14
 -47 1403 -47 1403 -29 1398 c 0,15,16
 -9 1393 -9 1393 -4.5 1395.5 c 128,-1,17
 0 1398 0 1398 0 1407 c 0,18,19
 0 1428 0 1428 -26.5 1441.5 c 128,-1,20
 -53 1455 -53 1455 -84 1458 c 0,21,22
 -148 1464 -148 1464 -179.5 1465.5 c 128,-1,23
 -211 1467 -211 1467 -267 1467 c 1,24,25
 -270 1414 -270 1414 -309 1378 c 128,-1,26
 -348 1342 -348 1342 -402 1342 c 0,27,28
 -455 1342 -455 1342 -493.5 1377.5 c 128,-1,29
 -532 1413 -532 1413 -536 1466 c 1,30,31
 -620 1467 -620 1467 -669 1464.5 c 128,-1,32
 -718 1462 -718 1462 -779 1462 c 0,33,34
 -782 1462 -782 1462 -788.5 1463.5 c 128,-1,35
 -795 1465 -795 1465 -795 1467 c 2,36,-1
 -795 1479 l 2,37,38
 -795 1481 -795 1481 -788.5 1482.5 c 128,-1,39
 -782 1484 -782 1484 -779 1484 c 0,40,41
 -718 1484 -718 1484 -657.5 1485.5 c 128,-1,42
 -597 1487 -597 1487 -537 1487 c 1,43,44
 -533 1539 -533 1539 -494 1575 c 128,-1,45
 -455 1611 -455 1611 -402 1611 c 256,46,47
 -349 1611 -349 1611 -310.5 1575 c 128,-1,48
 -272 1539 -272 1539 -268 1487 c 1,0,1
-509 1487 m 1,49,-1
 -294 1487 l 1,50,51
 -298 1528 -298 1528 -328.5 1556 c 128,-1,52
 -359 1584 -359 1584 -402 1584 c 0,53,54
 -444 1584 -444 1584 -474.5 1556 c 128,-1,55
 -505 1528 -505 1528 -509 1487 c 1,49,-1
-509 1466 m 1,56,57
 -507 1424 -507 1424 -476 1396.5 c 128,-1,58
 -445 1369 -445 1369 -402 1369 c 0,59,60
 -360 1369 -360 1369 -329 1397 c 128,-1,61
 -298 1425 -298 1425 -295 1466 c 1,62,-1
 -509 1466 l 1,56,57
EndSplineSet
EndChar

StartChar: w
Encoding: 119 119 46
Width: 0
GlyphClass: 1
Flags: W
LayerCount: 2
Fore
SplineSet
-682 576 m 1,0,1
 -611 576 -611 576 -576.5 573 c 128,-1,2
 -542 570 -542 570 -504 566 c 0,3,4
 -463 562 -463 562 -428 547 c 0,5,6
 -389 530 -389 530 -382 493 c 0,7,8
 -374 455 -374 455 -389.5 425.5 c 128,-1,9
 -405 396 -405 396 -444 397 c 0,10,11
 -488 397 -488 397 -490 448 c 0,12,13
 -490 465 -490 465 -473.5 477.5 c 128,-1,14
 -457 490 -457 490 -438 486 c 0,15,16
 -417 481 -417 481 -412 483.5 c 128,-1,17
 -407 486 -407 486 -407 494 c 0,18,19
 -407 515 -407 515 -434.5 529 c 128,-1,20
 -462 543 -462 543 -494 547 c 0,21,22
 -559 553 -559 553 -591.5 554 c 128,-1,23
 -624 555 -624 555 -681 555 c 1,24,25
 -684 501 -684 501 -724 464.5 c 128,-1,26
 -764 428 -764 428 -819 428 c 0,27,28
 -873 428 -873 428 -912.5 464.5 c 128,-1,29
 -952 501 -952 501 -956 555 c 1,30,31
 -1042 556 -1042 556 -1092 553 c 128,-1,32
 -1142 550 -1142 550 -1204 550 c 0,33,34
 -1208 550 -1208 550 -1214.5 551.5 c 128,-1,35
 -1221 553 -1221 553 -1221 556 c 2,36,-1
 -1221 567 l 2,37,38
 -1221 569 -1221 569 -1214 571 c 128,-1,39
 -1207 573 -1207 573 -1204 573 c 0,40,41
 -1142 573 -1142 573 -1080 574.5 c 128,-1,42
 -1018 576 -1018 576 -956 576 c 1,43,44
 -952 629 -952 629 -912.5 666 c 128,-1,45
 -873 703 -873 703 -819 703 c 256,46,47
 -765 703 -765 703 -725.5 666 c 128,-1,48
 -686 629 -686 629 -682 576 c 1,0,1
-928 576 m 1,49,-1
 -709 576 l 1,50,51
 -713 618 -713 618 -744 646.5 c 128,-1,52
 -775 675 -775 675 -819 675 c 0,53,54
 -861 675 -861 675 -892.5 646.5 c 128,-1,55
 -924 618 -924 618 -928 576 c 1,49,-1
-929 555 m 1,56,57
 -926 512 -926 512 -894 483.5 c 128,-1,58
 -862 455 -862 455 -819 455 c 256,59,60
 -776 455 -776 455 -744.5 484 c 128,-1,61
 -713 513 -713 513 -709 555 c 1,62,-1
 -929 555 l 1,56,57
EndSplineSet
EndChar

StartChar: W
Encoding: 87 87 47
Width: 0
GlyphClass: 1
Flags: W
LayerCount: 2
Fore
SplineSet
-187 524 m 1,0,1
 -117 524 -117 524 -83 521.5 c 128,-1,2
 -49 519 -49 519 -13 515 c 0,3,4
 26 511 26 511 61 496 c 0,5,6
 99 480 99 480 106 444 c 0,7,8
 114 406 114 406 98.5 377 c 128,-1,9
 83 348 83 348 45 350 c 0,10,11
 2 350 2 350 1 399 c 0,12,13
 1 416 1 416 17.5 428.5 c 128,-1,14
 34 441 34 441 52 436 c 0,15,16
 71 431 71 431 76 434 c 128,-1,17
 81 437 81 437 81 444 c 0,18,19
 81 465 81 465 54 478.5 c 128,-1,20
 27 492 27 492 -3 496 c 0,21,22
 -67 502 -67 502 -98.5 503 c 128,-1,23
 -130 504 -130 504 -186 504 c 1,24,25
 -189 451 -189 451 -227.5 415 c 128,-1,26
 -266 379 -266 379 -320 379 c 0,27,28
 -373 379 -373 379 -411.5 415 c 128,-1,29
 -450 451 -450 451 -454 504 c 1,30,31
 -537 505 -537 505 -586 502 c 128,-1,32
 -635 499 -635 499 -696 499 c 0,33,34
 -700 499 -700 499 -706 500.5 c 128,-1,35
 -712 502 -712 502 -712 504 c 2,36,-1
 -712 516 l 2,37,38
 -712 518 -712 518 -705.5 519.5 c 128,-1,39
 -699 521 -699 521 -696 521 c 0,40,41
 -635 521 -635 521 -575 522.5 c 128,-1,42
 -515 524 -515 524 -454 524 c 1,43,44
 -450 576 -450 576 -411.5 612 c 128,-1,45
 -373 648 -373 648 -320 648 c 0,46,47
 -267 648 -267 648 -228.5 612 c 128,-1,48
 -190 576 -190 576 -187 524 c 1,0,1
-427 524 m 1,49,-1
 -213 524 l 1,50,51
 -217 565 -217 565 -247 593.5 c 128,-1,52
 -277 622 -277 622 -320 622 c 0,53,54
 -361 622 -361 622 -392 593.5 c 128,-1,55
 -423 565 -423 565 -427 524 c 1,49,-1
-427 504 m 1,56,57
 -425 462 -425 462 -394 434 c 128,-1,58
 -363 406 -363 406 -320 406 c 256,59,60
 -278 406 -278 406 -247.5 434 c 128,-1,61
 -217 462 -217 462 -213 504 c 1,62,-1
 -427 504 l 1,56,57
EndSplineSet
EndChar

StartChar: exclam
Encoding: 33 33 48
Width: 0
GlyphClass: 1
Flags: W
LayerCount: 2
Fore
SplineSet
-273 1419 m 1,0,-1
 -483 1467 l 1,1,2
 -483 1464 -483 1464 -483.5 1461.5 c 128,-1,3
 -484 1459 -484 1459 -484 1456 c 0,4,5
 -484 1411 -484 1411 -452 1379.5 c 128,-1,6
 -420 1348 -420 1348 -375 1348 c 0,7,8
 -340 1348 -340 1348 -312 1368 c 128,-1,9
 -284 1388 -284 1388 -273 1419 c 1,0,-1
-267 1445 m 1,10,11
 -267 1447 -267 1447 -267 1456 c 0,12,13
 -267 1500 -267 1500 -298.5 1532 c 128,-1,14
 -330 1564 -330 1564 -375 1564 c 0,15,16
 -410 1564 -410 1564 -437.5 1544 c 128,-1,17
 -465 1524 -465 1524 -477 1494 c 1,18,-1
 -267 1445 l 1,10,11
-241 1439 m 1,19,-1
 -95 1406 l 2,20,21
 -53 1396 -53 1396 -45 1425.5 c 128,-1,22
 -37 1455 -37 1455 -94 1467 c 0,23,24
 -115 1471 -115 1471 -107 1508 c 128,-1,25
 -99 1545 -99 1545 -56 1535 c 0,26,27
 -14 1524 -14 1524 -5 1486.5 c 128,-1,28
 4 1449 4 1449 -6 1426 c 0,29,30
 -11 1413 -11 1413 -33.5 1391 c 128,-1,31
 -56 1369 -56 1369 -101 1379 c 2,32,-1
 -248 1413 l 1,33,34
 -261 1372 -261 1372 -296 1346 c 128,-1,35
 -331 1320 -331 1320 -375 1320 c 0,36,37
 -431 1320 -431 1320 -471 1360 c 128,-1,38
 -511 1400 -511 1400 -511 1456 c 0,39,40
 -511 1462 -511 1462 -509 1473 c 1,41,-1
 -653 1506 l 2,42,43
 -696 1516 -696 1516 -703.5 1486.5 c 128,-1,44
 -711 1457 -711 1457 -654 1445 c 0,45,46
 -633 1441 -633 1441 -641.5 1404 c 128,-1,47
 -650 1367 -650 1367 -693 1377 c 0,48,49
 -735 1387 -735 1387 -744 1425 c 128,-1,50
 -753 1463 -753 1463 -743 1487 c 0,51,52
 -738 1499 -738 1499 -716 1521 c 128,-1,53
 -694 1543 -694 1543 -647 1533 c 2,54,-1
 -504 1500 l 1,55,56
 -489 1540 -489 1540 -454 1566 c 128,-1,57
 -419 1592 -419 1592 -375 1592 c 0,58,59
 -319 1592 -319 1592 -279.5 1552 c 128,-1,60
 -240 1512 -240 1512 -240 1456 c 0,61,62
 -240 1450 -240 1450 -241 1439 c 1,19,-1
EndSplineSet
EndChar

StartChar: Q
Encoding: 81 81 49
Width: 0
GlyphClass: 1
Flags: W
LayerCount: 2
Fore
SplineSet
-273 494 m 1,0,-1
 -483 542 l 1,1,2
 -483 539 -483 539 -483.5 536 c 128,-1,3
 -484 533 -484 533 -484 530 c 0,4,5
 -484 485 -484 485 -451.5 453.5 c 128,-1,6
 -419 422 -419 422 -375 422 c 0,7,8
 -340 422 -340 422 -312 442.5 c 128,-1,9
 -284 463 -284 463 -273 494 c 1,0,-1
-267 520 m 1,10,11
 -267 522 -267 522 -267 530 c 0,12,13
 -267 574 -267 574 -298.5 606.5 c 128,-1,14
 -330 639 -330 639 -375 639 c 0,15,16
 -410 639 -410 639 -437.5 619 c 128,-1,17
 -465 599 -465 599 -477 568 c 1,18,-1
 -267 520 l 1,10,11
-241 513 m 1,19,-1
 -94 480 l 2,20,21
 -52 471 -52 471 -44.5 500 c 128,-1,22
 -37 529 -37 529 -94 542 c 0,23,24
 -115 546 -115 546 -106.5 583 c 128,-1,25
 -98 620 -98 620 -55 609 c 0,26,27
 -13 598 -13 598 -4.5 560.5 c 128,-1,28
 4 523 4 523 -5 500 c 0,29,30
 -10 487 -10 487 -33 465 c 128,-1,31
 -56 443 -56 443 -101 454 c 2,32,-1
 -247 487 l 1,33,34
 -260 446 -260 446 -295 420.5 c 128,-1,35
 -330 395 -330 395 -375 395 c 0,36,37
 -431 395 -431 395 -471 434.5 c 128,-1,38
 -511 474 -511 474 -511 530 c 0,39,40
 -511 536 -511 536 -509 548 c 1,41,-1
 -653 581 l 2,42,43
 -696 590 -696 590 -703.5 561 c 128,-1,44
 -711 532 -711 532 -654 520 c 0,45,46
 -633 516 -633 516 -641.5 478.5 c 128,-1,47
 -650 441 -650 441 -693 452 c 0,48,49
 -735 463 -735 463 -744 500 c 128,-1,50
 -753 537 -753 537 -743 561 c 0,51,52
 -738 574 -738 574 -716 596 c 128,-1,53
 -694 618 -694 618 -647 607 c 2,54,-1
 -503 574 l 1,55,56
 -489 614 -489 614 -454 640 c 128,-1,57
 -419 666 -419 666 -375 666 c 0,58,59
 -319 666 -319 666 -279 626 c 128,-1,60
 -239 586 -239 586 -239 530 c 0,61,62
 -239 524 -239 524 -241 513 c 1,19,-1
EndSplineSet
EndChar

StartChar: one
Encoding: 49 49 50
Width: 0
GlyphClass: 1
Flags: W
LayerCount: 2
Fore
SplineSet
-640 1362 m 1,0,-1
 -849 1410 l 1,1,2
 -850 1406 -850 1406 -850 1398 c 0,3,4
 -850 1354 -850 1354 -818 1322.5 c 128,-1,5
 -786 1291 -786 1291 -741 1291 c 0,6,7
 -706 1291 -706 1291 -678.5 1311 c 128,-1,8
 -651 1331 -651 1331 -640 1362 c 1,0,-1
-634 1388 m 1,9,10
 -634 1390 -634 1390 -633 1398 c 0,11,12
 -633 1442 -633 1442 -664.5 1474 c 128,-1,13
 -696 1506 -696 1506 -741 1506 c 0,14,15
 -776 1506 -776 1506 -803.5 1486.5 c 128,-1,16
 -831 1467 -831 1467 -843 1436 c 1,17,-1
 -634 1388 l 1,9,10
-608 1382 m 1,18,-1
 -462 1349 l 2,19,20
 -420 1340 -420 1340 -412 1368.5 c 128,-1,21
 -404 1397 -404 1397 -461 1410 c 0,22,23
 -482 1414 -482 1414 -474 1451 c 128,-1,24
 -466 1488 -466 1488 -422 1477 c 0,25,26
 -379 1466 -379 1466 -370.5 1428.5 c 128,-1,27
 -362 1391 -362 1391 -373 1369 c 0,28,29
 -378 1356 -378 1356 -400.5 1334 c 128,-1,30
 -423 1312 -423 1312 -468 1322 c 2,31,-1
 -614 1355 l 1,32,33
 -627 1315 -627 1315 -661.5 1289 c 128,-1,34
 -696 1263 -696 1263 -741 1263 c 0,35,36
 -797 1263 -797 1263 -837 1303 c 128,-1,37
 -877 1343 -877 1343 -877 1398 c 0,38,39
 -877 1405 -877 1405 -875 1416 c 1,40,-1
 -1018 1449 l 2,41,42
 -1061 1459 -1061 1459 -1069 1429 c 128,-1,43
 -1077 1399 -1077 1399 -1020 1388 c 0,44,45
 -999 1384 -999 1384 -1007 1347 c 128,-1,46
 -1015 1310 -1015 1310 -1058 1320 c 0,47,48
 -1100 1330 -1100 1330 -1109 1368 c 128,-1,49
 -1118 1406 -1118 1406 -1108 1429 c 0,50,51
 -1103 1442 -1103 1442 -1081 1463.5 c 128,-1,52
 -1059 1485 -1059 1485 -1012 1475 c 2,53,-1
 -869 1442 l 1,54,55
 -855 1482 -855 1482 -820 1508 c 128,-1,56
 -785 1534 -785 1534 -741 1534 c 0,57,58
 -685 1534 -685 1534 -645.5 1494 c 128,-1,59
 -606 1454 -606 1454 -606 1398 c 0,60,61
 -606 1389 -606 1389 -608 1382 c 1,18,-1
EndSplineSet
EndChar

StartChar: q
Encoding: 113 113 51
Width: 0
GlyphClass: 1
Flags: W
LayerCount: 2
Fore
SplineSet
-645 556 m 1,0,-1
 -854 604 l 1,1,2
 -855 600 -855 600 -854 593 c 0,3,4
 -854 549 -854 549 -822.5 517 c 128,-1,5
 -791 485 -791 485 -746 485 c 0,6,7
 -711 485 -711 485 -683.5 505 c 128,-1,8
 -656 525 -656 525 -645 556 c 1,0,-1
-639 582 m 1,9,10
 -639 584 -639 584 -638 593 c 0,11,12
 -638 637 -638 637 -669.5 669 c 128,-1,13
 -701 701 -701 701 -746 701 c 0,14,15
 -781 701 -781 701 -808 681 c 128,-1,16
 -835 661 -835 661 -848 630 c 1,17,-1
 -639 582 l 1,9,10
-613 576 m 1,18,-1
 -467 543 l 2,19,20
 -425 534 -425 534 -417 563 c 128,-1,21
 -409 592 -409 592 -466 604 c 0,22,23
 -487 608 -487 608 -479 645 c 128,-1,24
 -471 682 -471 682 -427 671 c 0,25,26
 -384 660 -384 660 -375.5 622.5 c 128,-1,27
 -367 585 -367 585 -377 563 c 0,28,29
 -382 550 -382 550 -405 528 c 128,-1,30
 -428 506 -428 506 -473 517 c 2,31,-1
 -619 550 l 1,32,33
 -632 510 -632 510 -666.5 484 c 128,-1,34
 -701 458 -701 458 -746 458 c 0,35,36
 -802 458 -802 458 -842 497.5 c 128,-1,37
 -882 537 -882 537 -882 593 c 0,38,39
 -882 599 -882 599 -880 610 c 1,40,-1
 -1023 643 l 2,41,42
 -1066 652 -1066 652 -1074 623 c 128,-1,43
 -1082 594 -1082 594 -1024 582 c 0,44,45
 -1003 578 -1003 578 -1011.5 541 c 128,-1,46
 -1020 504 -1020 504 -1063 515 c 0,47,48
 -1105 525 -1105 525 -1114 562.5 c 128,-1,49
 -1123 600 -1123 600 -1113 623 c 0,50,51
 -1108 636 -1108 636 -1085.5 658 c 128,-1,52
 -1063 680 -1063 680 -1017 669 c 2,53,-1
 -874 636 l 1,54,55
 -860 676 -860 676 -825 702 c 128,-1,56
 -790 728 -790 728 -746 728 c 0,57,58
 -690 728 -690 728 -650.5 688 c 128,-1,59
 -611 648 -611 648 -611 593 c 0,60,61
 -611 584 -611 584 -613 576 c 1,18,-1
EndSplineSet
EndChar

StartChar: parenright
Encoding: 41 41 52
Width: 0
GlyphClass: 1
Flags: W
LayerCount: 2
Fore
SplineSet
-138 1438 m 1,0,-1
 -210 1344 l 2,1,2
 -222 1327 -222 1327 -238.5 1317.5 c 128,-1,3
 -255 1308 -255 1308 -266 1303 c 0,4,5
 -278 1296 -278 1296 -301 1297.5 c 128,-1,6
 -324 1299 -324 1299 -337 1305 c 0,7,8
 -368 1318 -368 1318 -382.5 1345 c 128,-1,9
 -397 1372 -397 1372 -378 1399 c 0,10,11
 -355 1432 -355 1432 -317 1407 c 0,12,13
 -305 1399 -305 1399 -304.5 1379.5 c 128,-1,14
 -304 1360 -304 1360 -316 1350 c 0,15,16
 -336 1331 -336 1331 -326 1325 c 0,17,18
 -311 1315 -311 1315 -280.5 1324 c 128,-1,19
 -250 1333 -250 1333 -235 1354 c 2,20,-1
 -159 1453 l 1,21,22
 -199 1488 -199 1488 -199 1540 c 0,23,24
 -199 1587 -199 1587 -165 1621.5 c 128,-1,25
 -131 1656 -131 1656 -83 1656 c 0,26,27
 -36 1656 -36 1656 -1.5 1621.5 c 128,-1,28
 33 1587 33 1587 33 1540 c 0,29,30
 33 1492 33 1492 -1.5 1458 c 128,-1,31
 -36 1424 -36 1424 -83 1424 c 0,32,33
 -114 1424 -114 1424 -138 1438 c 1,0,-1
-83 1631 m 256,34,35
 -121 1631 -121 1631 -147.5 1604 c 128,-1,36
 -174 1577 -174 1577 -174 1540 c 256,37,38
 -174 1503 -174 1503 -147.5 1476 c 128,-1,39
 -121 1449 -121 1449 -83 1449 c 256,40,41
 -45 1449 -45 1449 -19 1476 c 128,-1,42
 7 1503 7 1503 7 1540 c 256,43,44
 7 1577 7 1577 -19 1604 c 128,-1,45
 -45 1631 -45 1631 -83 1631 c 256,34,35
EndSplineSet
EndChar

StartChar: zero
Encoding: 48 48 53
Width: 0
GlyphClass: 1
Flags: W
LayerCount: 2
Fore
SplineSet
-682 1400 m 1,0,-1
 -754 1306 l 2,1,2
 -766 1289 -766 1289 -782.5 1279.5 c 128,-1,3
 -799 1270 -799 1270 -810 1264 c 0,4,5
 -822 1258 -822 1258 -845.5 1259 c 128,-1,6
 -869 1260 -869 1260 -882 1266 c 0,7,8
 -913 1279 -913 1279 -927.5 1306 c 128,-1,9
 -942 1333 -942 1333 -923 1361 c 0,10,11
 -899 1394 -899 1394 -862 1369 c 0,12,13
 -850 1360 -850 1360 -849 1341 c 128,-1,14
 -848 1322 -848 1322 -861 1311 c 0,15,16
 -881 1293 -881 1293 -870 1286 c 0,17,18
 -855 1276 -855 1276 -824.5 1285 c 128,-1,19
 -794 1294 -794 1294 -778 1315 c 2,20,-1
 -703 1415 l 1,21,22
 -744 1450 -744 1450 -743 1502 c 0,23,24
 -743 1550 -743 1550 -708.5 1584.5 c 128,-1,25
 -674 1619 -674 1619 -626 1619 c 0,26,27
 -578 1619 -578 1619 -544 1585 c 128,-1,28
 -510 1551 -510 1551 -510 1502 c 256,29,30
 -510 1454 -510 1454 -544 1420 c 128,-1,31
 -578 1386 -578 1386 -626 1386 c 0,32,33
 -657 1386 -657 1386 -682 1400 c 1,0,-1
-626 1594 m 0,34,35
 -664 1594 -664 1594 -691 1567 c 128,-1,36
 -718 1540 -718 1540 -718 1502 c 0,37,38
 -718 1464 -718 1464 -691 1437.5 c 128,-1,39
 -664 1411 -664 1411 -626 1411 c 0,40,41
 -588 1411 -588 1411 -561.5 1437.5 c 128,-1,42
 -535 1464 -535 1464 -535 1502 c 0,43,44
 -535 1540 -535 1540 -561.5 1567 c 128,-1,45
 -588 1594 -588 1594 -626 1594 c 0,34,35
EndSplineSet
EndChar

StartChar: P
Encoding: 80 80 54
Width: 0
GlyphClass: 1
Flags: W
LayerCount: 2
Fore
SplineSet
-376 447 m 1,0,-1
 -449 354 l 2,1,2
 -461 337 -461 337 -477.5 327 c 128,-1,3
 -494 317 -494 317 -504 312 c 0,4,5
 -516 306 -516 306 -539.5 307 c 128,-1,6
 -563 308 -563 308 -577 314 c 0,7,8
 -608 327 -608 327 -622.5 354 c 128,-1,9
 -637 381 -637 381 -617 409 c 0,10,11
 -594 442 -594 442 -557 416 c 0,12,13
 -545 408 -545 408 -544 388.5 c 128,-1,14
 -543 369 -543 369 -555 359 c 0,15,16
 -575 340 -575 340 -565 334 c 0,17,18
 -550 324 -550 324 -520 333 c 128,-1,19
 -490 342 -490 342 -474 363 c 2,20,-1
 -398 462 l 1,21,22
 -439 497 -439 497 -438 550 c 0,23,24
 -438 597 -438 597 -404 631.5 c 128,-1,25
 -370 666 -370 666 -322 666 c 0,26,27
 -274 666 -274 666 -240 631.5 c 128,-1,28
 -206 597 -206 597 -206 550 c 0,29,30
 -206 502 -206 502 -240 468 c 128,-1,31
 -274 434 -274 434 -322 434 c 0,32,33
 -352 433 -352 433 -376 447 c 1,0,-1
-322 641 m 0,34,35
 -359 641 -359 641 -386 614 c 128,-1,36
 -413 587 -413 587 -413 550 c 0,37,38
 -413 512 -413 512 -386 485 c 128,-1,39
 -359 458 -359 458 -322 458 c 0,40,41
 -284 458 -284 458 -257.5 485 c 128,-1,42
 -231 512 -231 512 -231 550 c 0,43,44
 -231 587 -231 587 -257.5 614 c 128,-1,45
 -284 641 -284 641 -322 641 c 0,34,35
EndSplineSet
EndChar

StartChar: p
Encoding: 112 112 55
Width: 0
GlyphClass: 1
Flags: W
LayerCount: 2
Fore
SplineSet
-755 504 m 1,0,-1
 -828 411 l 2,1,2
 -840 394 -840 394 -856 384.5 c 128,-1,3
 -872 375 -872 375 -883 369 c 0,4,5
 -895 362 -895 362 -918.5 363.5 c 128,-1,6
 -942 365 -942 365 -955 372 c 0,7,8
 -986 385 -986 385 -1001 411.5 c 128,-1,9
 -1016 438 -1016 438 -996 466 c 0,10,11
 -972 499 -972 499 -935 473 c 0,12,13
 -923 466 -923 466 -922.5 446.5 c 128,-1,14
 -922 427 -922 427 -934 416 c 0,15,16
 -954 398 -954 398 -943 391 c 0,17,18
 -928 381 -928 381 -898 390 c 128,-1,19
 -868 399 -868 399 -852 420 c 2,20,-1
 -776 520 l 1,21,22
 -817 555 -817 555 -817 607 c 0,23,24
 -817 655 -817 655 -782.5 689.5 c 128,-1,25
 -748 724 -748 724 -700 724 c 0,26,27
 -652 724 -652 724 -617.5 689.5 c 128,-1,28
 -583 655 -583 655 -583 607 c 256,29,30
 -583 559 -583 559 -617.5 525 c 128,-1,31
 -652 491 -652 491 -700 491 c 0,32,33
 -730 490 -730 490 -755 504 c 1,0,-1
-700 699 m 0,34,35
 -737 699 -737 699 -764.5 672 c 128,-1,36
 -792 645 -792 645 -792 607 c 256,37,38
 -792 569 -792 569 -764.5 542.5 c 128,-1,39
 -737 516 -737 516 -700 516 c 0,40,41
 -662 516 -662 516 -635.5 542.5 c 128,-1,42
 -609 569 -609 569 -609 607 c 256,43,44
 -609 645 -609 645 -635.5 672 c 128,-1,45
 -662 699 -662 699 -700 699 c 0,34,35
EndSplineSet
EndChar

StartChar: parenleft
Encoding: 40 40 56
Width: 0
GlyphClass: 1
Flags: W
LayerCount: 2
Fore
SplineSet
-47 1628 m 1,0,-1
 22 1722 l 1,1,-1
 31 1737 l 2,2,3
 39 1750 39 1750 51.5 1740.5 c 128,-1,4
 64 1731 64 1731 55 1718 c 2,5,-1
 30 1686 l 1,6,-1
 -27 1612 l 1,7,8
 6 1578 6 1578 6 1530 c 0,9,10
 6 1481 6 1481 -28.5 1446.5 c 128,-1,11
 -63 1412 -63 1412 -111 1412 c 0,12,13
 -140 1412 -140 1412 -167 1425 c 1,14,-1
 -241 1330 l 2,15,16
 -254 1313 -254 1313 -270.5 1303 c 128,-1,17
 -287 1293 -287 1293 -297 1288 c 0,18,19
 -309 1281 -309 1281 -333 1282.5 c 128,-1,20
 -357 1284 -357 1284 -371 1290 c 0,21,22
 -403 1304 -403 1304 -417.5 1331 c 128,-1,23
 -432 1358 -432 1358 -412 1386 c 0,24,25
 -401 1400 -401 1400 -383.5 1402 c 128,-1,26
 -366 1404 -366 1404 -350 1394 c 0,27,28
 -338 1386 -338 1386 -337.5 1366 c 128,-1,29
 -337 1346 -337 1346 -349 1335 c 0,30,31
 -369 1316 -369 1316 -358 1310 c 0,32,33
 -343 1300 -343 1300 -312.5 1309 c 128,-1,34
 -282 1318 -282 1318 -266 1340 c 2,35,-1
 -189 1440 l 1,36,37
 -230 1476 -230 1476 -230 1530 c 0,38,39
 -230 1579 -230 1579 -195 1613.5 c 128,-1,40
 -160 1648 -160 1648 -111 1648 c 0,41,42
 -75 1648 -75 1648 -47 1628 c 1,0,-1
-111 1623 m 256,43,44
 -149 1623 -149 1623 -176.5 1595.5 c 128,-1,45
 -204 1568 -204 1568 -204 1530 c 256,46,47
 -204 1492 -204 1492 -176.5 1465 c 128,-1,48
 -149 1438 -149 1438 -111 1438 c 256,49,50
 -73 1438 -73 1438 -46 1465 c 128,-1,51
 -19 1492 -19 1492 -19 1530 c 256,52,53
 -19 1568 -19 1568 -46 1595.5 c 128,-1,54
 -73 1623 -73 1623 -111 1623 c 256,43,44
EndSplineSet
EndChar

StartChar: nine
Encoding: 57 57 57
Width: 0
GlyphClass: 1
Flags: W
LayerCount: 2
Fore
SplineSet
-554 1592 m 1,0,-1
 -485 1687 l 1,1,-1
 -476 1702 l 2,2,3
 -467 1715 -467 1715 -454.5 1705.5 c 128,-1,4
 -442 1696 -442 1696 -452 1683 c 2,5,-1
 -477 1650 l 1,6,-1
 -534 1576 l 1,7,8
 -500 1540 -500 1540 -500 1493 c 0,9,10
 -500 1444 -500 1444 -535 1409 c 128,-1,11
 -570 1374 -570 1374 -620 1374 c 0,12,13
 -649 1374 -649 1374 -676 1388 c 1,14,-1
 -750 1292 l 2,15,16
 -762 1275 -762 1275 -779 1265 c 128,-1,17
 -796 1255 -796 1255 -807 1250 c 0,18,19
 -819 1243 -819 1243 -843 1244 c 128,-1,20
 -867 1245 -867 1245 -881 1251 c 0,21,22
 -913 1265 -913 1265 -927.5 1292.5 c 128,-1,23
 -942 1320 -942 1320 -922 1348 c 0,24,25
 -898 1382 -898 1382 -860 1356 c 0,26,27
 -848 1348 -848 1348 -847 1328 c 128,-1,28
 -846 1308 -846 1308 -859 1297 c 0,29,30
 -879 1278 -879 1278 -869 1272 c 0,31,32
 -853 1262 -853 1262 -822.5 1271 c 128,-1,33
 -792 1280 -792 1280 -775 1302 c 2,34,-1
 -697 1403 l 1,35,36
 -739 1439 -739 1439 -739 1493 c 0,37,38
 -739 1542 -739 1542 -703.5 1577 c 128,-1,39
 -668 1612 -668 1612 -620 1612 c 0,40,41
 -583 1612 -583 1612 -554 1592 c 1,0,-1
-620 1586 m 0,42,43
 -658 1586 -658 1586 -685.5 1559 c 128,-1,44
 -713 1532 -713 1532 -713 1493 c 256,45,46
 -713 1454 -713 1454 -685.5 1426.5 c 128,-1,47
 -658 1399 -658 1399 -620 1399 c 0,48,49
 -581 1399 -581 1399 -553.5 1427 c 128,-1,50
 -526 1455 -526 1455 -526 1493 c 256,51,52
 -526 1532 -526 1532 -553.5 1559 c 128,-1,53
 -581 1586 -581 1586 -620 1586 c 0,42,43
EndSplineSet
EndChar

StartChar: O
Encoding: 79 79 58
Width: 0
GlyphClass: 1
Flags: W
LayerCount: 2
Fore
SplineSet
-189 574 m 1,0,-1
 -120 668 l 1,1,-1
 -110 683 l 2,2,3
 -101 696 -101 696 -89.5 687 c 128,-1,4
 -78 678 -78 678 -87 665 c 2,5,-1
 -112 631 l 1,6,-1
 -169 556 l 1,7,8
 -136 521 -136 521 -136 474 c 0,9,10
 -136 424 -136 424 -170.5 389 c 128,-1,11
 -205 354 -205 354 -255 354 c 0,12,13
 -284 354 -284 354 -312 368 c 1,14,-1
 -386 271 l 2,15,16
 -399 253 -399 253 -415.5 243.5 c 128,-1,17
 -432 234 -432 234 -443 229 c 0,18,19
 -455 222 -455 222 -479 223.5 c 128,-1,20
 -503 225 -503 225 -518 230 c 0,21,22
 -550 244 -550 244 -564.5 272 c 128,-1,23
 -579 300 -579 300 -559 329 c 0,24,25
 -535 362 -535 362 -497 336 c 0,26,27
 -484 328 -484 328 -483.5 308 c 128,-1,28
 -483 288 -483 288 -496 276 c 0,29,30
 -516 258 -516 258 -505 251 c 0,31,32
 -489 240 -489 240 -458 249.5 c 128,-1,33
 -427 259 -427 259 -412 281 c 2,34,-1
 -333 383 l 1,35,36
 -375 418 -375 418 -375 474 c 0,37,38
 -375 523 -375 523 -339.5 558 c 128,-1,39
 -304 593 -304 593 -255 593 c 0,40,41
 -218 594 -218 594 -189 574 c 1,0,-1
-255 567 m 0,42,43
 -293 567 -293 567 -321 539.5 c 128,-1,44
 -349 512 -349 512 -349 474 c 0,45,46
 -349 435 -349 435 -321 407.5 c 128,-1,47
 -293 380 -293 380 -255 380 c 0,48,49
 -216 380 -216 380 -188.5 407.5 c 128,-1,50
 -161 435 -161 435 -161 474 c 0,51,52
 -161 513 -161 513 -188.5 540 c 128,-1,53
 -216 567 -216 567 -255 567 c 0,42,43
EndSplineSet
EndChar

StartChar: o
Encoding: 111 111 59
Width: 0
GlyphClass: 1
Flags: W
LayerCount: 2
Fore
SplineSet
-581 611 m 1,0,-1
 -511 707 l 1,1,-1
 -502 721 l 2,2,3
 -493 734 -493 734 -481 725 c 128,-1,4
 -469 716 -469 716 -478 702 c 2,5,-1
 -503 670 l 1,6,-1
 -561 594 l 1,7,8
 -527 559 -527 559 -527 511 c 0,9,10
 -527 461 -527 461 -562.5 426 c 128,-1,11
 -598 391 -598 391 -647 391 c 0,12,13
 -678 391 -678 391 -704 405 c 1,14,-1
 -778 308 l 2,15,16
 -791 291 -791 291 -807.5 281 c 128,-1,17
 -824 271 -824 271 -836 266 c 0,18,19
 -848 259 -848 259 -872 260 c 128,-1,20
 -896 261 -896 261 -911 267 c 0,21,22
 -943 281 -943 281 -957.5 309 c 128,-1,23
 -972 337 -972 337 -952 365 c 0,24,25
 -928 399 -928 399 -890 373 c 0,26,27
 -878 364 -878 364 -877 344.5 c 128,-1,28
 -876 325 -876 325 -888 314 c 0,29,30
 -909 295 -909 295 -898 288 c 0,31,32
 -882 277 -882 277 -851 286.5 c 128,-1,33
 -820 296 -820 296 -804 318 c 2,34,-1
 -726 420 l 1,35,36
 -768 456 -768 456 -767 511 c 0,37,38
 -767 560 -767 560 -731.5 595.5 c 128,-1,39
 -696 631 -696 631 -647 631 c 0,40,41
 -611 631 -611 631 -581 611 c 1,0,-1
-647 605 m 256,42,43
 -686 605 -686 605 -713.5 577.5 c 128,-1,44
 -741 550 -741 550 -741 511 c 0,45,46
 -741 472 -741 472 -713.5 444.5 c 128,-1,47
 -686 417 -686 417 -647 417 c 256,48,49
 -608 417 -608 417 -580.5 444.5 c 128,-1,50
 -553 472 -553 472 -553 511 c 0,51,52
 -553 550 -553 550 -580.5 577.5 c 128,-1,53
 -608 605 -608 605 -647 605 c 256,42,43
EndSplineSet
EndChar

StartChar: asterisk
Encoding: 42 42 60
Width: 0
GlyphClass: 1
Flags: W
LayerCount: 2
Fore
SplineSet
-120 1614 m 1,0,-1
 -21 1713 l 1,1,-1
 -9 1727 l 2,2,3
 2 1738 2 1738 12 1727.5 c 128,-1,4
 22 1717 22 1717 11 1705 c 2,5,-1
 -19 1677 l 1,6,-1
 -102 1595 l 1,7,8
 -78 1563 -78 1563 -78 1522 c 0,9,10
 -78 1473 -78 1473 -112.5 1438.5 c 128,-1,11
 -147 1404 -147 1404 -196 1404 c 0,12,13
 -239 1404 -239 1404 -272 1432 c 1,14,-1
 -322 1381 l 1,15,-1
 -272 1330 l 2,16,17
 -261 1320 -261 1320 -272 1311 c 128,-1,18
 -283 1302 -283 1302 -292 1311 c 2,19,-1
 -342 1362 l 1,20,-1
 -377 1326 l 1,21,-1
 -389 1313 l 2,22,23
 -400 1302 -400 1302 -410 1312.5 c 128,-1,24
 -420 1323 -420 1323 -409 1335 c 2,25,-1
 -379 1363 l 1,26,-1
 -361 1381 l 1,27,-1
 -409 1432 l 2,28,29
 -419 1441 -419 1441 -408.5 1449.5 c 128,-1,30
 -398 1458 -398 1458 -390 1450 c 2,31,-1
 -341 1400 l 1,32,-1
 -290 1450 l 1,33,34
 -315 1481 -315 1481 -315 1522 c 0,35,36
 -315 1570 -315 1570 -280 1605.5 c 128,-1,37
 -245 1641 -245 1641 -196 1641 c 0,38,39
 -153 1641 -153 1641 -120 1614 c 1,0,-1
-196 1615 m 0,40,41
 -234 1615 -234 1615 -261.5 1588 c 128,-1,42
 -289 1561 -289 1561 -289 1522 c 0,43,44
 -289 1483 -289 1483 -261.5 1456 c 128,-1,45
 -234 1429 -234 1429 -196 1429 c 0,46,47
 -157 1429 -157 1429 -130 1456.5 c 128,-1,48
 -103 1484 -103 1484 -103 1522 c 0,49,50
 -103 1560 -103 1560 -130 1587.5 c 128,-1,51
 -157 1615 -157 1615 -196 1615 c 0,40,41
EndSplineSet
EndChar

StartChar: eight
Encoding: 56 56 61
Width: 0
GlyphClass: 1
Flags: W
LayerCount: 2
Fore
SplineSet
-583 1595 m 1,0,-1
 -483 1695 l 1,1,-1
 -472 1708 l 2,2,3
 -461 1720 -461 1720 -450.5 1709.5 c 128,-1,4
 -440 1699 -440 1699 -451 1687 c 2,5,-1
 -481 1659 l 1,6,-1
 -565 1577 l 1,7,8
 -540 1545 -540 1545 -541 1504 c 0,9,10
 -541 1455 -541 1455 -575.5 1420.5 c 128,-1,11
 -610 1386 -610 1386 -659 1386 c 0,12,13
 -702 1386 -702 1386 -736 1413 c 1,14,-1
 -786 1363 l 1,15,-1
 -736 1312 l 2,16,17
 -725 1302 -725 1302 -736 1293 c 128,-1,18
 -747 1284 -747 1284 -755 1293 c 2,19,-1
 -805 1344 l 1,20,-1
 -841 1308 l 1,21,-1
 -852 1295 l 2,22,23
 -863 1284 -863 1284 -873.5 1294.5 c 128,-1,24
 -884 1305 -884 1305 -873 1317 c 2,25,-1
 -843 1345 l 1,26,-1
 -824 1364 l 1,27,-1
 -873 1413 l 2,28,29
 -883 1422 -883 1422 -872 1431.5 c 128,-1,30
 -861 1441 -861 1441 -853 1432 c 2,31,-1
 -805 1382 l 1,32,-1
 -753 1432 l 1,33,34
 -778 1465 -778 1465 -778 1504 c 0,35,36
 -778 1553 -778 1553 -743 1588.5 c 128,-1,37
 -708 1624 -708 1624 -659 1624 c 0,38,39
 -616 1623 -616 1623 -583 1595 c 1,0,-1
-659 1598 m 256,40,41
 -697 1598 -697 1598 -725 1570 c 128,-1,42
 -753 1542 -753 1542 -753 1504 c 0,43,44
 -753 1465 -753 1465 -725 1438.5 c 128,-1,45
 -697 1412 -697 1412 -659 1412 c 256,46,47
 -621 1412 -621 1412 -593.5 1439 c 128,-1,48
 -566 1466 -566 1466 -566 1504 c 0,49,50
 -566 1542 -566 1542 -593.5 1570 c 128,-1,51
 -621 1598 -621 1598 -659 1598 c 256,40,41
EndSplineSet
EndChar

StartChar: i
Encoding: 105 105 62
Width: 0
GlyphClass: 1
Flags: W
LayerCount: 2
Fore
SplineSet
-676 672 m 1,0,-1
 -576 771 l 1,1,-1
 -564 785 l 2,2,3
 -553 796 -553 796 -542.5 785.5 c 128,-1,4
 -532 775 -532 775 -544 763 c 2,5,-1
 -574 735 l 1,6,-1
 -658 653 l 1,7,8
 -633 621 -633 621 -633 581 c 0,9,10
 -633 531 -633 531 -668 496.5 c 128,-1,11
 -703 462 -703 462 -752 462 c 0,12,13
 -795 462 -795 462 -828 489 c 1,14,-1
 -878 439 l 1,15,-1
 -828 388 l 2,16,17
 -818 377 -818 377 -828.5 368 c 128,-1,18
 -839 359 -839 359 -848 369 c 2,19,-1
 -897 419 l 1,20,-1
 -933 384 l 1,21,-1
 -945 371 l 2,22,23
 -955 360 -955 360 -966 370 c 128,-1,24
 -977 380 -977 380 -965 393 c 2,25,-1
 -936 421 l 1,26,-1
 -917 439 l 1,27,-1
 -965 489 l 2,28,29
 -975 498 -975 498 -964.5 507.5 c 128,-1,30
 -954 517 -954 517 -946 508 c 2,31,-1
 -897 458 l 1,32,-1
 -846 508 l 1,33,34
 -871 540 -871 540 -871 581 c 0,35,36
 -871 630 -871 630 -836 665 c 128,-1,37
 -801 700 -801 700 -752 700 c 0,38,39
 -709 700 -709 700 -676 672 c 1,0,-1
-752 674 m 256,40,41
 -791 674 -791 674 -818 646.5 c 128,-1,42
 -845 619 -845 619 -845 581 c 0,43,44
 -845 542 -845 542 -818 514.5 c 128,-1,45
 -791 487 -791 487 -752 487 c 256,46,47
 -713 487 -713 487 -686 514.5 c 128,-1,48
 -659 542 -659 542 -659 581 c 0,49,50
 -659 619 -659 619 -686 646.5 c 128,-1,51
 -713 674 -713 674 -752 674 c 256,40,41
EndSplineSet
EndChar

StartChar: I
Encoding: 73 73 63
Width: 0
GlyphClass: 1
Flags: W
LayerCount: 2
Fore
SplineSet
-188 618 m 1,0,-1
 -89 717 l 1,1,-1
 -78 730 l 2,2,3
 -67 741 -67 741 -56.5 731 c 128,-1,4
 -46 721 -46 721 -58 708 c 2,5,-1
 -87 681 l 1,6,-1
 -170 599 l 1,7,8
 -146 566 -146 566 -146 527 c 0,9,10
 -146 477 -146 477 -181 442.5 c 128,-1,11
 -216 408 -216 408 -265 408 c 0,12,13
 -308 408 -308 408 -341 436 c 1,14,-1
 -391 385 l 1,15,-1
 -341 333 l 2,16,17
 -330 323 -330 323 -341 314.5 c 128,-1,18
 -352 306 -352 306 -360 315 c 2,19,-1
 -410 366 l 1,20,-1
 -446 330 l 1,21,-1
 -457 317 l 2,22,23
 -468 306 -468 306 -478.5 316.5 c 128,-1,24
 -489 327 -489 327 -478 339 c 2,25,-1
 -448 367 l 1,26,-1
 -429 385 l 1,27,-1
 -478 436 l 2,28,29
 -488 445 -488 445 -477 453.5 c 128,-1,30
 -466 462 -466 462 -458 454 c 2,31,-1
 -409 405 l 1,32,-1
 -358 454 l 1,33,34
 -383 485 -383 485 -383 527 c 0,35,36
 -383 575 -383 575 -348 610 c 128,-1,37
 -313 645 -313 645 -265 645 c 0,38,39
 -221 645 -221 645 -188 618 c 1,0,-1
-265 620 m 0,40,41
 -303 620 -303 620 -330 592.5 c 128,-1,42
 -357 565 -357 565 -357 527 c 0,43,44
 -357 488 -357 488 -330 460.5 c 128,-1,45
 -303 433 -303 433 -265 433 c 0,46,47
 -226 433 -226 433 -198.5 460.5 c 128,-1,48
 -171 488 -171 488 -171 527 c 0,49,50
 -171 565 -171 565 -198.5 592.5 c 128,-1,51
 -226 620 -226 620 -265 620 c 0,40,41
EndSplineSet
EndChar

StartChar: ampersand
Encoding: 38 38 64
Width: 0
GlyphClass: 1
Flags: W
LayerCount: 2
Fore
SplineSet
-333 1624 m 1,0,1
 -324 1647 -324 1647 -313 1676.5 c 128,-1,2
 -302 1706 -302 1706 -302 1712 c 1,3,4
 -296 1727 -296 1727 -282.5 1723.5 c 128,-1,5
 -269 1720 -269 1720 -275 1705 c 2,6,-1
 -310 1617 l 1,7,8
 -277 1604 -277 1604 -255.5 1573.5 c 128,-1,9
 -234 1543 -234 1543 -234 1506 c 0,10,11
 -234 1457 -234 1457 -269 1422 c 128,-1,12
 -304 1387 -304 1387 -354 1387 c 0,13,14
 -379 1387 -379 1387 -403 1397 c 1,15,-1
 -435 1334 l 2,16,17
 -441 1322 -441 1322 -394 1344.5 c 128,-1,18
 -347 1367 -347 1367 -272 1326 c 0,19,20
 -261 1320 -261 1320 -239.5 1300 c 128,-1,21
 -218 1280 -218 1280 -201 1288 c 0,22,23
 -200 1288 -200 1288 -217 1310.5 c 128,-1,24
 -234 1333 -234 1333 -202 1356 c 0,25,26
 -181 1371 -181 1371 -155 1350.5 c 128,-1,27
 -129 1330 -129 1330 -148 1290 c 0,28,29
 -158 1268 -158 1268 -183.5 1263 c 128,-1,30
 -209 1258 -209 1258 -228 1259 c 0,31,32
 -288 1262 -288 1262 -318 1289 c 128,-1,33
 -348 1316 -348 1316 -388 1320 c 0,34,35
 -427 1323 -427 1323 -432.5 1311.5 c 128,-1,36
 -438 1300 -438 1300 -453 1301 c 0,37,38
 -457 1301 -457 1301 -462 1307.5 c 128,-1,39
 -467 1314 -467 1314 -467 1316 c 0,40,41
 -468 1323 -468 1323 -460 1336 c 2,42,-1
 -422 1409 l 1,43,44
 -473 1445 -473 1445 -473 1506 c 0,45,46
 -473 1555 -473 1555 -438 1590 c 128,-1,47
 -403 1625 -403 1625 -354 1625 c 0,48,49
 -342 1625 -342 1625 -333 1624 c 1,0,1
-354 1600 m 256,50,51
 -393 1600 -393 1600 -420 1572 c 128,-1,52
 -447 1544 -447 1544 -447 1506 c 0,53,54
 -447 1467 -447 1467 -419.5 1440 c 128,-1,55
 -392 1413 -392 1413 -354 1413 c 256,56,57
 -315 1413 -315 1413 -287.5 1440 c 128,-1,58
 -260 1467 -260 1467 -260 1506 c 0,59,60
 -260 1544 -260 1544 -287.5 1572 c 128,-1,61
 -315 1600 -315 1600 -354 1600 c 256,50,51
EndSplineSet
EndChar

StartChar: seven
Encoding: 55 55 65
Width: 0
GlyphClass: 1
Flags: W
LayerCount: 2
Fore
SplineSet
-795 1605 m 1,0,1
 -787 1626 -787 1626 -776 1653 c 128,-1,2
 -765 1680 -765 1680 -765 1686 c 1,3,4
 -759 1699 -759 1699 -747.5 1695.5 c 128,-1,5
 -736 1692 -736 1692 -741 1680 c 2,6,-1
 -774 1599 l 1,7,8
 -745 1587 -745 1587 -726.5 1560.5 c 128,-1,9
 -708 1534 -708 1534 -708 1501 c 0,10,11
 -708 1458 -708 1458 -739 1427 c 128,-1,12
 -770 1396 -770 1396 -813 1396 c 0,13,14
 -835 1396 -835 1396 -857 1405 c 1,15,-1
 -891 1320 l 2,16,17
 -896 1310 -896 1310 -854 1326.5 c 128,-1,18
 -812 1343 -812 1343 -764 1323 c 1,19,-1
 -741 1307 l 1,20,21
 -722 1289 -722 1289 -702 1280 c 128,-1,22
 -682 1271 -682 1271 -667 1278 c 0,23,24
 -666 1278 -666 1278 -681 1298 c 128,-1,25
 -696 1318 -696 1318 -667 1339 c 0,26,27
 -648 1352 -648 1352 -626 1333.5 c 128,-1,28
 -604 1315 -604 1315 -620 1280 c 0,29,30
 -629 1260 -629 1260 -651.5 1256 c 128,-1,31
 -674 1252 -674 1252 -690 1253 c 0,32,33
 -759 1255 -759 1255 -786 1279.5 c 128,-1,34
 -813 1304 -813 1304 -849 1307 c 1,35,36
 -877 1305 -877 1305 -884.5 1297 c 128,-1,37
 -892 1289 -892 1289 -906 1290 c 0,38,39
 -910 1290 -910 1290 -914 1296 c 128,-1,40
 -918 1302 -918 1302 -918 1304 c 0,41,42
 -919 1311 -919 1311 -916.5 1314.5 c 128,-1,43
 -914 1318 -914 1318 -913 1321 c 2,44,-1
 -875 1415 l 1,45,46
 -919 1446 -919 1446 -919 1501 c 0,47,48
 -919 1544 -919 1544 -888 1575 c 128,-1,49
 -857 1606 -857 1606 -813 1606 c 0,50,51
 -803 1606 -803 1606 -795 1605 c 1,0,1
-813 1583 m 0,52,53
 -847 1583 -847 1583 -871.5 1559 c 128,-1,54
 -896 1535 -896 1535 -896 1501 c 256,55,56
 -896 1467 -896 1467 -871.5 1442.5 c 128,-1,57
 -847 1418 -847 1418 -813 1418 c 0,58,59
 -779 1418 -779 1418 -754.5 1442.5 c 128,-1,60
 -730 1467 -730 1467 -730 1501 c 256,61,62
 -730 1535 -730 1535 -754.5 1559 c 128,-1,63
 -779 1583 -779 1583 -813 1583 c 0,52,53
EndSplineSet
EndChar

StartChar: dollar
Encoding: 36 36 66
Width: 0
GlyphClass: 1
Flags: W
LayerCount: 2
Fore
SplineSet
-360 1363 m 1,0,-1
 -460 1263 l 1,1,-1
 -472 1250 l 2,2,3
 -483 1239 -483 1239 -493 1249 c 128,-1,4
 -503 1259 -503 1259 -492 1271 c 2,5,-1
 -462 1300 l 1,6,-1
 -378 1381 l 1,7,8
 -403 1413 -403 1413 -403 1453 c 0,9,10
 -403 1502 -403 1502 -368 1537 c 128,-1,11
 -333 1572 -333 1572 -285 1572 c 0,12,13
 -243 1572 -243 1572 -209 1544 c 1,14,-1
 -159 1594 l 1,15,-1
 -209 1646 l 2,16,17
 -219 1656 -219 1656 -208.5 1664.5 c 128,-1,18
 -198 1673 -198 1673 -189 1665 c 2,19,-1
 -140 1613 l 1,20,-1
 -105 1649 l 1,21,-1
 -93 1663 l 2,22,23
 -82 1674 -82 1674 -72 1663 c 128,-1,24
 -62 1652 -62 1652 -73 1641 c 2,25,-1
 -103 1612 l 1,26,-1
 -121 1594 l 1,27,-1
 -73 1544 l 2,28,29
 -63 1535 -63 1535 -73.5 1525.5 c 128,-1,30
 -84 1516 -84 1516 -93 1525 c 2,31,-1
 -141 1575 l 1,32,-1
 -191 1526 l 1,33,34
 -166 1494 -166 1494 -167 1453 c 0,35,36
 -167 1404 -167 1404 -201.5 1369.5 c 128,-1,37
 -236 1335 -236 1335 -285 1335 c 0,38,39
 -328 1335 -328 1335 -360 1363 c 1,0,-1
-285 1360 m 256,40,41
 -247 1360 -247 1360 -219.5 1387.5 c 128,-1,42
 -192 1415 -192 1415 -192 1453 c 0,43,44
 -192 1491 -192 1491 -219.5 1518.5 c 128,-1,45
 -247 1546 -247 1546 -285 1546 c 256,46,47
 -323 1546 -323 1546 -350 1518.5 c 128,-1,48
 -377 1491 -377 1491 -377 1453 c 0,49,50
 -377 1414 -377 1414 -350 1387 c 128,-1,51
 -323 1360 -323 1360 -285 1360 c 256,40,41
EndSplineSet
EndChar

StartChar: four
Encoding: 52 52 67
Width: 0
GlyphClass: 1
Flags: W
LayerCount: 2
Fore
SplineSet
-820 1363 m 1,0,-1
 -919 1264 l 1,1,-1
 -930 1251 l 2,2,3
 -941 1240 -941 1240 -951.5 1250.5 c 128,-1,4
 -962 1261 -962 1261 -951 1273 c 2,5,-1
 -921 1301 l 1,6,-1
 -837 1382 l 1,7,8
 -862 1413 -862 1413 -862 1454 c 0,9,10
 -862 1502 -862 1502 -827 1537 c 128,-1,11
 -792 1572 -792 1572 -744 1572 c 0,12,13
 -702 1572 -702 1572 -668 1545 c 1,14,-1
 -619 1595 l 1,15,-1
 -668 1646 l 2,16,17
 -678 1656 -678 1656 -667.5 1664.5 c 128,-1,18
 -657 1673 -657 1673 -648 1665 c 2,19,-1
 -599 1614 l 1,20,-1
 -564 1649 l 1,21,-1
 -552 1663 l 2,22,23
 -541 1674 -541 1674 -531 1663 c 128,-1,24
 -521 1652 -521 1652 -532 1641 c 2,25,-1
 -561 1613 l 1,26,-1
 -581 1595 l 1,27,-1
 -532 1545 l 2,28,29
 -522 1536 -522 1536 -532.5 1526.5 c 128,-1,30
 -543 1517 -543 1517 -552 1526 c 2,31,-1
 -600 1576 l 1,32,-1
 -651 1527 l 1,33,34
 -626 1495 -626 1495 -626 1454 c 0,35,36
 -626 1405 -626 1405 -660.5 1370.5 c 128,-1,37
 -695 1336 -695 1336 -744 1336 c 0,38,39
 -787 1336 -787 1336 -820 1363 c 1,0,-1
-744 1362 m 256,40,41
 -706 1362 -706 1362 -678.5 1389 c 128,-1,42
 -651 1416 -651 1416 -651 1454 c 0,43,44
 -651 1492 -651 1492 -678.5 1519.5 c 128,-1,45
 -706 1547 -706 1547 -744 1547 c 256,46,47
 -782 1547 -782 1547 -809.5 1519.5 c 128,-1,48
 -837 1492 -837 1492 -837 1454 c 0,49,50
 -837 1415 -837 1415 -809.5 1388.5 c 128,-1,51
 -782 1362 -782 1362 -744 1362 c 256,40,41
EndSplineSet
EndChar

StartChar: R
Encoding: 82 82 68
Width: 0
GlyphClass: 1
Flags: W
LayerCount: 2
Fore
SplineSet
-380 386 m 1,0,-1
 -480 286 l 1,1,-1
 -491 273 l 2,2,3
 -502 262 -502 262 -512.5 272.5 c 128,-1,4
 -523 283 -523 283 -512 295 c 2,5,-1
 -482 323 l 1,6,-1
 -398 405 l 1,7,8
 -423 436 -423 436 -423 477 c 0,9,10
 -423 526 -423 526 -388 560.5 c 128,-1,11
 -353 595 -353 595 -304 595 c 0,12,13
 -262 595 -262 595 -229 568 c 1,14,-1
 -179 618 l 1,15,-1
 -229 669 l 2,16,17
 -239 679 -239 679 -228 688 c 128,-1,18
 -217 697 -217 697 -209 688 c 2,19,-1
 -160 637 l 1,20,-1
 -125 673 l 1,21,-1
 -113 686 l 2,22,23
 -102 697 -102 697 -92 686.5 c 128,-1,24
 -82 676 -82 676 -93 664 c 2,25,-1
 -122 636 l 1,26,-1
 -141 618 l 1,27,-1
 -93 568 l 2,28,29
 -83 559 -83 559 -93.5 549.5 c 128,-1,30
 -104 540 -104 540 -113 549 c 2,31,-1
 -160 599 l 1,32,-1
 -211 549 l 1,33,34
 -186 517 -186 517 -186 477 c 0,35,36
 -186 428 -186 428 -220.5 393 c 128,-1,37
 -255 358 -255 358 -304 358 c 0,38,39
 -347 358 -347 358 -380 386 c 1,0,-1
-304 384 m 256,40,41
 -266 384 -266 384 -238.5 411 c 128,-1,42
 -211 438 -211 438 -211 477 c 0,43,44
 -211 515 -211 515 -238.5 542.5 c 128,-1,45
 -266 570 -266 570 -304 570 c 256,46,47
 -342 570 -342 570 -369.5 542.5 c 128,-1,48
 -397 515 -397 515 -397 477 c 0,49,50
 -397 438 -397 438 -369.5 411 c 128,-1,51
 -342 384 -342 384 -304 384 c 256,40,41
EndSplineSet
EndChar

StartChar: r
Encoding: 114 114 69
Width: 0
GlyphClass: 1
Flags: W
LayerCount: 2
Fore
SplineSet
-852 412 m 1,0,-1
 -953 311 l 1,1,-1
 -964 298 l 2,2,3
 -974 286 -974 286 -985 297 c 128,-1,4
 -996 308 -996 308 -985 320 c 2,5,-1
 -955 348 l 1,6,-1
 -870 431 l 1,7,8
 -895 463 -895 463 -895 504 c 0,9,10
 -895 553 -895 553 -860 588.5 c 128,-1,11
 -825 624 -825 624 -775 624 c 0,12,13
 -731 624 -731 624 -698 596 c 1,14,-1
 -648 646 l 1,15,-1
 -698 698 l 2,16,17
 -708 709 -708 709 -697.5 717.5 c 128,-1,18
 -687 726 -687 726 -679 717 c 2,19,-1
 -628 666 l 1,20,-1
 -593 701 l 1,21,-1
 -581 715 l 2,22,23
 -570 726 -570 726 -559.5 715.5 c 128,-1,24
 -549 705 -549 705 -561 693 c 2,25,-1
 -590 665 l 1,26,-1
 -609 646 l 1,27,-1
 -561 596 l 2,28,29
 -551 587 -551 587 -561 577.5 c 128,-1,30
 -571 568 -571 568 -580 577 c 2,31,-1
 -629 627 l 1,32,-1
 -681 577 l 1,33,34
 -656 544 -656 544 -656 504 c 0,35,36
 -656 454 -656 454 -691 419 c 128,-1,37
 -726 384 -726 384 -775 384 c 0,38,39
 -819 384 -819 384 -852 412 c 1,0,-1
-775 410 m 0,40,41
 -736 410 -736 410 -708.5 437.5 c 128,-1,42
 -681 465 -681 465 -681 504 c 0,43,44
 -681 543 -681 543 -708.5 570.5 c 128,-1,45
 -736 598 -736 598 -775 598 c 0,46,47
 -814 598 -814 598 -841.5 570 c 128,-1,48
 -869 542 -869 542 -869 504 c 0,49,50
 -869 465 -869 465 -841.5 437.5 c 128,-1,51
 -814 410 -814 410 -775 410 c 0,40,41
EndSplineSet
EndChar

StartChar: A
Encoding: 65 65 70
Width: 0
GlyphClass: 1
Flags: W
LayerCount: 2
Fore
SplineSet
-308 429 m 1,0,1
 -353 433 -353 433 -384 466.5 c 128,-1,2
 -415 500 -415 500 -415 546 c 0,3,4
 -415 595 -415 595 -380 630 c 128,-1,5
 -345 665 -345 665 -296 665 c 256,6,7
 -247 665 -247 665 -212.5 630 c 128,-1,8
 -178 595 -178 595 -178 546 c 0,9,10
 -178 500 -178 500 -208.5 466.5 c 128,-1,11
 -239 433 -239 433 -284 429 c 1,12,-1
 -283 286 l 2,13,14
 -283 272 -283 272 -296 272 c 128,-1,15
 -309 272 -309 272 -309 286 c 2,16,-1
 -308 429 l 1,0,1
-296 454 m 0,17,18
 -257 454 -257 454 -230 481 c 128,-1,19
 -203 508 -203 508 -203 546 c 0,20,21
 -203 584 -203 584 -230 611.5 c 128,-1,22
 -257 639 -257 639 -296 639 c 0,23,24
 -334 639 -334 639 -361.5 611.5 c 128,-1,25
 -389 584 -389 584 -389 546 c 0,26,27
 -389 507 -389 507 -361.5 480.5 c 128,-1,28
 -334 454 -334 454 -296 454 c 0,17,18
EndSplineSet
EndChar

StartChar: a
Encoding: 97 97 71
Width: 0
GlyphClass: 1
Flags: W
LayerCount: 2
Fore
SplineSet
-785 446 m 1,0,1
 -829 450 -829 450 -859.5 483.5 c 0,2,3
 -890 516 -890 516 -890 562 c 0,4,5
 -890 610 -890 610 -855.5 645 c 128,-1,6
 -821 680 -821 680 -773 680 c 0,7,8
 -724 680 -724 680 -690 645.5 c 0,9,10
 -656 610 -656 610 -656 562 c 0,11,12
 -656 517 -656 517 -686 483.5 c 128,-1,13
 -716 450 -716 450 -761 446 c 1,14,-1
 -760 304 l 2,15,16
 -760 290 -760 290 -773 290.5 c 128,-1,17
 -786 291 -786 291 -786 304 c 2,18,-1
 -785 446 l 1,0,1
-773 471 m 256,19,20
 -735 471 -735 471 -708 497.5 c 128,-1,21
 -681 524 -681 524 -681 562 c 256,22,23
 -681 600 -681 600 -708 627.5 c 128,-1,24
 -735 655 -735 655 -773 655 c 256,25,26
 -811 655 -811 655 -838 628 c 0,27,28
 -865 600 -865 600 -865 562 c 256,29,30
 -865 524 -865 524 -838 497.5 c 128,-1,31
 -811 471 -811 471 -773 471 c 256,19,20
EndSplineSet
EndChar

StartChar: X
Encoding: 88 88 72
Width: 0
GlyphClass: 1
Flags: W
LayerCount: 2
Fore
SplineSet
-294 550 m 1,0,-1
 -295 692 l 2,1,2
 -295 705 -295 705 -282 706 c 128,-1,3
 -269 707 -269 707 -269 692 c 2,4,-1
 -270 550 l 1,5,6
 -226 545 -226 545 -195 511.5 c 128,-1,7
 -164 478 -164 478 -164 433 c 0,8,9
 -164 384 -164 384 -198.5 349.5 c 128,-1,10
 -233 315 -233 315 -282 315 c 0,11,12
 -330 315 -330 315 -365 349.5 c 128,-1,13
 -400 384 -400 384 -400 433 c 0,14,15
 -400 478 -400 478 -369 511.5 c 128,-1,16
 -338 545 -338 545 -294 550 c 1,0,-1
-282 525 m 0,17,18
 -320 525 -320 525 -347 498 c 128,-1,19
 -374 471 -374 471 -374 433 c 0,20,21
 -374 394 -374 394 -347 367 c 128,-1,22
 -320 340 -320 340 -282 340 c 0,23,24
 -243 340 -243 340 -216 367.5 c 128,-1,25
 -189 395 -189 395 -189 433 c 0,26,27
 -189 471 -189 471 -216 498 c 128,-1,28
 -243 525 -243 525 -282 525 c 0,17,18
EndSplineSet
EndChar

StartChar: x
Encoding: 120 120 73
Width: 0
GlyphClass: 1
Flags: W
LayerCount: 2
Fore
SplineSet
-788 551 m 1,0,-1
 -789 694 l 2,1,2
 -789 708 -789 708 -776 708.5 c 128,-1,3
 -763 709 -763 709 -763 694 c 2,4,-1
 -764 551 l 1,5,6
 -719 546 -719 546 -688 512.5 c 128,-1,7
 -657 479 -657 479 -657 433 c 0,8,9
 -657 384 -657 384 -692 349 c 128,-1,10
 -727 314 -727 314 -776 314 c 0,11,12
 -825 314 -825 314 -860 349 c 128,-1,13
 -895 384 -895 384 -895 433 c 0,14,15
 -895 478 -895 478 -864 512 c 128,-1,16
 -833 546 -833 546 -788 551 c 1,0,-1
-776 526 m 0,17,18
 -814 526 -814 526 -842 498.5 c 128,-1,19
 -870 471 -870 471 -870 433 c 0,20,21
 -870 394 -870 394 -842 367 c 128,-1,22
 -814 340 -814 340 -776 340 c 0,23,24
 -737 340 -737 340 -710 367.5 c 128,-1,25
 -683 395 -683 395 -683 433 c 0,26,27
 -683 471 -683 471 -710 498.5 c 128,-1,28
 -737 526 -737 526 -776 526 c 0,17,18
EndSplineSet
EndChar

StartChar: z
Encoding: 122 122 74
Width: 0
GlyphClass: 1
Flags: W
LayerCount: 2
Fore
SplineSet
-823 481 m 1,0,-1
 -854 419 l 2,1,2
 -860 407 -860 407 -814 429 c 128,-1,3
 -768 451 -768 451 -695 410 c 0,4,5
 -684 404 -684 404 -663 385 c 128,-1,6
 -642 366 -642 366 -625 373 c 0,7,8
 -624 373 -624 373 -640.5 395 c 128,-1,9
 -657 417 -657 417 -625 440 c 0,10,11
 -604 454 -604 454 -579.5 434 c 128,-1,12
 -555 414 -555 414 -573 375 c 0,13,14
 -583 353 -583 353 -608 348.5 c 128,-1,15
 -633 344 -633 344 -651 345 c 0,16,17
 -710 348 -710 348 -739.5 374.5 c 128,-1,18
 -769 401 -769 401 -808 405 c 0,19,20
 -847 408 -847 408 -851.5 396.5 c 128,-1,21
 -856 385 -856 385 -872 387 c 0,22,23
 -876 387 -876 387 -881 392.5 c 128,-1,24
 -886 398 -886 398 -886 401 c 0,25,26
 -887 409 -887 409 -884 413 c 128,-1,27
 -881 417 -881 417 -879 420 c 2,28,-1
 -841 492 l 1,29,30
 -891 527 -891 527 -892 587 c 0,31,32
 -892 635 -892 635 -857.5 669.5 c 128,-1,33
 -823 704 -823 704 -774 704 c 256,34,35
 -726 704 -726 704 -692 669.5 c 128,-1,36
 -658 635 -658 635 -658 587 c 256,37,38
 -658 539 -658 539 -692 504.5 c 128,-1,39
 -726 470 -726 470 -774 470 c 0,40,41
 -800 470 -800 470 -823 481 c 1,0,-1
-774 679 m 0,42,43
 -812 679 -812 679 -839 652 c 128,-1,44
 -866 625 -866 625 -866 587 c 256,45,46
 -866 549 -866 549 -839 522.5 c 128,-1,47
 -812 496 -812 496 -774 496 c 0,48,49
 -736 496 -736 496 -709.5 522.5 c 128,-1,50
 -683 549 -683 549 -683 587 c 256,51,52
 -683 625 -683 625 -709.5 652 c 128,-1,53
 -736 679 -736 679 -774 679 c 0,42,43
EndSplineSet
EndChar

StartChar: Z
Encoding: 90 90 75
Width: 0
GlyphClass: 1
Flags: W
LayerCount: 2
Fore
SplineSet
-345 465 m 1,0,-1
 -377 404 l 2,1,2
 -382 392 -382 392 -336 413.5 c 128,-1,3
 -290 435 -290 435 -217 395 c 0,4,5
 -206 389 -206 389 -185 369.5 c 128,-1,6
 -164 350 -164 350 -148 358 c 0,7,8
 -147 358 -147 358 -163 380 c 128,-1,9
 -179 402 -179 402 -148 425 c 0,10,11
 -127 440 -127 440 -102.5 419 c 128,-1,12
 -78 398 -78 398 -96 360 c 0,13,14
 -106 339 -106 339 -130.5 334 c 128,-1,15
 -155 329 -155 329 -173 330 c 0,16,17
 -232 333 -232 333 -262 359.5 c 128,-1,18
 -292 386 -292 386 -331 390 c 0,19,20
 -369 393 -369 393 -373.5 381 c 128,-1,21
 -378 369 -378 369 -394 371 c 0,22,23
 -398 371 -398 371 -403 377 c 128,-1,24
 -408 383 -408 383 -408 386 c 0,25,26
 -409 394 -409 394 -406 397.5 c 128,-1,27
 -403 401 -403 401 -401 405 c 2,28,-1
 -364 476 l 1,29,30
 -414 511 -414 511 -414 572 c 0,31,32
 -414 620 -414 620 -379.5 654 c 128,-1,33
 -345 688 -345 688 -297 688 c 0,34,35
 -248 688 -248 688 -214 654 c 128,-1,36
 -180 620 -180 620 -180 572 c 0,37,38
 -180 524 -180 524 -214.5 489.5 c 128,-1,39
 -249 455 -249 455 -297 455 c 0,40,41
 -322 455 -322 455 -345 465 c 1,0,-1
-297 663 m 0,42,43
 -334 663 -334 663 -361.5 636 c 128,-1,44
 -389 609 -389 609 -389 572 c 0,45,46
 -389 534 -389 534 -361.5 506.5 c 128,-1,47
 -334 479 -334 479 -297 479 c 0,48,49
 -259 479 -259 479 -232 506.5 c 128,-1,50
 -205 534 -205 534 -205 572 c 0,51,52
 -205 609 -205 609 -232 636 c 128,-1,53
 -259 663 -259 663 -297 663 c 0,42,43
EndSplineSet
EndChar

StartChar: three
Encoding: 51 51 76
Width: 0
GlyphClass: 1
Flags: W
LayerCount: 2
Fore
SplineSet
-750 1596 m 1,0,-1
 -750 1646 l 1,1,-1
 -752 1664 l 2,2,3
 -752 1680 -752 1680 -737 1679.5 c 128,-1,4
 -722 1679 -722 1679 -721 1663 c 2,5,-1
 -722 1622 l 1,6,-1
 -723 1595 l 1,7,-1
 -653 1594 l 2,8,9
 -639 1594 -639 1594 -640 1580 c 128,-1,10
 -641 1566 -641 1566 -654 1566 c 2,11,-1
 -723 1567 l 1,12,-1
 -725 1496 l 1,13,14
 -684 1491 -684 1491 -655 1462 c 0,15,16
 -620 1427 -620 1427 -620 1377 c 128,-1,17
 -620 1327 -620 1327 -655 1293 c 0,18,19
 -690 1258 -690 1258 -739.5 1258 c 128,-1,20
 -789 1258 -789 1258 -824 1293 c 0,21,22
 -859 1327 -859 1327 -859 1377 c 128,-1,23
 -859 1427 -859 1427 -824 1462 c 0,24,25
 -795 1492 -795 1492 -750 1497 c 1,26,-1
 -750 1568 l 1,27,-1
 -823 1569 l 2,28,29
 -838 1569 -838 1569 -836 1583 c 128,-1,30
 -834 1597 -834 1597 -822 1597 c 2,31,-1
 -750 1596 l 1,0,-1
-673 1311 m 0,32,33
 -645 1338 -645 1338 -645.5 1377 c 128,-1,34
 -646 1416 -646 1416 -673 1443 c 0,35,36
 -700 1471 -700 1471 -739 1471 c 128,-1,37
 -778 1471 -778 1471 -806 1443 c 0,38,39
 -833 1416 -833 1416 -833 1377 c 128,-1,40
 -833 1338 -833 1338 -806 1311 c 0,41,42
 -778 1284 -778 1284 -739 1284 c 128,-1,43
 -700 1284 -700 1284 -673 1311 c 0,32,33
EndSplineSet
EndChar

StartChar: numbersign
Encoding: 35 35 77
Width: 0
GlyphClass: 1
Flags: W
LayerCount: 2
Fore
SplineSet
-304 1626 m 1,0,-1
 -304 1676 l 1,1,-1
 -306 1693 l 2,2,3
 -306 1709 -306 1709 -291 1708.5 c 128,-1,4
 -276 1708 -276 1708 -276 1692 c 2,5,-1
 -277 1652 l 1,6,-1
 -277 1625 l 1,7,-1
 -208 1625 l 2,8,9
 -194 1625 -194 1625 -195 1611 c 128,-1,10
 -196 1597 -196 1597 -209 1597 c 2,11,-1
 -277 1599 l 1,12,-1
 -279 1528 l 1,13,14
 -239 1523 -239 1523 -210 1494 c 0,15,16
 -175 1459 -175 1459 -175 1410 c 128,-1,17
 -175 1361 -175 1361 -210 1327 c 0,18,19
 -244 1292 -244 1292 -293.5 1292 c 128,-1,20
 -343 1292 -343 1292 -377 1327 c 0,21,22
 -412 1361 -412 1361 -412 1410 c 128,-1,23
 -412 1459 -412 1459 -377 1494 c 0,24,25
 -347 1524 -347 1524 -304 1528 c 1,26,-1
 -304 1599 l 1,27,-1
 -376 1600 l 2,28,29
 -390 1600 -390 1600 -388.5 1613.5 c 128,-1,30
 -387 1627 -387 1627 -375 1627 c 2,31,-1
 -304 1626 l 1,0,-1
-228 1345 m 0,32,33
 -201 1372 -201 1372 -201 1410.5 c 128,-1,34
 -201 1449 -201 1449 -228 1476 c 256,35,36
 -255 1503 -255 1503 -293.5 1503 c 128,-1,37
 -332 1503 -332 1503 -359 1476 c 0,38,39
 -386 1449 -386 1449 -386 1410.5 c 128,-1,40
 -386 1372 -386 1372 -359 1345 c 0,41,42
 -332 1318 -332 1318 -293.5 1318 c 128,-1,43
 -255 1318 -255 1318 -228 1345 c 0,32,33
EndSplineSet
EndChar

StartChar: e
Encoding: 101 101 78
Width: 0
GlyphClass: 1
Flags: W
LayerCount: 2
Fore
SplineSet
-800 676 m 1,0,-1
 -800 727 l 1,1,-1
 -801 744 l 2,2,3
 -801 760 -801 760 -786 759.5 c 128,-1,4
 -771 759 -771 759 -771 743 c 2,5,-1
 -772 702 l 1,6,-1
 -772 676 l 1,7,-1
 -702 674 l 2,8,9
 -688 674 -688 674 -689 660 c 128,-1,10
 -690 646 -690 646 -703 647 c 2,11,-1
 -772 648 l 1,12,-1
 -774 576 l 1,13,14
 -732 571 -732 571 -704 542 c 0,15,16
 -669 507 -669 507 -669 457.5 c 128,-1,17
 -669 408 -669 408 -704 373 c 0,18,19
 -739 338 -739 338 -788.5 338 c 128,-1,20
 -838 338 -838 338 -873 373 c 0,21,22
 -908 408 -908 408 -908 457.5 c 128,-1,23
 -908 507 -908 507 -873 542 c 0,24,25
 -843 573 -843 573 -800 577 c 1,26,-1
 -800 648 l 1,27,-1
 -872 649 l 2,28,29
 -887 649 -887 649 -885 663 c 128,-1,30
 -883 677 -883 677 -872 677 c 2,31,-1
 -800 676 l 1,0,-1
-723 392 m 0,32,33
 -695 419 -695 419 -695 457.5 c 128,-1,34
 -695 496 -695 496 -723 524 c 0,35,36
 -750 551 -750 551 -788.5 551 c 128,-1,37
 -827 551 -827 551 -855 524 c 0,38,39
 -882 496 -882 496 -882 457.5 c 128,-1,40
 -882 419 -882 419 -855 392 c 0,41,42
 -827 364 -827 364 -788.5 364 c 128,-1,43
 -750 364 -750 364 -723 392 c 0,32,33
EndSplineSet
EndChar

StartChar: E
Encoding: 69 69 79
Width: 0
GlyphClass: 1
Flags: W
LayerCount: 2
Fore
SplineSet
-276 621 m 1,0,-1
 -276 671 l 1,1,-1
 -277 689 l 2,2,3
 -277 704 -277 704 -262.5 704 c 128,-1,4
 -248 704 -248 704 -247 688 c 2,5,-1
 -248 647 l 1,6,-1
 -249 620 l 1,7,-1
 -179 620 l 2,8,9
 -166 620 -166 620 -166.5 606 c 128,-1,10
 -167 592 -167 592 -180 592 c 2,11,-1
 -249 593 l 1,12,-1
 -250 522 l 1,13,14
 -209 517 -209 517 -181 488 c 0,15,16
 -146 453 -146 453 -146 404 c 128,-1,17
 -146 355 -146 355 -181 321 c 0,18,19
 -215 286 -215 286 -264.5 286 c 128,-1,20
 -314 286 -314 286 -349 321 c 0,21,22
 -384 355 -384 355 -383.5 404.5 c 128,-1,23
 -383 454 -383 454 -349 488 c 0,24,25
 -319 519 -319 519 -276 522 c 1,26,-1
 -276 594 l 1,27,-1
 -347 594 l 2,28,29
 -362 594 -362 594 -360.5 608 c 128,-1,30
 -359 622 -359 622 -347 622 c 2,31,-1
 -276 621 l 1,0,-1
-199 339 m 0,32,33
 -172 366 -172 366 -172 404.5 c 128,-1,34
 -172 443 -172 443 -199 470 c 0,35,36
 -226 497 -226 497 -265 497.5 c 128,-1,37
 -304 498 -304 498 -331 470 c 0,38,39
 -358 443 -358 443 -358 404.5 c 128,-1,40
 -358 366 -358 366 -331 339 c 0,41,42
 -304 311 -304 311 -265 311 c 128,-1,43
 -226 311 -226 311 -199 339 c 0,32,33
EndSplineSet
EndChar

StartChar: five
Encoding: 53 53 80
Width: 0
GlyphClass: 1
Flags: W
LayerCount: 2
Fore
SplineSet
-790 1335 m 1,0,-1
 -861 1333 l 2,1,2
 -873 1333 -873 1333 -874.5 1347 c 128,-1,3
 -876 1361 -876 1361 -862 1361 c 2,4,-1
 -790 1362 l 1,5,-1
 -790 1434 l 1,6,7
 -833 1438 -833 1438 -863 1468 c 0,8,9
 -898 1503 -898 1503 -898 1552.5 c 128,-1,10
 -898 1602 -898 1602 -863 1637 c 0,11,12
 -828 1672 -828 1672 -778.5 1672 c 128,-1,13
 -729 1672 -729 1672 -694 1637 c 0,14,15
 -659 1602 -659 1602 -659 1552.5 c 128,-1,16
 -659 1503 -659 1503 -694 1468 c 0,17,18
 -722 1439 -722 1439 -764 1434 c 1,19,-1
 -763 1363 l 1,20,-1
 -693 1364 l 2,21,22
 -680 1364 -680 1364 -679 1349.5 c 128,-1,23
 -678 1335 -678 1335 -692 1336 c 2,24,-1
 -763 1335 l 1,25,-1
 -762 1309 l 1,26,-1
 -761 1267 l 2,27,28
 -761 1251 -761 1251 -776 1250.5 c 128,-1,29
 -791 1250 -791 1250 -791 1267 c 2,30,-1
 -790 1284 l 1,31,-1
 -790 1335 l 1,0,-1
-712 1619 m 0,32,33
 -739 1646 -739 1646 -778 1646 c 128,-1,34
 -817 1646 -817 1646 -845 1619 c 0,35,36
 -872 1591 -872 1591 -872.5 1552.5 c 128,-1,37
 -873 1514 -873 1514 -845 1486 c 0,38,39
 -817 1458 -817 1458 -778.5 1458 c 128,-1,40
 -740 1458 -740 1458 -712 1486 c 0,41,42
 -684 1513 -684 1513 -684 1552 c 128,-1,43
 -684 1591 -684 1591 -712 1619 c 0,32,33
EndSplineSet
EndChar

StartChar: percent
Encoding: 37 37 81
Width: 0
GlyphClass: 1
Flags: W
LayerCount: 2
Fore
SplineSet
-297 1370 m 1,0,-1
 -370 1369 l 2,1,2
 -382 1369 -382 1369 -383.5 1382.5 c 128,-1,3
 -385 1396 -385 1396 -370 1396 c 2,4,-1
 -297 1397 l 1,5,-1
 -297 1470 l 1,6,7
 -340 1473 -340 1473 -372 1504 c 0,8,9
 -407 1539 -407 1539 -407 1589 c 128,-1,10
 -407 1639 -407 1639 -372 1674 c 256,11,12
 -337 1709 -337 1709 -287 1709 c 128,-1,13
 -237 1709 -237 1709 -202 1674 c 0,14,15
 -166 1639 -166 1639 -166.5 1589 c 128,-1,16
 -167 1539 -167 1539 -202 1504 c 0,17,18
 -231 1474 -231 1474 -272 1470 c 1,19,-1
 -271 1398 l 1,20,-1
 -201 1399 l 2,21,22
 -188 1399 -188 1399 -187 1385 c 128,-1,23
 -186 1371 -186 1371 -200 1372 c 2,24,-1
 -270 1371 l 1,25,-1
 -270 1344 l 1,26,-1
 -269 1302 l 2,27,28
 -269 1285 -269 1285 -284 1285 c 128,-1,29
 -299 1285 -299 1285 -299 1301 c 2,30,-1
 -297 1319 l 1,31,-1
 -297 1370 l 1,0,-1
-220 1656 m 0,32,33
 -247 1683 -247 1683 -286.5 1683 c 128,-1,34
 -326 1683 -326 1683 -354 1656 c 0,35,36
 -381 1628 -381 1628 -381 1589 c 128,-1,37
 -381 1550 -381 1550 -354 1522 c 0,38,39
 -326 1494 -326 1494 -287 1494.5 c 128,-1,40
 -248 1495 -248 1495 -220 1522 c 0,41,42
 -192 1549 -192 1549 -192 1588.5 c 128,-1,43
 -192 1628 -192 1628 -220 1656 c 0,32,33
EndSplineSet
EndChar

StartChar: T
Encoding: 84 84 82
Width: 0
GlyphClass: 1
Flags: W
LayerCount: 2
Fore
SplineSet
-299 363 m 1,0,-1
 -371 361 l 2,1,2
 -383 361 -383 361 -384.5 375 c 128,-1,3
 -386 389 -386 389 -372 389 c 2,4,-1
 -299 391 l 1,5,-1
 -299 462 l 1,6,7
 -342 465 -342 465 -373 497 c 0,8,9
 -408 532 -408 532 -408 581 c 128,-1,10
 -408 630 -408 630 -373 666 c 0,11,12
 -338 701 -338 701 -288 700.5 c 128,-1,13
 -238 700 -238 700 -204 666 c 0,14,15
 -169 631 -169 631 -168.5 581 c 128,-1,16
 -168 531 -168 531 -204 497 c 0,17,18
 -233 468 -233 468 -273 462 c 1,19,-1
 -272 391 l 1,20,-1
 -203 392 l 2,21,22
 -190 392 -190 392 -189 377.5 c 128,-1,23
 -188 363 -188 363 -202 364 c 2,24,-1
 -272 363 l 1,25,-1
 -271 337 l 1,26,-1
 -270 295 l 2,27,28
 -270 278 -270 278 -285.5 278.5 c 128,-1,29
 -301 279 -301 279 -301 295 c 2,30,-1
 -299 312 l 1,31,-1
 -299 363 l 1,0,-1
-222 647 m 0,32,33
 -249 674 -249 674 -288 674 c 128,-1,34
 -327 674 -327 674 -354 647 c 0,35,36
 -381 619 -381 619 -381.5 580.5 c 128,-1,37
 -382 542 -382 542 -354 515 c 0,38,39
 -327 487 -327 487 -288.5 487 c 128,-1,40
 -250 487 -250 487 -222 515 c 0,41,42
 -194 542 -194 542 -194 580.5 c 128,-1,43
 -194 619 -194 619 -222 647 c 0,32,33
EndSplineSet
EndChar

StartChar: t
Encoding: 116 116 83
Width: 0
GlyphClass: 1
Flags: W
LayerCount: 2
Fore
SplineSet
-791 414 m 1,0,-1
 -862 413 l 2,1,2
 -874 413 -874 413 -875.5 426.5 c 128,-1,3
 -877 440 -877 440 -862 441 c 2,4,-1
 -791 442 l 1,5,-1
 -791 512 l 1,6,7
 -834 516 -834 516 -864 546 c 0,8,9
 -899 581 -899 581 -898.5 630 c 128,-1,10
 -898 679 -898 679 -864 714 c 0,11,12
 -829 748 -829 748 -780 748 c 128,-1,13
 -731 748 -731 748 -697 714 c 0,14,15
 -662 679 -662 679 -662 630 c 128,-1,16
 -662 581 -662 581 -697 546 c 0,17,18
 -726 517 -726 517 -765 513 c 1,19,-1
 -764 442 l 1,20,-1
 -695 443 l 2,21,22
 -682 443 -682 443 -681.5 429 c 128,-1,23
 -681 415 -681 415 -694 416 c 2,24,-1
 -764 415 l 1,25,-1
 -764 388 l 1,26,-1
 -762 348 l 2,27,28
 -762 331 -762 331 -777 331 c 128,-1,29
 -792 331 -792 331 -792 347 c 2,30,-1
 -791 364 l 1,31,-1
 -791 414 l 1,0,-1
-714 695 m 0,32,33
 -741 722 -741 722 -779.5 722.5 c 128,-1,34
 -818 723 -818 723 -846 695 c 0,35,36
 -873 668 -873 668 -873 629.5 c 128,-1,37
 -873 591 -873 591 -846 565 c 0,38,39
 -819 537 -819 537 -780.5 537 c 128,-1,40
 -742 537 -742 537 -714 565 c 0,41,42
 -687 591 -687 591 -687 629.5 c 128,-1,43
 -687 668 -687 668 -714 695 c 0,32,33
EndSplineSet
EndChar

StartChar: u
Encoding: 117 117 84
Width: 0
GlyphClass: 1
Flags: W
LayerCount: 2
Fore
SplineSet
-751 716 m 1,0,1
 -742 740 -742 740 -731 769.5 c 128,-1,2
 -720 799 -720 799 -720 806 c 1,3,4
 -714 821 -714 821 -700.5 817 c 128,-1,5
 -687 813 -687 813 -692 799 c 2,6,-1
 -728 710 l 1,7,8
 -695 696 -695 696 -673.5 666 c 128,-1,9
 -652 636 -652 636 -652 598 c 0,10,11
 -652 548 -652 548 -687 513.5 c 128,-1,12
 -722 479 -722 479 -771 479 c 0,13,14
 -796 479 -796 479 -821 489 c 1,15,-1
 -854 426 l 2,16,17
 -860 414 -860 414 -812.5 436 c 128,-1,18
 -765 458 -765 458 -690 417 c 0,19,20
 -679 411 -679 411 -657 391 c 128,-1,21
 -635 371 -635 371 -619 379 c 0,22,23
 -618 379 -618 379 -634.5 401.5 c 128,-1,24
 -651 424 -651 424 -619 448 c 0,25,26
 -598 463 -598 463 -572 442 c 128,-1,27
 -546 421 -546 421 -565 381 c 0,28,29
 -575 359 -575 359 -600.5 354 c 128,-1,30
 -626 349 -626 349 -645 350 c 0,31,32
 -705 353 -705 353 -735.5 380.5 c 128,-1,33
 -766 408 -766 408 -806 412 c 0,34,35
 -846 415 -846 415 -850.5 403 c 128,-1,36
 -855 391 -855 391 -871 393 c 0,37,38
 -875 393 -875 393 -880 399 c 128,-1,39
 -885 405 -885 405 -886 408 c 0,40,41
 -887 416 -887 416 -883.5 420 c 128,-1,42
 -880 424 -880 424 -879 427 c 2,43,-1
 -840 500 l 1,44,45
 -891 536 -891 536 -892 598 c 0,46,47
 -892 648 -892 648 -856.5 683 c 128,-1,48
 -821 718 -821 718 -771 718 c 0,49,50
 -760 718 -760 718 -751 716 c 1,0,1
-771 692 m 0,51,52
 -810 692 -810 692 -837.5 664.5 c 128,-1,53
 -865 637 -865 637 -865 598 c 256,54,55
 -865 559 -865 559 -837.5 531.5 c 128,-1,56
 -810 504 -810 504 -771 504 c 0,57,58
 -732 504 -732 504 -705 532 c 128,-1,59
 -678 560 -678 560 -678 598 c 256,60,61
 -678 637 -678 637 -705 664.5 c 128,-1,62
 -732 692 -732 692 -771 692 c 0,51,52
EndSplineSet
EndChar

StartChar: U
Encoding: 85 85 85
Width: 0
GlyphClass: 1
Flags: W
LayerCount: 2
Fore
SplineSet
-301 592 m 1,0,1
 -292 616 -292 616 -281 646 c 128,-1,2
 -270 676 -270 676 -270 682 c 1,3,4
 -264 697 -264 697 -250 693 c 128,-1,5
 -236 689 -236 689 -242 675 c 2,6,-1
 -277 585 l 1,7,8
 -244 571 -244 571 -222.5 541 c 128,-1,9
 -201 511 -201 511 -201 473 c 0,10,11
 -201 423 -201 423 -236.5 387.5 c 128,-1,12
 -272 352 -272 352 -322 352 c 0,13,14
 -347 352 -347 352 -372 362 c 1,15,-1
 -405 299 l 2,16,17
 -411 287 -411 287 -363 309.5 c 128,-1,18
 -315 332 -315 332 -240 290 c 0,19,20
 -229 284 -229 284 -207 264 c 128,-1,21
 -185 244 -185 244 -167 251 c 0,22,23
 -166 251 -166 251 -183 274 c 128,-1,24
 -200 297 -200 297 -168 321 c 0,25,26
 -147 336 -147 336 -121 314.5 c 128,-1,27
 -95 293 -95 293 -114 253 c 0,28,29
 -125 231 -125 231 -150 226 c 128,-1,30
 -175 221 -175 221 -194 223 c 0,31,32
 -256 226 -256 226 -286 253 c 128,-1,33
 -316 280 -316 280 -356 284 c 0,34,35
 -396 287 -396 287 -401.5 275 c 128,-1,36
 -407 263 -407 263 -422 265 c 0,37,38
 -426 265 -426 265 -431.5 271.5 c 128,-1,39
 -437 278 -437 278 -437 280 c 0,40,41
 -438 288 -438 288 -435 292.5 c 128,-1,42
 -432 297 -432 297 -430 300 c 2,43,-1
 -392 374 l 1,44,45
 -443 410 -443 410 -443 473 c 0,46,47
 -443 523 -443 523 -407.5 558.5 c 128,-1,48
 -372 594 -372 594 -322 594 c 0,49,50
 -314 594 -314 594 -301 592 c 1,0,1
-322 567 m 0,51,52
 -361 567 -361 567 -389 539.5 c 128,-1,53
 -417 512 -417 512 -417 473 c 256,54,55
 -417 434 -417 434 -389 405.5 c 128,-1,56
 -361 377 -361 377 -322 377 c 0,57,58
 -282 377 -282 377 -254.5 405.5 c 128,-1,59
 -227 434 -227 434 -227 473 c 256,60,61
 -227 512 -227 512 -254.5 539.5 c 128,-1,62
 -282 567 -282 567 -322 567 c 0,51,52
EndSplineSet
EndChar

StartChar: s
Encoding: 115 115 86
Width: 0
GlyphClass: 1
Flags: W
LayerCount: 2
Fore
SplineSet
-682 439 m 1,0,1
 -717 411 -717 411 -762 413 c 128,-1,2
 -807 415 -807 415 -839 447 c 0,3,4
 -871 479 -871 479 -873 524.5 c 128,-1,5
 -875 570 -875 570 -847 605 c 1,6,-1
 -935 692 l 2,7,8
 -944 701 -944 701 -935.5 711 c 128,-1,9
 -927 721 -927 721 -917 710 c 2,10,-1
 -830 622 l 1,11,12
 -795 650 -795 650 -750 648 c 128,-1,13
 -705 646 -705 646 -673 614 c 0,14,15
 -641 581 -641 581 -638.5 536 c 128,-1,16
 -636 491 -636 491 -665 456 c 1,17,-1
 -582 374 l 2,18,19
 -571 363 -571 363 -580 354 c 128,-1,20
 -589 345 -589 345 -600 355 c 2,21,-1
 -682 439 l 1,0,1
-821 596 m 256,22,23
 -848 569 -848 569 -848.5 530.5 c 128,-1,24
 -849 492 -849 492 -821 465 c 0,25,26
 -794 438 -794 438 -755.5 438 c 128,-1,27
 -717 438 -717 438 -690 465 c 0,28,29
 -663 492 -663 492 -663.5 530.5 c 128,-1,30
 -664 569 -664 569 -690 596 c 256,31,32
 -717 623 -717 623 -755.5 623 c 128,-1,33
 -794 623 -794 623 -821 596 c 256,22,23
EndSplineSet
EndChar

StartChar: S
Encoding: 83 83 87
Width: 0
GlyphClass: 1
Flags: W
LayerCount: 2
Fore
SplineSet
-212 442 m 1,0,1
 -246 414 -246 414 -291 415.5 c 128,-1,2
 -336 417 -336 417 -369 450 c 0,3,4
 -400 482 -400 482 -402 526.5 c 128,-1,5
 -404 571 -404 571 -376 606 c 1,6,-1
 -463 692 l 2,7,8
 -473 701 -473 701 -464 711 c 128,-1,9
 -455 721 -455 721 -445 710 c 2,10,-1
 -359 623 l 1,11,12
 -325 651 -325 651 -280 648.5 c 128,-1,13
 -235 646 -235 646 -204 615 c 0,14,15
 -172 583 -172 583 -170 538 c 128,-1,16
 -168 493 -168 493 -195 459 c 1,17,-1
 -114 377 l 2,18,19
 -103 366 -103 366 -112.5 357.5 c 128,-1,20
 -122 349 -122 349 -132 359 c 2,21,-1
 -212 442 l 1,0,1
-351 597 m 0,22,23
 -377 570 -377 570 -377 532 c 128,-1,24
 -377 494 -377 494 -351 468 c 0,25,26
 -324 441 -324 441 -286 440.5 c 128,-1,27
 -248 440 -248 440 -221 468 c 0,28,29
 -194 494 -194 494 -194 532 c 128,-1,30
 -194 570 -194 570 -221 597 c 256,31,32
 -248 624 -248 624 -286 624 c 128,-1,33
 -324 624 -324 624 -351 597 c 0,22,23
EndSplineSet
EndChar

StartChar: six
Encoding: 54 54 88
Width: 0
GlyphClass: 1
Flags: W
LayerCount: 2
Fore
SplineSet
-833 1333 m 1,0,-1
 -914 1250 l 2,1,2
 -924 1240 -924 1240 -933.5 1249 c 128,-1,3
 -943 1258 -943 1258 -932 1269 c 2,4,-1
 -850 1350 l 1,5,6
 -877 1384 -877 1384 -875 1429 c 128,-1,7
 -873 1474 -873 1474 -842 1506 c 0,8,9
 -810 1538 -810 1538 -765 1540 c 128,-1,10
 -720 1542 -720 1542 -686 1514 c 1,11,-1
 -600 1602 l 2,12,13
 -589 1612 -589 1612 -580.5 1602.5 c 128,-1,14
 -572 1593 -572 1593 -582 1584 c 2,15,-1
 -669 1498 l 1,16,17
 -641 1463 -641 1463 -643 1418 c 128,-1,18
 -645 1373 -645 1373 -677 1341 c 0,19,20
 -709 1309 -709 1309 -754 1307 c 128,-1,21
 -799 1305 -799 1305 -833 1333 c 1,0,-1
-695 1488 m 0,22,23
 -721 1515 -721 1515 -759 1515 c 128,-1,24
 -797 1515 -797 1515 -824 1488 c 0,25,26
 -851 1461 -851 1461 -851 1423.5 c 128,-1,27
 -851 1386 -851 1386 -824 1359 c 256,28,29
 -797 1332 -797 1332 -759 1332 c 128,-1,30
 -721 1332 -721 1332 -695 1359 c 0,31,32
 -668 1386 -668 1386 -668 1423.5 c 128,-1,33
 -668 1461 -668 1461 -695 1488 c 0,22,23
EndSplineSet
EndChar

StartChar: y
Encoding: 121 121 89
Width: 0
GlyphClass: 1
Flags: W
LayerCount: 2
Fore
SplineSet
-843 444 m 1,0,-1
 -925 360 l 2,1,2
 -935 350 -935 350 -944.5 359 c 128,-1,3
 -954 368 -954 368 -943 379 c 2,4,-1
 -860 461 l 1,5,6
 -888 496 -888 496 -886 541 c 128,-1,7
 -884 586 -884 586 -852 619 c 0,8,9
 -819 651 -819 651 -774 653 c 128,-1,10
 -729 655 -729 655 -694 626 c 1,11,-1
 -607 715 l 2,12,13
 -597 725 -597 725 -588.5 716 c 128,-1,14
 -580 707 -580 707 -589 697 c 2,15,-1
 -677 610 l 1,16,17
 -649 575 -649 575 -651 529.5 c 128,-1,18
 -653 484 -653 484 -686 452 c 0,19,20
 -718 419 -718 419 -763 417.5 c 128,-1,21
 -808 416 -808 416 -843 444 c 1,0,-1
-703 601 m 0,22,23
 -730 628 -730 628 -768 627.5 c 128,-1,24
 -806 627 -806 627 -834 601 c 0,25,26
 -860 574 -860 574 -860 535.5 c 128,-1,27
 -860 497 -860 497 -834 470 c 0,28,29
 -806 443 -806 443 -768 443 c 128,-1,30
 -730 443 -730 443 -703 470 c 0,31,32
 -676 497 -676 497 -676 535.5 c 128,-1,33
 -676 574 -676 574 -703 601 c 0,22,23
EndSplineSet
EndChar

StartChar: Y
Encoding: 89 89 90
Width: 0
GlyphClass: 1
Flags: W
LayerCount: 2
Fore
SplineSet
-376 408 m 1,0,-1
 -458 325 l 2,1,2
 -468 315 -468 315 -477.5 324 c 128,-1,3
 -487 333 -487 333 -476 344 c 2,4,-1
 -394 425 l 1,5,6
 -422 459 -422 459 -419.5 504.5 c 128,-1,7
 -417 550 -417 550 -385 582 c 0,8,9
 -352 614 -352 614 -307.5 616 c 128,-1,10
 -263 618 -263 618 -229 590 c 1,11,-1
 -143 678 l 2,12,13
 -133 689 -133 689 -124 679 c 128,-1,14
 -115 669 -115 669 -125 660 c 2,15,-1
 -211 573 l 1,16,17
 -183 538 -183 538 -185.5 493 c 128,-1,18
 -188 448 -188 448 -219 416 c 0,19,20
 -251 384 -251 384 -296 381.5 c 128,-1,21
 -341 379 -341 379 -376 408 c 1,0,-1
-237 564 m 128,-1,23
 -264 591 -264 591 -302 591 c 128,-1,24
 -340 591 -340 591 -368 564 c 0,25,26
 -394 537 -394 537 -394 498.5 c 128,-1,27
 -394 460 -394 460 -368 434 c 0,28,29
 -341 407 -341 407 -302.5 407 c 128,-1,30
 -264 407 -264 407 -237 434 c 0,31,32
 -210 460 -210 460 -210 498.5 c 128,-1,33
 -210 537 -210 537 -237 564 c 128,-1,23
EndSplineSet
EndChar

StartChar: asciicircum
Encoding: 94 94 91
Width: 0
GlyphClass: 1
Flags: W
LayerCount: 2
Fore
SplineSet
-354 1358 m 1,0,-1
 -436 1275 l 2,1,2
 -446 1265 -446 1265 -455 1273.5 c 128,-1,3
 -464 1282 -464 1282 -454 1293 c 2,4,-1
 -371 1375 l 1,5,6
 -399 1410 -399 1410 -397 1455 c 128,-1,7
 -395 1500 -395 1500 -362 1532 c 0,8,9
 -330 1564 -330 1564 -285 1566 c 128,-1,10
 -240 1568 -240 1568 -205 1541 c 1,11,-1
 -119 1628 l 2,12,13
 -110 1638 -110 1638 -101 1629 c 128,-1,14
 -92 1620 -92 1620 -102 1610 c 2,15,-1
 -188 1523 l 1,16,17
 -160 1488 -160 1488 -162 1443 c 128,-1,18
 -164 1398 -164 1398 -197 1366 c 0,19,20
 -229 1333 -229 1333 -274 1331.5 c 128,-1,21
 -319 1330 -319 1330 -354 1358 c 1,0,-1
-214 1514 m 0,22,23
 -241 1541 -241 1541 -279 1541 c 128,-1,24
 -317 1541 -317 1541 -345 1514 c 0,25,26
 -372 1487 -372 1487 -372 1449 c 128,-1,27
 -372 1411 -372 1411 -345 1384 c 0,28,29
 -318 1357 -318 1357 -279.5 1357 c 128,-1,30
 -241 1357 -241 1357 -214 1384 c 0,31,32
 -187 1411 -187 1411 -187 1449 c 128,-1,33
 -187 1487 -187 1487 -214 1514 c 0,22,23
EndSplineSet
EndChar

StartChar: semicolon
Encoding: 59 59 92
Width: 1
GlyphClass: 1
Flags: W
LayerCount: 2
Fore
SplineSet
-820 622 m 1,0,-1
 -808 633 l 1,1,-1
 -797 646 l 2,2,3
 -786 657 -786 657 -776 646.5 c 128,-1,4
 -766 636 -766 636 -777 625 c 2,5,-1
 -801 602 l 1,6,-1
 -754 554 l 2,7,8
 -743 545 -743 545 -754 535.5 c 128,-1,9
 -765 526 -765 526 -773 535 c 2,10,-1
 -820 583 l 1,11,-1
 -845 560 l 1,12,-1
 -797 510 l 2,13,14
 -787 501 -787 501 -797.5 492 c 128,-1,15
 -808 483 -808 483 -816 492 c 2,16,-1
 -864 541 l 1,17,-1
 -894 512 l 1,18,19
 -869 481 -869 481 -869 441 c 0,20,21
 -869 392 -869 392 -903.5 358 c 128,-1,22
 -938 324 -938 324 -985 324 c 0,23,24
 -1033 324 -1033 324 -1067.5 358 c 128,-1,25
 -1102 392 -1102 392 -1102 441 c 0,26,27
 -1102 489 -1102 489 -1068 523 c 128,-1,28
 -1034 557 -1034 557 -985 557 c 0,29,30
 -943 557 -943 557 -911 530 c 1,31,-1
 -882 559 l 1,32,-1
 -931 609 l 2,33,34
 -941 619 -941 619 -930.5 628 c 128,-1,35
 -920 637 -920 637 -912 628 c 2,36,-1
 -863 578 l 1,37,-1
 -839 603 l 1,38,-1
 -888 653 l 2,39,40
 -898 663 -898 663 -887 671.5 c 128,-1,41
 -876 680 -876 680 -869 671 c 2,42,-1
 -820 622 l 1,0,-1
-985 350 m 0,43,44
 -948 350 -948 350 -921.5 376.5 c 128,-1,45
 -895 403 -895 403 -895 441 c 0,46,47
 -895 478 -895 478 -921.5 505 c 128,-1,48
 -948 532 -948 532 -985 532 c 0,49,50
 -1023 532 -1023 532 -1050 505 c 128,-1,51
 -1077 478 -1077 478 -1077 441 c 0,52,53
 -1077 403 -1077 403 -1050 376.5 c 128,-1,54
 -1023 350 -1023 350 -985 350 c 0,43,44
EndSplineSet
EndChar

StartChar: colon
Encoding: 58 58 93
Width: 0
GlyphClass: 1
Flags: W
LayerCount: 2
Fore
SplineSet
-376 606 m 1,0,-1
 -365 618 l 1,1,-1
 -354 631 l 2,2,3
 -343 642 -343 642 -332.5 631.5 c 128,-1,4
 -322 621 -322 621 -333 609 c 2,5,-1
 -357 586 l 1,6,-1
 -310 537 l 2,7,8
 -299 528 -299 528 -310 518.5 c 128,-1,9
 -321 509 -321 509 -330 519 c 2,10,-1
 -377 567 l 1,11,-1
 -402 543 l 1,12,-1
 -354 493 l 2,13,14
 -344 484 -344 484 -354.5 474.5 c 128,-1,15
 -365 465 -365 465 -374 475 c 2,16,-1
 -421 524 l 1,17,-1
 -452 495 l 1,18,19
 -428 462 -428 462 -427 422 c 0,20,21
 -427 373 -427 373 -462 339 c 128,-1,22
 -497 305 -497 305 -545 305 c 0,23,24
 -594 305 -594 305 -628.5 339.5 c 128,-1,25
 -663 374 -663 374 -663 422 c 0,26,27
 -663 470 -663 470 -628.5 505.5 c 128,-1,28
 -594 541 -594 541 -545 541 c 0,29,30
 -503 541 -503 541 -470 513 c 1,31,-1
 -440 543 l 1,32,-1
 -490 594 l 2,33,34
 -500 605 -500 605 -489 613.5 c 128,-1,35
 -478 622 -478 622 -470 613 c 2,36,-1
 -421 562 l 1,37,-1
 -396 587 l 1,38,-1
 -446 638 l 2,39,40
 -456 648 -456 648 -445.5 657 c 128,-1,41
 -435 666 -435 666 -426 657 c 2,42,-1
 -376 606 l 1,0,-1
-545 330 m 0,43,44
 -506 330 -506 330 -479.5 357 c 128,-1,45
 -453 384 -453 384 -453 422 c 256,46,47
 -453 460 -453 460 -479.5 487.5 c 128,-1,48
 -506 515 -506 515 -545 515 c 0,49,50
 -583 515 -583 515 -610 487.5 c 128,-1,51
 -637 460 -637 460 -637 422 c 256,52,53
 -637 384 -637 384 -610 357 c 128,-1,54
 -583 330 -583 330 -545 330 c 0,43,44
EndSplineSet
EndChar

StartChar: slash
Encoding: 47 47 94
Width: 0
GlyphClass: 1
Flags: W
LayerCount: 2
Fore
SplineSet
-973 400 m 1,0,-1
 -1058 600 l 1,1,-1
 -1152 400 l 1,2,-1
 -973 400 l 1,0,-1
-906 371 m 1,3,-1
 -1191 371 l 1,4,-1
 -1041 689 l 1,5,-1
 -906 371 l 1,3,-1
EndSplineSet
EndChar

StartChar: question
Encoding: 63 63 95
Width: 0
GlyphClass: 1
Flags: W
LayerCount: 2
Fore
SplineSet
-891 633 m 1,0,1
 -886 604 -886 604 -885.5 586.5 c 128,-1,2
 -885 569 -885 569 -893 551 c 1,3,4
 -907 551 -907 551 -942.5 552.5 c 128,-1,5
 -978 554 -978 554 -980 538 c 1,6,7
 -988 507 -988 507 -988 490.5 c 128,-1,8
 -988 474 -988 474 -981 449 c 0,9,10
 -972 419 -972 419 -942.5 428.5 c 128,-1,11
 -913 438 -913 438 -890 442 c 1,12,13
 -887 423 -887 423 -895 395 c 128,-1,14
 -903 367 -903 367 -910 360 c 0,15,16
 -928 343 -928 343 -947 343 c 0,17,18
 -958 343 -958 343 -969.5 354.5 c 128,-1,19
 -981 366 -981 366 -985 375 c 0,20,21
 -999 414 -999 414 -1006 467.5 c 128,-1,22
 -1013 521 -1013 521 -994 557 c 1,23,-1
 -1079 561 l 1,24,25
 -1083 486 -1083 486 -1087.5 456.5 c 128,-1,26
 -1092 427 -1092 427 -1104 382 c 0,27,28
 -1114 342 -1114 342 -1143 343 c 0,29,30
 -1156 343 -1156 343 -1164 352 c 0,31,32
 -1170 358 -1170 358 -1170 372 c 0,33,34
 -1170 375 -1170 375 -1168.5 380.5 c 128,-1,35
 -1167 386 -1167 386 -1167 387 c 0,36,37
 -1167 389 -1167 389 -1159.5 399 c 128,-1,38
 -1152 409 -1152 409 -1149 413 c 0,39,40
 -1142 422 -1142 422 -1132.5 430 c 128,-1,41
 -1123 438 -1123 438 -1116 454 c 0,42,43
 -1109 469 -1109 469 -1100.5 515 c 128,-1,44
 -1092 561 -1092 561 -1116 561 c 0,45,46
 -1135 561 -1135 561 -1150 555 c 0,47,48
 -1166 548 -1166 548 -1183 524 c 1,49,-1
 -1193 524 l 1,50,51
 -1185 572 -1185 572 -1175.5 596.5 c 128,-1,52
 -1166 621 -1166 621 -1156 629 c 0,53,54
 -1139 644 -1139 644 -1111 644 c 0,55,56
 -1060 644 -1060 644 -1000.5 638.5 c 128,-1,57
 -941 633 -941 633 -891 633 c 1,0,1
EndSplineSet
EndChar
